<svg xmlns="http://www.w3.org/2000/svg" width="40.002" height="80.027" viewBox="0 0 40.002 80.027">
  <g id="Group_389" data-name="Group 389" transform="translate(-1268 -537.973)">
    <g id="Group_345" data-name="Group 345" transform="translate(1268 537.973)">
      <g id="Group_338" data-name="Group 338" transform="translate(21.564 0)">
        <g id="Group_337" data-name="Group 337">
          <path id="Path_750" data-name="Path 750" d="M288.188,0H282.25A6.257,6.257,0,0,0,276,6.25v5.938a6.257,6.257,0,0,0,6.25,6.25h5.938a6.257,6.257,0,0,0,6.25-6.25V6.25A6.257,6.257,0,0,0,288.188,0Zm3.125,12.188a3.129,3.129,0,0,1-3.125,3.125H282.25a3.129,3.129,0,0,1-3.125-3.125V6.25a3.129,3.129,0,0,1,3.125-3.125h5.938a3.129,3.129,0,0,1,3.125,3.125Z" transform="translate(-276 0)" fill="#fff"/>
        </g>
      </g>
      <g id="Group_340" data-name="Group 340" transform="translate(0 0)">
        <g id="Group_339" data-name="Group 339">
          <path id="Path_751" data-name="Path 751" d="M12.188,0H6.25A6.257,6.257,0,0,0,0,6.25v5.938a6.257,6.257,0,0,0,6.25,6.25h5.938a6.257,6.257,0,0,0,6.25-6.25V6.25A6.257,6.257,0,0,0,12.188,0Zm3.125,12.188a3.129,3.129,0,0,1-3.125,3.125H6.25a3.129,3.129,0,0,1-3.125-3.125V6.25A3.129,3.129,0,0,1,6.25,3.125h5.938A3.129,3.129,0,0,1,15.313,6.25Z" transform="translate(0 0)" fill="#fff"/>
        </g>
      </g>
      <g id="Group_342" data-name="Group 342" transform="translate(0 21.564)">
        <g id="Group_341" data-name="Group 341">
          <path id="Path_752" data-name="Path 752" d="M12.188,276H6.25A6.257,6.257,0,0,0,0,282.25v5.938a6.257,6.257,0,0,0,6.25,6.25h5.938a6.257,6.257,0,0,0,6.25-6.25V282.25A6.257,6.257,0,0,0,12.188,276Zm3.125,12.188a3.129,3.129,0,0,1-3.125,3.125H6.25a3.129,3.129,0,0,1-3.125-3.125V282.25a3.129,3.129,0,0,1,3.125-3.125h5.938a3.129,3.129,0,0,1,3.125,3.125Z" transform="translate(0 -276)" fill="#fff"/>
        </g>
      </g>
      <g id="Group_344" data-name="Group 344" transform="translate(21.564 21.564)">
        <g id="Group_343" data-name="Group 343">
          <path id="Path_753" data-name="Path 753" d="M292.876,286.626a1.563,1.563,0,0,0-1.563,1.563,3.129,3.129,0,0,1-3.125,3.125H282.25a3.129,3.129,0,0,1-3.125-3.125V282.25a3.129,3.129,0,0,1,3.125-3.125h5.938A3.127,3.127,0,0,1,291.053,281a1.563,1.563,0,0,0,2.863-1.252A6.253,6.253,0,0,0,288.188,276H282.25a6.257,6.257,0,0,0-6.25,6.25v5.938a6.257,6.257,0,0,0,6.25,6.25h5.938a6.257,6.257,0,0,0,6.25-6.25A1.563,1.563,0,0,0,292.876,286.626Z" transform="translate(-276 -276)" fill="#fff"/>
        </g>
      </g>
    </g>
    <text id="เมนู" transform="translate(1288 605)" fill="#fff" font-size="40" font-family="DBSaiKrokX-Bold, DB SaiKrok X" font-weight="700"><tspan x="-16.94" y="0">เมนู</tspan></text>
  </g>
</svg>
