<svg id="Group_484" data-name="Group 484" xmlns="http://www.w3.org/2000/svg" width="65.103" height="81.794" viewBox="0 0 65.103 81.794">
    <g id="Group_489" data-name="Group 489" transform="translate(0 0)">
        <g id="Group_488" data-name="Group 488" transform="translate(0 0)">
            <path id="Path_793" data-name="Path 793" d="M876.5,64.948a13.788,13.788,0,0,1,7.818-12.413,16.758,16.758,0,0,0,1.8,5.258,2.052,2.052,0,0,0,3.6-1.961,12.571,12.571,0,0,1-1.125-2.86l3.247,2.359a15.319,15.319,0,0,0,18.062,0l3.252-2.362a12.711,12.711,0,0,1-12.281,9.5,12.55,12.55,0,0,1-7.906-2.764,2.052,2.052,0,1,0-2.559,3.207,16.791,16.791,0,0,0,27.027-10.374,13.8,13.8,0,0,1,1.754,1.007,2.051,2.051,0,1,0,2.3-3.4,17.843,17.843,0,0,0-2.5-1.41l.434-.315a19.674,19.674,0,0,0,8-17.593,7.461,7.461,0,0,0-1.4-14.478l-.23-2.38a2.051,2.051,0,1,0-4.084.394l1.614,16.711A15.556,15.556,0,0,1,917.012,45.1l-9.517,6.913a11.226,11.226,0,0,1-13.237,0L884.741,45.1a15.557,15.557,0,0,1-6.317-14.027l1.454-15.063c3.142-.474,9.679-1.976,12.841-6.47,4.62,2.347,10.177,2.156,16.905-.566,4.819-1.95,9.786-1.526,14.76,1.261a25.333,25.333,0,0,1,6.314,5.034,2.051,2.051,0,0,0,3.624-1.317A27.483,27.483,0,0,0,921.511-9.658a2.051,2.051,0,0,0-2.841.588,2.051,2.051,0,0,0,.589,2.841,23.491,23.491,0,0,1,10.449,15.06,29.136,29.136,0,0,0-3.19-2.1c-6.068-3.442-12.442-3.98-18.432-1.557C899.679,8.571,895.522,6.7,893.127,5a15.406,15.406,0,0,1-1.987-1.7,2.051,2.051,0,0,0-2.9,2.9c.365.365.727.7,1.091,1.017-2.161,3.007-7.217,4.333-10.2,4.759C878,9.757,875.814,4.607,877.576.641c3.859-8.683,15.765-11.765,24.787-11.765a31.9,31.9,0,0,1,12.406,2.5,2.052,2.052,0,0,0,2.692-1.083,2.052,2.052,0,0,0-1.083-2.692,36.039,36.039,0,0,0-14.015-2.826c-16.386,0-25.485,7.336-28.536,14.2-2.739,6.162.849,13.477,2.062,15.652l-.166,1.718a7.461,7.461,0,0,0-1.4,14.48,19.675,19.675,0,0,0,8,17.592l.434.316a17.9,17.9,0,0,0-10.369,16.215m56.963,0a17.783,17.783,0,0,0-2.953-9.84,2.051,2.051,0,1,0-3.422,2.263,13.694,13.694,0,0,1,2.272,7.577M874.745,26.489a3.358,3.358,0,0,1,.561-5.805Zm53.681-2.747a3.351,3.351,0,0,1-1.419,2.745l-.56-5.8A3.36,3.36,0,0,1,928.425,23.742Z" transform="translate(-869.22 15.227)" fill="#fff"/>
        </g>
    </g>
    <g id="Group_491" data-name="Group 491" transform="translate(19.283 40.885)">
        <g id="Group_490" data-name="Group 490" transform="translate(0)">
            <path id="Path_794" data-name="Path 794" d="M947.46,146.313a2.051,2.051,0,0,0-2.052,2.052v2.781a2.052,2.052,0,1,0,4.1,0v-2.781A2.052,2.052,0,0,0,947.46,146.313Z" transform="translate(-945.408 -146.313)" fill="#fff"/>
        </g>
    </g>
    <g id="Group_493" data-name="Group 493" transform="translate(35.949 32.515)">
        <g id="Group_492" data-name="Group 492" transform="translate(0)">
            <path id="Path_795" data-name="Path 795" d="M1022.71,115.49a7.674,7.674,0,0,0-10.852,0,2.051,2.051,0,0,0,2.9,2.9,3.57,3.57,0,0,1,5.049,0,2.052,2.052,0,0,0,2.9-2.9Z" transform="translate(-1011.257 -113.243)" fill="#fff"/>
        </g>
    </g>
    <g id="Group_495" data-name="Group 495" transform="translate(15.307 32.515)">
        <g id="Group_494" data-name="Group 494" transform="translate(0)">
            <path id="Path_796" data-name="Path 796" d="M941.152,115.49a7.674,7.674,0,0,0-10.852,0,2.051,2.051,0,1,0,2.9,2.9,3.57,3.57,0,0,1,5.049,0,2.052,2.052,0,0,0,2.9-2.9Z" transform="translate(-929.699 -113.243)" fill="#fff"/>
        </g>
    </g>
    <g id="Group_497" data-name="Group 497" transform="translate(39.924 40.885)">
        <g id="Group_496" data-name="Group 496" transform="translate(0)">
            <path id="Path_797" data-name="Path 797" d="M1029.016,146.313a2.051,2.051,0,0,0-2.052,2.052v2.781a2.052,2.052,0,1,0,4.1,0v-2.781A2.052,2.052,0,0,0,1029.016,146.313Z" transform="translate(-1026.964 -146.313)" fill="#fff"/>
        </g>
    </g>
    <g id="Group_499" data-name="Group 499" transform="translate(25.095 56.129)">
        <g id="Group_498" data-name="Group 498" transform="translate(0)">
            <path id="Path_798" data-name="Path 798" d="M980.892,207.143a2.052,2.052,0,0,0-2.9,0,4.329,4.329,0,0,1-6.115,0,2.051,2.051,0,0,0-2.9,2.9,8.437,8.437,0,0,0,11.918,0A2.051,2.051,0,0,0,980.892,207.143Z" transform="translate(-968.373 -206.542)" fill="#fff"/>
        </g>
    </g>
</svg>
