<svg xmlns="http://www.w3.org/2000/svg" width="47.625" height="47.742" viewBox="0 0 47.625 47.742">
    <g id="Group_19" data-name="Group 19" transform="translate(-1026.5 -252.466)">
        <path id="Path_453" data-name="Path 453" d="M1061.288,296.769a23.64,23.64,0,1,1,9.414-9.332l3.422,12.771Zm6.532-2.863-1.911-7.13.5-.815a19.172,19.172,0,1,0-6.564,6.505l.808-.482Z" fill="#E71618"/>
        <path id="Path_454" data-name="Path 454" d="M1056.044,276.011c-.972-.582-2.234-1.229-3.377-.761-.877.359-1.437,1.731-2.005,2.433a.841.841,0,0,1-1.088.236,15.287,15.287,0,0,1-7.633-6.539.936.936,0,0,1,.119-1.278,5.159,5.159,0,0,0,1.386-2.252,4.917,4.917,0,0,0-.619-2.664c-.46-.992-.974-2.4-1.967-2.966a2.694,2.694,0,0,0-2.927.436,5.941,5.941,0,0,0-2.06,4.708,6.683,6.683,0,0,0,.185,1.494,12.379,12.379,0,0,0,1.433,3.3,26.26,26.26,0,0,0,1.5,2.275,23.105,23.105,0,0,0,6.489,6.026,19.658,19.658,0,0,0,4.048,1.924,8.994,8.994,0,0,0,4.71.744,5.7,5.7,0,0,0,4.272-3.178,2.752,2.752,0,0,0,.2-1.621C1058.459,277.214,1056.946,276.55,1056.044,276.011Z" transform="translate(3.273 3.315)" fill="#E71618" fill-rule="evenodd"/>
    </g>
</svg>
