<?xml version="1.0" standalone="no"?>
<!DOCTYPE svg PUBLIC "-//W3C//DTD SVG 1.1//EN" "http://www.w3.org/Graphics/SVG/1.1/DTD/svg11.dtd" >
<svg xmlns="http://www.w3.org/2000/svg" xmlns:xlink="http://www.w3.org/1999/xlink" version="1.1">
<metadata>
Created by FontForge 20170731 at Tue Jul 17 09:13:13 2007
 By Aleksey,,,
Copyright (c) 2007 by Prinya R. nont. All rights reserved.
</metadata>
<defs>
<font id="DBSaiKrokX-Light" horiz-adv-x="0" >
  <font-face 
    font-family="DB SaiKrok X"
    font-weight="300"
    font-stretch="normal"
    units-per-em="1000"
    panose-1="2 0 5 6 6 0 0 2 0 4"
    ascent="800"
    descent="-200"
    x-height="352"
    cap-height="474"
    bbox="-340.6 -298 964 741.16"
    underline-thickness="20"
    underline-position="-153"
    unicode-range="U+0020-F882"
  />
<missing-glyph horiz-adv-x="414" 
d="M422 400v-14h6q7 0 7 9q0 1 -1.5 3t-5.5 2h-6zM425 385h-3v-14h-5v34h11q12 0 12 -10q0 -7 -3 -8.5t-7 -1.5l10 -14h-5zM428 366q13 0 17.5 7t4.5 13q0 24 -22 24q-23 0 -23 -24q0 -8 5.5 -14t17.5 -6zM428 413q13 0 19 -8t6 -19q0 -8 -6 -15.5t-19 -7.5q-12 0 -19 7.5
t-7 15.5q0 11 7 19t19 8zM201 316q16 -1 37.5 -4t43 -7t39.5 -9.5t27 -12.5q-20 40 -62 61.5t-86 21.5q-34 0 -65 -13t-51 -40q18 2 36 3t36 1h22.5t22.5 -1zM375 395v-142q-48 15 -109.5 25.5t-130.5 10.5q-48 0 -94 -6q6 22 19 42.5t33 36t46.5 24.5t58.5 9q31 0 56 -7
t43.5 -17t31.5 -22t19 -21q0 -1 0 6.5t-0.5 18.5t-0.5 23v19h28zM153 127q0 8 -5.5 12t-11.5 4q-7 0 -12 -4t-5 -12t5 -11.5t12 -3.5q6 0 11.5 3.5t5.5 11.5zM32 139q0 23 9 41t24 30t34 18t39 6t38.5 -5.5t33 -16.5t23 -28t8.5 -41v-116h106v202h28v-228h-189v26h29v119
q0 30 -22 45t-54 15q-30 0 -54 -16.5t-24 -46.5v-107l58 58q-5 2 -13 10t-8 23q0 18 11 28.5t29 10.5q17 0 27.5 -11.5t10.5 -27.5q0 -14 -5.5 -21.5t-9.5 -11.5q-2 -2 -17 -16.5t-33 -31.5q-11 -10 -22.5 -21t-24.5 -24h-32v138z" />
    <glyph glyph-name="plusminus" unicode="&#x2b;&#x2d;" horiz-adv-x="379" 
d="M206 204v-117q0 -9 -5 -13.5t-11.5 -4.5t-11.5 4.5t-5 13.5v117h-117q-9 0 -13 5t-4 11.5t4 11.5t13 5h117v117q0 9 5 13t11.5 4t11.5 -4t5 -13v-117h117q9 0 13.5 -5t4.5 -11.5t-4.5 -11.5t-13.5 -5h-117zM56 0q-9 0 -13 5t-4 11.5t4 11.5t13 5h267q9 0 13.5 -5
t4.5 -11.5t-4.5 -11.5t-13.5 -5h-267z" />
    <glyph glyph-name="ellipsis" unicode="&#x2e;&#x2e;&#x2e;" horiz-adv-x="870" 
d="M751 22q0 -11 -7.5 -18.5t-18.5 -7.5t-19 7.5t-8 18.5t8 19t19 8t18.5 -8t7.5 -19zM461 22q0 -11 -7.5 -18.5t-18.5 -7.5t-18.5 7.5t-7.5 18.5t7.5 19t18.5 8t18.5 -8t7.5 -19zM172 22q0 -11 -8 -18.5t-19 -7.5t-18.5 7.5t-7.5 18.5t7.5 19t18.5 8t19 -8t8 -19z" />
    <glyph glyph-name="lessequal" unicode="&#x3c;&#x3d;" horiz-adv-x="348" 
d="M79 260l215 -125q10 -6 12 -13t-1 -12.5t-10.5 -7t-17.5 4.5l-223 129q-12 7 -16 11.5t-4 11.5t4 12t16 12l223 129q11 7 19 6t11.5 -6.5t0.5 -13.5t-14 -15zM294 35q10 -6 12 -13t-1 -12.5t-10.5 -7t-17.5 4.5l-230 133q-10 6 -12 13t1 12.5t10.5 7t17.5 -4.5z" />
    <glyph glyph-name="greaterequal" unicode="&#x3e;&#x3d;" horiz-adv-x="348" 
d="M50 383q-11 7 -14 15t0.5 13.5t11.5 6.5t19 -6l223 -129q12 -7 16 -12t4 -12t-4 -11.5t-16 -11.5l-223 -129q-10 -6 -17.5 -4.5t-10.5 7t-1 12.5t12 13l215 125zM280 168q10 6 17.5 4.5t10.5 -7t1 -12.5t-12 -13l-230 -133q-10 -6 -17.5 -4.5t-10.5 7t-1 12.5t12 13z" />
    <glyph glyph-name="fongmanfunnuthai" unicode="&#xe4f;&#x22;" horiz-adv-x="532" 
d="M326 485q0 -9 -4.5 -14t-9.5 -5t-9.5 5t-4.5 14l-4 104q-1 9 4.5 13.5t13.5 4.5q19 0 18 -18zM232 485q0 -9 -4.5 -14t-9.5 -5t-9.5 5t-4.5 14l-4 104q0 18 18 18q19 0 18 -18zM479 206q0 -44 -17 -82t-46 -66.5t-68 -44.5t-82 -16q-44 0 -82.5 16t-67.5 44.5t-46 66.5
t-17 82q0 43 17 80.5t46 66t67.5 45t82.5 16.5q43 0 82 -16.5t68 -44.5t46 -66t17 -81zM447 206q0 38 -14 71t-39 58t-58 39t-70 14q-38 0 -70.5 -14t-57.5 -39t-39 -58t-14 -71t14 -71.5t39 -58t57.5 -39t70.5 -14.5q37 0 70 14.5t58 39t39 58t14 71.5zM376 206
q0 -23 -8.5 -42.5t-23.5 -34.5t-35 -23.5t-43 -8.5t-43 8.5t-35 23.5t-23.5 34.5t-8.5 42.5q0 22 8.5 41.5t23.5 34.5t35 23.5t43 8.5t43 -8.5t35 -23.5t23.5 -34.5t8.5 -41.5zM347 206q0 35 -23 58t-58 23t-58 -23t-23 -58t23 -58t58 -23t58 23t23 58z" />
    <glyph glyph-name="dochadaphinthuthai" unicode="&#xe0e;&#xe3a;" horiz-adv-x="354" 
d="M317 -213q0 -25 -25 -25t-25 25t25 25t25 -25zM311 -89q0 -17 -3.5 -30t-17.5 -20q-9 -5 -23 -5t-22 9l-52 56l-56 -58q-15 -16 -27 -4q-5 4 -5.5 12.5t8.5 17.5l67 70q12 12 23 1l71 -75v342q0 48 -26.5 72.5t-66.5 23.5l-92 -1v-102v-94.5t1 -94.5q0 -17 -7 -24.5
t-24 -7.5h-32q-23 0 -23 20q0 19 23 19h26v292q0 22 18 22l111 3q24 0 47 -6t41.5 -20.5t29.5 -39.5t11 -63v-315z" />
    <glyph glyph-name="topatakphintuthai" unicode="&#xe0f;&#xe3a;" horiz-adv-x="354" 
d="M317 -213q0 -25 -25 -25t-25 25t25 25t25 -25zM197 -85l-51 -54q-7 -8 -14.5 -7.5t-12.5 6.5l-59 63q-14 13 0 27q12 11 23 0l49 -52l47 50q7 8 18 7.5t17 -6.5l60 -64v343q0 48 -25.5 72.5t-67.5 23.5l-91 -1v-290q0 -17 -6.5 -25t-23.5 -8h-33q-23 0 -23 20q0 17 23 19
h26v292q0 22 19 22l110 2q24 1 47.5 -4.5t41.5 -20.5t29 -40.5t11 -62.5v-316q0 -17 -3.5 -30t-17.5 -20q-9 -5 -23 -5t-22 9z" />
    <glyph glyph-name="dochadasarauthai" unicode="&#xe0e;&#xe38;" horiz-adv-x="354" 
d="M311 -89q0 -17 -3.5 -30t-17.5 -20q-9 -5 -23 -5t-22 9l-52 56l-56 -58q-15 -16 -27 -4q-5 4 -5.5 12.5t8.5 17.5l67 70q12 12 23 1l71 -75v342q0 48 -26.5 72.5t-66.5 23.5l-92 -1v-102v-94.5t1 -94.5q0 -17 -7 -24.5t-24 -7.5h-32q-23 0 -23 20q0 19 23 19h26v292
q0 22 18 22l111 3q24 0 47 -6t41.5 -20.5t29.5 -39.5t11 -63v-315zM311 -275q0 -20 -16 -20q-18 0 -18 20v59h-34q-22 0 -22 17q0 19 22 19h49q19 0 19 -20v-75z" />
    <glyph glyph-name="topataksarauthai" unicode="&#xe0f;&#xe38;" horiz-adv-x="354" 
d="M311 -275q0 -20 -16 -20q-18 0 -18 20v59h-34q-22 0 -22 17q0 19 22 19h49q19 0 19 -20v-75zM197 -85l-51 -54q-7 -8 -14.5 -7.5t-12.5 6.5l-59 63q-14 13 0 27q12 11 23 0l49 -52l47 50q7 8 18 7.5t17 -6.5l60 -64v343q0 48 -25.5 72.5t-67.5 23.5l-91 -1v-290
q0 -17 -6.5 -25t-23.5 -8h-33q-23 0 -23 20q0 17 23 19h26v292q0 22 19 22l110 2q24 1 47.5 -4.5t41.5 -20.5t29 -40.5t11 -62.5v-316q0 -17 -3.5 -30t-17.5 -20q-9 -5 -23 -5t-22 9z" />
    <glyph glyph-name=".notdef" horiz-adv-x="414" 
d="M422 400v-14h6q7 0 7 9q0 1 -1.5 3t-5.5 2h-6zM425 385h-3v-14h-5v34h11q12 0 12 -10q0 -7 -3 -8.5t-7 -1.5l10 -14h-5zM428 366q13 0 17.5 7t4.5 13q0 24 -22 24q-23 0 -23 -24q0 -8 5.5 -14t17.5 -6zM428 413q13 0 19 -8t6 -19q0 -8 -6 -15.5t-19 -7.5q-12 0 -19 7.5
t-7 15.5q0 11 7 19t19 8zM201 316q16 -1 37.5 -4t43 -7t39.5 -9.5t27 -12.5q-20 40 -62 61.5t-86 21.5q-34 0 -65 -13t-51 -40q18 2 36 3t36 1h22.5t22.5 -1zM375 395v-142q-48 15 -109.5 25.5t-130.5 10.5q-48 0 -94 -6q6 22 19 42.5t33 36t46.5 24.5t58.5 9q31 0 56 -7
t43.5 -17t31.5 -22t19 -21q0 -1 0 6.5t-0.5 18.5t-0.5 23v19h28zM153 127q0 8 -5.5 12t-11.5 4q-7 0 -12 -4t-5 -12t5 -11.5t12 -3.5q6 0 11.5 3.5t5.5 11.5zM32 139q0 23 9 41t24 30t34 18t39 6t38.5 -5.5t33 -16.5t23 -28t8.5 -41v-116h106v202h28v-228h-189v26h29v119
q0 30 -22 45t-54 15q-30 0 -54 -16.5t-24 -46.5v-107l58 58q-5 2 -13 10t-8 23q0 18 11 28.5t29 10.5q17 0 27.5 -11.5t10.5 -27.5q0 -14 -5.5 -21.5t-9.5 -11.5q-2 -2 -17 -16.5t-33 -31.5q-11 -10 -22.5 -21t-24.5 -24h-32v138z" />
    <glyph glyph-name=".null" 
 />
    <glyph glyph-name="nonmarkingreturn" horiz-adv-x="283" 
 />
    <glyph glyph-name="space" unicode=" " horiz-adv-x="250" 
 />
    <glyph glyph-name="exclam" unicode="!" horiz-adv-x="195" 
d="M113 145q0 -11 -4.5 -16.5t-10.5 -5.5t-10.5 5.5t-4.5 16.5l-4 301q0 23 19 23t19 -23zM98 -7q-13 0 -19.5 8.5t-6.5 18.5t6.5 18.5t19.5 8.5t19 -8.5t6 -18.5t-6 -18.5t-19 -8.5z" />
    <glyph glyph-name="quotedbl" unicode="&#x22;" horiz-adv-x="221" 
d="M171 344q-1 -19 -13.5 -19t-13.5 19l-5 104q0 18 18 18q19 0 18 -18zM77 344q-1 -19 -13.5 -19t-13.5 19l-5 104q0 18 18 18q19 0 19 -18z" />
    <glyph glyph-name="numbersign" unicode="#" horiz-adv-x="354" 
d="M339 312q-1 -5 -6.5 -9.5t-16.5 -4.5h-50l-17 -124h54q11 0 13.5 -4t1.5 -7q-1 -5 -6 -10t-16 -5h-51l-17 -127q-2 -9 -7.5 -13t-11.5 -4q-14 2 -12 13l18 131h-100l-17 -127q-2 -10 -7.5 -13.5t-10.5 -3.5q-15 1 -13 13l18 131h-55q-11 0 -13 4t-1 7q1 5 6.5 10t16.5 5
h50l17 124h-55q-11 0 -13.5 3.5t-1.5 7.5q2 5 7 9.5t16 4.5h51l17 127q2 10 7.5 13.5t10.5 3.5q6 -1 10 -4.5t2 -9.5l-17 -130h100l17 127q4 18 18 16q13 0 12 -13l-17 -130h54q11 0 13.5 -4t1.5 -7zM136 298l-17 -124h100l17 124h-100z" />
    <glyph glyph-name="dollar" unicode="$" horiz-adv-x="318" 
d="M148 -4q-46 1 -72.5 13t-41.5 26q-6 6 -7 14t3 13.5t11.5 6.5t16.5 -6q14 -11 34 -22.5t56 -11.5v206l-13 6q-21 9 -40.5 18.5t-34 23t-23 31.5t-8.5 45q0 54 33.5 83t85.5 32v22q0 14 13 14q14 0 14 -14v-23q35 -2 55 -13t34 -24q7 -6 7.5 -14t-3.5 -13.5t-11 -7
t-16 6.5q-4 2 -7 5t-7 6l-8 6t-9 5q-8 4 -16 6.5t-19 4.5v-175l6 -2t7 -3q21 -9 40 -20t34 -26.5t23.5 -36.5t8.5 -49q0 -51 -30.5 -87.5t-88.5 -43.5v-22q0 -14 -14 -14q-13 0 -13 14v20zM177 224q-2 0 -2 1v-194q20 4 35 14t25 23t15 28.5t5 30.5q0 20 -6.5 35t-17.5 26.5
t-25 20t-29 15.5zM110 297q10 -7 19 -11.5t19 -8.5v164q-37 -2 -58 -24.5t-21 -54.5q0 -23 12 -38.5t29 -26.5z" />
    <glyph glyph-name="percent" unicode="%" horiz-adv-x="490" 
d="M124 267q-31 0 -51.5 15t-31 38t-10.5 49t10.5 49t31 38t51.5 15t52 -15t31.5 -38t10.5 -49t-10.5 -49t-31.5 -38t-52 -15zM172 8q-5 -11 -13 -15t-15 -2q-6 2 -9.5 7t1.5 17l187 449q4 11 12 14.5t14 1.5q5 -2 9 -7t-1 -18zM366 0q-31 0 -51.5 15t-31 38t-10.5 49
t10.5 49t31 38t51.5 15t52.5 -15t32 -38t10.5 -49t-10.5 -49t-31.5 -38t-53 -15zM124 287q30 0 45 25.5t15 56t-15 56t-45 25.5t-44.5 -25.5t-14.5 -56t15 -56t44 -25.5zM366 20q30 0 45 25.5t15 56t-15 56t-45 25.5t-44.5 -25.5t-14.5 -56t15 -56t44 -25.5z" />
    <glyph glyph-name="ampersand" unicode="&#x26;" horiz-adv-x="441" 
d="M399 0q-5 -4 -12 -3.5t-13 8.5l-60 74q-35 -40 -69.5 -59t-66 -22t-58 7t-45.5 28q-23 22 -33 55t-3 69t32.5 70t74.5 58q-26 31 -40.5 54t-14.5 50q0 21 8 37.5t21.5 27.5t30.5 16.5t36 5.5q37 0 66 -21.5t29 -63.5q0 -38 -24 -63t-63 -49q14 -18 27 -34.5t25 -31.5
q20 -26 39.5 -50.5t27.5 -32.5q14 17 22 28.5t14 22.5l9.5 19t8.5 15q5 8 9.5 8.5t8.5 -1.5q11 -8 6 -25q-5 -14 -12 -26t-18 -29t-28 -37l60 -74q11 -14 9.5 -21.5t-4.5 -9.5zM248 387q0 30 -19 45.5t-41 15.5t-40.5 -15t-18.5 -47q0 -19 13.5 -39.5t34.5 -44.5q12 7 25 16
t23 19.5t16.5 23t6.5 26.5zM164 263q-52 -30 -73.5 -67t-19.5 -70.5t23 -59t53 -33.5t70.5 7.5t76.5 62.5z" />
    <glyph glyph-name="quotesingle" unicode="'" horiz-adv-x="135" 
d="M81 352q-1 -20 -13.5 -20t-13.5 20l-5 99q0 11 5.5 16t12.5 5q19 0 19 -21z" />
    <glyph glyph-name="parenleft" unicode="(" horiz-adv-x="159" 
d="M118 -29q8 -20 5 -27t-6 -8q-4 -2 -12 1t-14 16q-7 15 -16.5 39t-18.5 56.5t-15 73t-6 88.5t6 88.5t15 73.5t18.5 57t16.5 38q6 13 14 16.5t12 1.5q3 -2 6 -9t-5 -26q-7 -15 -15 -39.5t-15 -56t-12 -68t-5 -76.5t4.5 -76.5t11.5 -67.5t15.5 -55.5t15.5 -39.5z" />
    <glyph glyph-name="parenright" unicode=")" horiz-adv-x="159" 
d="M121 210q0 -48 -6 -88.5t-15 -73t-18.5 -56.5t-16.5 -39q-6 -13 -14 -16t-12 -1q-3 1 -6 8t5 27q7 15 15.5 39.5t15.5 55.5t11.5 67.5t4.5 76.5t-5 76.5t-12 68t-15 56t-15 39.5q-8 19 -5 26t6 9q4 2 12 -1.5t14 -16.5q7 -14 16.5 -38t18.5 -57t15 -73.5t6 -88.5z" />
    <glyph glyph-name="asterisk" unicode="*" horiz-adv-x="258" 
d="M219 310q-4 -7 -11.5 -8.5t-12.5 2.5l-62 51l12 -79q2 -7 -1.5 -13.5t-14.5 -6.5t-14.5 6.5t-2.5 13.5l13 79l-62 -51q-5 -4 -12.5 -2.5t-11.5 8.5q-6 10 0.5 17t19.5 13t30 11t32 11l-74 28q-6 2 -9.5 9.5t0.5 14.5t12 8t13 -3l62 -50l-13 79q-1 7 2.5 13.5t14.5 6.5
t14.5 -6.5t1.5 -13.5l-12 -79l62 50q5 4 12.5 3t11.5 -8q5 -7 1.5 -14.5t-9.5 -9.5l-74 -28l74 -29q6 -2 9.5 -9t-1.5 -14z" />
    <glyph glyph-name="plus" unicode="+" horiz-adv-x="379" 
d="M206 164v-117q0 -9 -5 -13.5t-11.5 -4.5t-11.5 4.5t-5 13.5v117h-117q-9 0 -13 5t-4 11.5t4 11.5t13 5h117v117q0 9 5 13t11.5 4t11.5 -4t5 -13v-117h117q9 0 13.5 -5t4.5 -11.5t-4.5 -11.5t-13.5 -5h-117z" />
    <glyph glyph-name="comma" unicode="," horiz-adv-x="165" 
d="M72 -57q-8 -14 -15.5 -16t-10.5 0q-7 3 -6 12.5t7 25t16 35.5t21 44q5 10 13 12t15 -1t9.5 -10t-2.5 -18z" />
    <glyph glyph-name="hyphen" unicode="-" horiz-adv-x="294" 
d="M48 164q-9 0 -13 5t-4 11.5t4 11.5t13 5h197q9 0 13 -5t4 -11.5t-4 -11.5t-13 -5h-197z" />
    <glyph glyph-name="period" unicode="." horiz-adv-x="157" 
d="M106 23q0 -11 -8.5 -19.5t-19.5 -8.5t-19 8.5t-8 19.5t8 19t19 8t19.5 -8t8.5 -19z" />
    <glyph glyph-name="slash" unicode="/" horiz-adv-x="269" 
d="M58 8q-11 -21 -27 -16q-5 1 -8.5 6t1.5 17l187 450q5 10 12.5 13.5t13.5 1.5q5 -1 8 -6t-2 -17z" />
    <glyph glyph-name="zero" unicode="0" horiz-adv-x="354" 
d="M326 235q0 -64 -13 -109t-34 -74t-47.5 -42.5t-54.5 -13.5q-27 0 -54 13.5t-48 42.5t-34 74t-13 109t13 109.5t34 74.5t48 42.5t54 13.5q28 0 54.5 -13.5t47.5 -42.5t34 -74.5t13 -109.5zM286 235q0 110 -31.5 159t-77.5 49t-77 -49t-31 -159q0 -57 8 -96t22.5 -64
t34.5 -36t43 -11t43 11t34.5 36t23 64t8.5 96z" />
    <glyph glyph-name="one" unicode="1" horiz-adv-x="354" 
d="M212 17q0 -11 -6 -16t-12.5 -5t-12.5 5t-6 16v417h-72q-10 0 -15.5 6t-5.5 12.5t5 12.5t16 6h90q19 0 19 -18v-436z" />
    <glyph glyph-name="two" unicode="2" horiz-adv-x="354" 
d="M304 358q0 -25 -9.5 -54.5t-35.5 -62.5l-164 -209h204q7 0 10.5 -5t3.5 -11t-3.5 -11t-10.5 -5h-233q-12 0 -17 10.5t6 24.5l175 222q17 22 27.5 48t10.5 51q0 20 -8 36t-20.5 27.5t-28 17.5t-31.5 6q-30 0 -57 -16t-35 -51q0 -12 -5.5 -17.5t-12.5 -5.5t-12.5 5t-6.5 16
q3 19 12 37.5t25 33t38.5 23t52.5 8.5t53.5 -9.5t39.5 -26t24 -37.5t8 -45z" />
    <glyph glyph-name="three" unicode="3" horiz-adv-x="354" 
d="M305 129q0 -66 -38.5 -100t-98.5 -34q-29 0 -51 8t-38.5 20.5t-26 27t-12.5 28.5q-3 15 0 23.5t9 11t13 -1.5t11 -15q11 -29 35 -49.5t59 -20.5q43 0 71.5 27t28.5 70q0 26 -8 45.5t-21.5 32.5t-31 20t-35.5 8q-19 2 -20.5 16t16.5 19q38 9 62 35.5t24 61.5
q0 42 -26.5 61.5t-59.5 19.5q-38 0 -58.5 -20.5t-20.5 -47.5q0 -11 -6 -16.5t-13 -5.5t-12.5 5t-5.5 16q0 18 8 36t23 33t36.5 24t48.5 9t49.5 -8.5t39 -23t25.5 -34.5t9 -43q0 -37 -18 -67.5t-61 -49.5q51 -17 72.5 -49.5t21.5 -71.5z" />
    <glyph glyph-name="four" unicode="4" horiz-adv-x="354" 
d="M341 128q0 -6 -4.5 -10.5t-11.5 -4.5h-47v-95q0 -11 -6 -16.5t-12.5 -5.5t-12.5 5.5t-6 16.5v95h-204q-9 0 -14 10.5t3 23.5l195 307q9 14 19 19t18.5 3t14 -9.5t5.5 -17.5v-304h47q7 0 11.5 -5t4.5 -12zM241 420l-176 -275h176v275z" />
    <glyph glyph-name="five" unicode="5" horiz-adv-x="354" 
d="M313 151q0 -75 -42 -115t-114 -40q-42 0 -72.5 17t-44.5 37q-8 10 -7 17.5t6 12.5q11 11 22 -1q6 -7 15 -15.5t21 -15.5t27 -11.5t34 -4.5q54 0 85 34t31 82q0 35 -14.5 60.5t-39.5 39t-57 14.5t-68 -13q-22 -8 -33.5 -1.5t-9.5 26.5l24 172q2 10 9 17.5t21 7.5h183
q7 0 11 -5t4 -11.5t-4 -11.5t-11 -5h-177l-23 -158q52 20 93.5 16.5t70.5 -23.5t44.5 -52.5t15.5 -69.5z" />
    <glyph glyph-name="six" unicode="6" horiz-adv-x="354" 
d="M310 144q0 -32 -9.5 -59t-26.5 -47.5t-42 -32t-56 -11.5q-63 0 -99 43.5t-36 115.5q0 49 17 96t42.5 89t55.5 76t57 58q11 10 20 9.5t13 -4.5q2 -2 1.5 -11t-17.5 -26q-14 -14 -28 -28.5t-29 -33t-31.5 -44.5t-35.5 -62q18 8 30.5 13t22 7.5t17 3t15.5 0.5
q28 0 50.5 -11.5t37.5 -32t23 -48t8 -60.5zM272 146q0 52 -24 85.5t-73 33.5q-19 0 -40.5 -9t-36.5 -23q-9 -20 -12.5 -42t-3.5 -45q0 -22 5 -43t16.5 -37.5t29 -26.5t42.5 -10t43 10t30 26t18 37t6 44z" />
    <glyph glyph-name="seven" unicode="7" horiz-adv-x="354" 
d="M136 10q-5 -11 -13 -14t-14 -1t-9.5 7.5t1.5 16.5l179 417h-232q-9 0 -13.5 5.5t-4.5 12t4.5 12t12.5 5.5h241q22 0 27 -11t-3 -29z" />
    <glyph glyph-name="eight" unicode="8" horiz-adv-x="354" 
d="M311 128q0 -28 -9 -52.5t-26 -43t-42 -29t-57 -10.5t-57 10.5t-42 29t-26 43t-9 52.5q0 54 30.5 87t78.5 45q-51 17 -68 46t-17 61q0 48 29.5 78.5t80.5 30.5q54 0 82.5 -30t28.5 -79q0 -35 -17.5 -62t-63.5 -46q48 -12 76 -44.5t28 -86.5zM253 364q0 35 -20 59.5
t-56 24.5t-56 -24.5t-20 -59.5q0 -32 21 -56.5t55 -24.5q35 0 55.5 25t20.5 56zM273 128q0 20 -6 39.5t-18 35t-30 25t-41 9.5t-41 -9.5t-30 -25t-18 -35t-6 -39.5q0 -26 8 -46t21 -33t30.5 -19.5t35.5 -6.5t35.5 6.5t30.5 19.5t21 33t8 46z" />
    <glyph glyph-name="nine" unicode="9" horiz-adv-x="354" 
d="M311 319q0 -50 -16.5 -97t-42 -88.5t-55.5 -75.5t-57 -58q-12 -10 -21 -9.5t-12 4.5q-2 2 -2 11t17 26q15 13 29 27t29 33.5t31 45.5t35 62q-18 -8 -30 -13t-21 -7.5t-17 -3.5t-18 -1q-29 0 -51 12t-37 33t-22.5 48.5t-7.5 59.5q0 31 9.5 58.5t26.5 48t42 32t56 11.5
q63 0 99 -43.5t36 -115.5zM271 325q0 22 -5.5 43.5t-17 38t-29 26.5t-42.5 10q-24 0 -42.5 -10t-30.5 -26.5t-18 -38t-6 -43.5q0 -51 24 -84.5t73 -33.5q19 0 41 9t36 23q17 38 17 86z" />
    <glyph glyph-name="colon" unicode=":" horiz-adv-x="157" 
d="M106 245q0 -11 -8.5 -19.5t-19.5 -8.5t-19 8.5t-8 19.5t8 19t19 8t19.5 -8t8.5 -19zM106 23q0 -11 -8.5 -19.5t-19.5 -8.5t-19 8.5t-8 19.5t8 19t19 8t19.5 -8t8.5 -19z" />
    <glyph glyph-name="semicolon" unicode=";" horiz-adv-x="157" 
d="M106 252q0 -11 -8.5 -19.5t-19.5 -8.5t-19 8.5t-8 19.5t8 19t19 8t19.5 -8t8.5 -19zM59 -57q-8 -14 -15.5 -16.5t-11.5 -0.5q-3 2 -6 8.5t3 19.5l41 90q5 11 13.5 13t15.5 -1t10.5 -10.5t-3.5 -18.5z" />
    <glyph glyph-name="less" unicode="&#x3c;" horiz-adv-x="348" 
d="M79 180l215 -125q10 -6 12 -13t-1 -12.5t-10.5 -7t-17.5 4.5l-223 129q-12 7 -16 11.5t-4 11.5t4 12t16 12l223 129q11 7 19 6t11.5 -6.5t0.5 -13.5t-14 -15z" />
    <glyph glyph-name="equal" unicode="=" horiz-adv-x="397" 
d="M60 226q-10 0 -15 5.5t-5 12t5 12t15 5.5h277q10 0 15 -5.5t5 -12t-5 -12t-15 -5.5h-277zM60 97q-10 0 -15 5.5t-5 12t5 12t15 5.5h277q10 0 15 -5.5t5 -12t-5 -12t-15 -5.5h-277z" />
    <glyph glyph-name="greater" unicode="&#x3e;" horiz-adv-x="348" 
d="M310 179q0 -7 -4 -11.5t-16 -11.5l-223 -129q-10 -6 -17.5 -4.5t-10.5 7t-1 12.5t12 13l215 125l-215 123q-11 7 -14 15t0.5 13.5t11.5 6.5t19 -6l223 -129q12 -7 16 -12t4 -12z" />
    <glyph glyph-name="question" unicode="?" horiz-adv-x="294" 
d="M261 365q3 -103 -100 -134v-77q0 -11 -6 -16.5t-13.5 -5.5t-13.5 5.5t-6 16.5v69q0 18 12.5 30t26.5 15q21 5 34 17t19.5 26t9 28.5t2.5 25.5q-2 42 -25 60.5t-56 18.5q-27 0 -51.5 -18t-27.5 -53q-1 -16 -18 -13q-19 2 -17 21q1 20 11 37.5t25.5 30t35.5 20t41 7.5
q54 0 84.5 -30t32.5 -81zM169 22q0 -11 -8.5 -19.5t-19.5 -8.5t-19 8.5t-8 19.5t8 19t19 8t19.5 -8t8.5 -19z" />
    <glyph glyph-name="at" unicode="@" horiz-adv-x="529" 
d="M496 276q-2 -52 -16.5 -85.5t-35 -53.5t-43.5 -28t-41 -8q-19 0 -32 7.5t-20 26.5h-1q-20 -21 -42.5 -27.5t-42.5 -6.5t-37 8t-30 22t-20 32.5t-7 38.5q0 32 10 61t28 51t43.5 35t57.5 13q23 0 44 -9.5t38 -44.5l11 36q4 16 21 14q16 -2 12 -12q-14 -51 -27.5 -91
t-19.5 -68t-2 -41.5t24 -13.5q18 0 34.5 10.5t29.5 29t21 44t9 54.5q1 41 -14.5 73t-42 54t-61 33.5t-70.5 11.5q-45 0 -82.5 -16.5t-65.5 -44.5t-43.5 -66t-15.5 -80q0 -45 16.5 -82.5t45 -64.5t67.5 -42t84 -15q30 0 53 4t41 10t31.5 13t24.5 12q10 5 17 3t9.5 -7
t-0.5 -12t-12 -12q-25 -15 -65.5 -28t-103.5 -13q-54 0 -99 16.5t-77.5 46.5t-50.5 73.5t-18 97.5q0 51 18.5 94.5t51.5 75.5t78 50t98 18q51 0 92 -16.5t70 -43.5t44 -62.5t14 -74.5zM340 274q-8 25 -26 39.5t-45 14.5q-26 0 -45 -12.5t-31 -31t-18 -40t-6 -40.5
q0 -29 17.5 -50.5t43.5 -21.5q29 0 50 13t31 27z" />
    <glyph glyph-name="A" unicode="A" horiz-adv-x="405" 
d="M389 17q7 -18 -11 -20q-8 -2 -16.5 2.5t-11.5 13.5l-34 103h-227l-35 -103q-3 -11 -11 -15t-16 -2q-16 3 -12 19l157 438q4 12 12.5 18t17.5 6t17.5 -6t13.5 -18zM202 438l-102 -293h205z" />
    <glyph glyph-name="B" unicode="B" horiz-adv-x="355" 
d="M326 115q-3 -23 -13 -43.5t-28 -36.5t-44 -25.5t-62 -9.5h-106q-16 0 -21 7.5t-5 18.5v417q0 28 25 28h96q52 0 83 -28t38 -65t-12.5 -73.5t-68.5 -53.5q16 -3 38.5 -10.5t41.5 -22.5t30.5 -40t7.5 -63zM251 350q2 33 -18 60t-63 27h-84v-173h77q21 0 37 7.5t27 19.5
t17 27.5t7 31.5zM185 33q36 0 59 15t34 37t10 48t-13.5 48t-36 37t-57.5 15h-95v-200h99z" />
    <glyph glyph-name="C" unicode="C" horiz-adv-x="392" 
d="M371 62q2 -6 0 -15t-13 -16q-19 -12 -52 -23.5t-75 -11.5q-48 0 -86 18t-63.5 50t-39 75.5t-13.5 95.5q0 51 13 95t39 76t64 50.5t89 18.5q45 0 77 -15.5t48 -29.5q7 -6 7.5 -14t-3.5 -14t-11.5 -7.5t-16.5 6.5q-6 4 -15 12q-38 26 -86 26q-41 0 -72 -16.5t-52 -45
t-32 -65.5t-11 -77q0 -39 10.5 -76t31 -65.5t51 -45.5t71.5 -17q22 0 39 4t31 10t24.5 12t18.5 11q12 6 18.5 2.5t8.5 -8.5z" />
    <glyph glyph-name="D" unicode="D" horiz-adv-x="417" 
d="M390 238q0 -54 -13 -97.5t-37.5 -75t-60 -48.5t-80.5 -17h-122q-15 0 -20 7t-5 21v415q0 28 25 28h114q50 0 87.5 -18.5t62 -50.5t37 -74.5t12.5 -89.5zM351 238q0 39 -8.5 74.5t-28 63.5t-51.5 44.5t-79 16.5h-96v-404h99q46 0 77.5 18t50.5 47t27.5 65.5t8.5 74.5z" />
    <glyph glyph-name="E" unicode="E" horiz-adv-x="298" 
d="M77 0q-12 0 -19.5 8.5t-7.5 19.5v415q0 11 7.5 19.5t19.5 8.5h176q9 0 14 -5.5t5 -12.5t-5 -12.5t-14 -5.5h-165v-182h152q9 0 14 -5.5t5 -12t-5 -12t-14 -5.5h-152v-182h165q9 0 14 -5.5t5 -12.5t-5 -12.5t-14 -5.5h-176z" />
    <glyph glyph-name="F" unicode="F" horiz-adv-x="282" 
d="M89 435v-182h142q9 0 14 -5.5t5 -12.5t-5 -12.5t-14 -5.5h-142v-199q0 -11 -6 -16.5t-13.5 -5.5t-13.5 5.5t-6 16.5v425q0 14 5.5 21t21.5 7h174q9 0 14 -5.5t5 -12.5t-5 -12.5t-14 -5.5h-162z" />
    <glyph glyph-name="G" unicode="G" horiz-adv-x="427" 
d="M403 204q0 -38 -8.5 -75.5t-29.5 -67t-56 -47.5t-88 -18q-48 0 -84 20t-60 53t-36 76t-12 90q0 51 13 95t39 76t64 50.5t89 18.5q45 0 77 -15.5t48 -29.5q7 -6 7.5 -14.5t-3.5 -14.5t-11.5 -7.5t-16.5 6.5q-6 6 -15 12q-38 27 -86 27q-42 0 -73.5 -16.5t-52.5 -45
t-31 -65.5t-10 -77q0 -36 9.5 -72.5t29 -66.5t49 -49t69.5 -19q36 0 63 14t44 36t25.5 48.5t8.5 50.5v30h-101q-9 0 -13.5 5.5t-4.5 12.5t4.5 12.5t13.5 5.5h102q22 0 29.5 -9.5t7.5 -29.5z" />
    <glyph glyph-name="H" unicode="H" horiz-adv-x="414" 
d="M368 21q0 -13 -6 -19.5t-13.5 -6.5t-13.5 6.5t-6 19.5v203h-243v-203q0 -13 -6 -19.5t-13.5 -6.5t-13.5 6.5t-6 19.5v428q0 13 6 19t13.5 6t13.5 -6t6 -19v-192h243v192q0 13 6 19t13.5 6t13.5 -6t6 -19v-428z" />
    <glyph glyph-name="I" unicode="I" horiz-adv-x="135" 
d="M87 19q0 -11 -6 -17t-13.5 -6t-13.5 6t-6 17v433q0 11 6 16.5t13.5 5.5t13.5 -5.5t6 -16.5v-433z" />
    <glyph glyph-name="J" unicode="J" horiz-adv-x="245" 
d="M196 111q0 -57 -24.5 -86t-79.5 -29q-16 0 -38.5 6t-36.5 19q-11 9 -13 18.5t1 15.5t10.5 7t16.5 -7q14 -13 26.5 -18.5t38.5 -5.5q32 0 46.5 21t14.5 53v347q0 11 6 16.5t13 5.5t13 -5.5t6 -16.5v-341z" />
    <glyph glyph-name="K" unicode="K" horiz-adv-x="353" 
d="M333 -1q-5 -4 -14.5 -3.5t-18.5 10.5l-213 242v-229q0 -11 -6 -17t-13.5 -6t-13.5 6t-6 17v433q0 11 6 16.5t13.5 5.5t13.5 -5.5t6 -16.5v-202l195 209q13 13 23 14.5t14.5 -3.5t3 -14.5t-10.5 -18.5l-178 -187l195 -219q11 -12 10 -20t-6 -12z" />
    <glyph glyph-name="L" unicode="L" horiz-adv-x="257" 
d="M75 0q-27 0 -27 28v424q0 11 6 16.5t13.5 5.5t13.5 -5.5t6 -16.5v-415h147q9 0 14 -6t5 -12.5t-5 -12.5t-14 -6h-159z" />
    <glyph glyph-name="M" unicode="M" horiz-adv-x="489" 
d="M440 19q0 -13 -6 -17.5t-12 -4.5t-12 5t-6 18v428q-36 -109 -70.5 -217t-69.5 -217q-4 -11 -8 -14t-12 -3q-7 0 -11 3t-8 14q-35 109 -69.5 215.5t-70.5 215.5v-425q0 -12 -5.5 -18t-12.5 -6t-12.5 5.5t-5.5 17.5v426q0 11 7.5 19.5t24.5 9.5q14 0 22.5 -5.5t15.5 -27.5
l115 -355l10 -36l10 36l115 355q8 22 16.5 27.5t21.5 5.5q17 -1 25 -9.5t8 -19.5v-426z" />
    <glyph glyph-name="N" unicode="N" horiz-adv-x="434" 
d="M387 17q0 -7 -5 -13t-13 -8.5t-17 1t-17 15.5l-217 353l-35 60l2 -72v-334q0 -11 -6 -16.5t-12.5 -5.5t-12.5 5.5t-6 16.5v437q0 6 5 12t12.5 8.5t17 -1t17.5 -15.5l221 -358l31 -52l-2 61v343q0 11 6 16.5t12.5 5.5t12.5 -5.5t6 -16.5v-437z" />
    <glyph glyph-name="O" unicode="O" horiz-adv-x="454" 
d="M424 235q0 -47 -13 -90t-38 -76t-62 -53t-85 -20t-84.5 20t-61.5 53t-38 76t-13 90t13 90.5t38 76.5t61.5 53t84.5 20t85 -20t62 -53t38 -76.5t13 -90.5zM388 235q0 36 -9.5 73t-29 66.5t-50 48.5t-73.5 19q-42 0 -72.5 -19t-49.5 -49t-28 -66.5t-9 -72.5t9 -72.5
t28 -66.5t49.5 -49t72.5 -19q43 0 73.5 19t50 49t29 66.5t9.5 72.5z" />
    <glyph glyph-name="P" unicode="P" horiz-adv-x="343" 
d="M327 329q0 -27 -9 -52.5t-27 -45.5t-44.5 -32t-61.5 -12h-99v-169q0 -11 -6 -16.5t-13.5 -5.5t-13.5 5.5t-6 16.5v424q0 28 27 28h109q36 0 63 -12t45 -32t27 -45t9 -52zM290 329q0 20 -6.5 39.5t-19.5 34.5t-33 24.5t-47 9.5h-98v-216h101q25 0 44 9.5t32 24.5t20 34.5
t7 39.5z" />
    <glyph glyph-name="Q" unicode="Q" horiz-adv-x="453" 
d="M426 -1q-4 -5 -11.5 -6.5t-17.5 6.5l-51 41q-26 -22 -55 -33t-64 -11q-48 0 -85 20t-62 53t-38 76t-13 90t13 90.5t38 76.5t62 53t85 20t84.5 -20t61.5 -53t38 -76.5t13 -90.5q0 -45 -13 -88t-40 -82l47 -37q11 -8 11 -16t-3 -13zM389 235q0 36 -9.5 73t-29 66.5
t-50.5 48.5t-73 19q-43 0 -73 -19t-49 -49t-28 -66.5t-9 -72.5t9 -72.5t28 -66.5t49 -49t73 -19q24 0 46 8t47 25l-59 46q-11 8 -11.5 16t3.5 13t11 6.5t17 -6.5l63 -49q24 35 34.5 73t10.5 75z" />
    <glyph glyph-name="R" unicode="R" horiz-adv-x="343" 
d="M324 338q0 -25 -9 -49t-28 -42.5t-49 -30t-73 -11.5l146 -174q11 -12 9.5 -20t-6.5 -12t-13.5 -4t-17.5 11l-166 199h-31v-186q0 -11 -6 -17t-13.5 -6t-13.5 6t-6 17v424q0 28 27 28h109q36 0 62.5 -11.5t44 -30.5t26 -42.5t8.5 -48.5zM287 338q0 19 -6.5 36.5t-19 31.5
t-32 22.5t-45.5 8.5h-98v-198h101q24 0 42.5 8.5t31 22.5t19.5 32t7 36z" />
    <glyph glyph-name="S" unicode="S" horiz-adv-x="318" 
d="M294 129q0 -27 -9.5 -51t-27.5 -42.5t-44.5 -29t-60.5 -10.5q-48 0 -75 12.5t-43 26.5q-6 6 -7 14t3 13.5t11.5 6.5t16.5 -6q14 -11 34.5 -22.5t58.5 -11.5q26 0 45.5 9t32.5 23t19.5 31.5t6.5 34.5q0 20 -6.5 35t-17.5 26.5t-25 20t-29 15.5q-11 5 -21 8.5t-21 8.5
q-21 9 -40.5 18.5t-34 23t-23 31.5t-8.5 45q0 57 36.5 86t91.5 29q45 0 68.5 -12t38.5 -26q7 -6 7.5 -14t-3.5 -13.5t-11 -7t-16 6.5q-4 2 -7 5t-7 6l-8 6t-9 5q-10 5 -23 8.5t-30 3.5q-42 0 -65 -23t-23 -57q0 -23 12 -38.5t29 -26.5q18 -12 38 -20l40 -16q21 -9 40 -20
t34 -26.5t23.5 -36.5t8.5 -49z" />
    <glyph glyph-name="T" unicode="T" horiz-adv-x="311" 
d="M175 433v-415q0 -11 -6.5 -16.5t-14 -5.5t-13.5 5.5t-6 16.5v415h-105q-10 0 -15 6t-5 12.5t5 12.5t15 6h251q10 0 14.5 -6t4.5 -12.5t-4.5 -12.5t-14.5 -6h-106z" />
    <glyph glyph-name="U" unicode="U" horiz-adv-x="442" 
d="M394 184q0 -59 -16 -95.5t-41 -57t-56 -28t-60 -7.5t-60 7.5t-56.5 28t-41.5 57t-16 95.5v268q0 23 20 23q21 0 21 -23v-291q0 -63 36.5 -97.5t96.5 -34.5t96.5 34.5t36.5 97.5v291q0 23 20 23t20 -23v-268z" />
    <glyph glyph-name="V" unicode="V" horiz-adv-x="368" 
d="M356 460q0 -6 -0.5 -10.5t-2.5 -10.5l-144 -416q-5 -15 -10 -21t-15 -6q-11 0 -15.5 6t-9.5 21l-144 416q-2 6 -2.5 10.5t-0.5 10.5q0 5 4 10t12 5q12 0 17 -8q4 -5 6.5 -12t4.5 -13l128 -381q2 5 2.5 5t2.5 6.5t8 24.5t19.5 59t36.5 109.5t59 176.5q2 6 4.5 13t6.5 12
q5 8 16 8q8 0 12.5 -5t4.5 -10z" />
    <glyph glyph-name="W" unicode="W" horiz-adv-x="551" 
d="M526 457q0 -5 -0.5 -12t-2.5 -17l-71 -400q-3 -14 -9.5 -23t-23.5 -9q-14 0 -23 5.5t-15 27.5q-30 109 -49.5 179t-31 111t-16.5 58.5t-6.5 22.5t-1 3t0.5 0l-105 -374q-6 -22 -15.5 -27.5t-23.5 -5.5q-17 0 -23.5 9t-8.5 23l-72 400q-3 19 -3 29q0 18 17 18q20 0 23 -20
l72 -417q1 3 0.5 1t1.5 4t7 25.5t18 65.5t34.5 124t55.5 200q3 11 8 14t13 3t13 -3t8 -14q34 -123 56 -201t35 -123.5t18.5 -65.5t7.5 -26.5t2 -6t1 -3.5l69 423q5 20 23 20q17 0 17 -18z" />
    <glyph glyph-name="X" unicode="X" horiz-adv-x="393" 
d="M378 12q0 -6 -5 -11t-13 -5q-5 0 -9 2t-12 13l-143 211l-142 -211q-8 -11 -12.5 -13t-9.5 -2q-7 0 -12 5t-5 11q0 5 2.5 9.5t5.5 9.5l151 222l-127 187q-8 11 -8 19q0 16 17 16q5 0 10 -2t13 -13l117 -179l118 179q8 11 13 13t10 2q16 0 16 -16q0 -3 -1 -8t-6 -11
l-127 -187l151 -222q3 -5 5.5 -9.5t2.5 -9.5z" />
    <glyph glyph-name="Y" unicode="Y" horiz-adv-x="331" 
d="M321 460q0 -5 -8 -21l-128 -216v-204q0 -23 -20 -23t-20 23v204l-127 216q-5 8 -6.5 12.5t-1.5 8.5q0 6 4.5 10.5t12.5 4.5q5 0 10.5 -2.5t11.5 -12.5l116 -198l117 198q5 10 10.5 12.5t10.5 2.5q8 0 13 -4.5t5 -10.5z" />
    <glyph glyph-name="Z" unicode="Z" horiz-adv-x="368" 
d="M343 17q0 -17 -20 -17h-273q-16 0 -20.5 5t-4.5 13q0 6 1.5 11.5t8.5 15.5l251 392h-230q-20 0 -20 17t20 17h257q13 0 17 -5t4 -7q0 -8 -2.5 -14t-10.5 -19l-252 -393h254q20 0 20 -16z" />
    <glyph glyph-name="bracketleft" unicode="[" horiz-adv-x="159" 
d="M143 -39q0 -16 -16 -16h-46q-22 0 -22 23v484q0 24 22 24h46q7 0 11.5 -5t4.5 -12t-4.5 -12t-11.5 -5h-32v-464h32q16 0 16 -17z" />
    <glyph glyph-name="backslash" unicode="\" horiz-adv-x="269" 
d="M247 12q0 -16 -17 -16q-13 0 -19 15l-180 421q-5 12 -7 18.5t-2 8.5q0 16 17 16q8 0 12 -4t7 -11l180 -422q5 -11 7 -17.5t2 -8.5z" />
    <glyph glyph-name="bracketright" unicode="]" horiz-adv-x="159" 
d="M100 -32q0 -23 -22 -23h-46q-16 0 -16 16q0 17 16 17h32v464h-32q-7 0 -11.5 5t-4.5 12t4.5 12t11.5 5h46q22 0 22 -24v-484z" />
    <glyph glyph-name="asciicircum" unicode="^" horiz-adv-x="397" 
d="M353 213q0 -6 -5 -10.5t-13 -4.5t-12.5 5.5t-7.5 11.5l-3.5 7t-3.5 5l-110 204l-110 -204l-6 -12q-4 -6 -8 -11.5t-13 -5.5q-8 0 -12.5 4.5t-4.5 10.5t4 13t6 12l116 206q7 12 13 18t15 6q10 0 16 -6t13 -18l115 -206q3 -5 7 -12t4 -13z" />
    <glyph glyph-name="underscore" unicode="_" horiz-adv-x="331" 
d="M351 -75q0 -5 -4.5 -9.5t-15.5 -4.5h-332q-12 0 -16.5 4.5t-4.5 9.5q0 7 4.5 11.5t17.5 4.5h331q12 0 16 -4.5t4 -11.5z" />
    <glyph glyph-name="grave" unicode="`" horiz-adv-x="135" 
d="M132 429q0 -6 -4.5 -12.5t-11.5 -6.5q-3 0 -7 1t-12 5l-76 31q-13 5 -15.5 9.5t-2.5 6.5q0 6 4 12.5t12 6.5q3 0 7 -1t12 -5l76 -31q13 -5 15.5 -9.5t2.5 -6.5z" />
    <glyph glyph-name="a" unicode="a" horiz-adv-x="368" 
d="M319 17q0 -12 -6 -16.5t-11 -4.5q-6 0 -11.5 5t-5.5 16v41q-16 -32 -44 -47t-63 -15t-61.5 14.5t-44.5 39.5t-27 58t-9 71q0 36 9 68t27 56t44.5 38t61.5 14q30 0 61.5 -16t45.5 -43v39q0 11 5.5 15.5t11.5 4.5q5 0 11 -4.5t6 -15.5v-318zM287 177q0 29 -6.5 55.5t-20 47
t-33.5 32.5t-47 12q-30 0 -50.5 -14t-33 -35t-18 -46.5t-5.5 -49.5t5.5 -50.5t18 -49t33 -37t50.5 -14.5q27 0 47 12.5t33.5 33.5t20 47.5t6.5 55.5z" />
    <glyph glyph-name="b" unicode="b" horiz-adv-x="368" 
d="M336 178q0 -37 -9 -70t-26.5 -58t-44 -39.5t-60.5 -14.5q-29 0 -60.5 15t-47.5 43v-38q0 -11 -5.5 -15.5t-11.5 -4.5t-12 4.5t-6 15.5v470q0 11 6 15.5t12 4.5t11.5 -4.5t5.5 -15.5v-93v-95q21 29 45.5 43t62.5 14q34 0 60.5 -14.5t44 -38.5t26.5 -56t9 -68zM300 178
q0 24 -5.5 49.5t-18 47t-33 35t-50.5 13.5q-27 0 -47.5 -12t-34 -32.5t-20 -47t-6.5 -55.5t6.5 -55.5t20 -47.5t34 -33.5t47.5 -12.5q30 0 50.5 15t33 37.5t18 49t5.5 49.5z" />
    <glyph glyph-name="c" unicode="c" horiz-adv-x="294" 
d="M259 334q14 -12 7 -23.5t-23 -5.5q-10 3 -16.5 6.5t-14.5 5.5q-8 3 -16.5 4.5t-20.5 0.5q-29 -2 -49 -15.5t-33 -33.5t-19 -45.5t-6 -51.5t6 -51.5t19 -46t33 -34t47 -15.5q14 -1 24 1t18 5t14.5 6.5t11.5 5.5q15 7 23 -2.5t-5 -23.5q-8 -9 -24 -15.5t-42 -8.5
q-39 -2 -69 11t-50.5 37.5t-31 58t-10.5 72.5q0 34 8.5 65t25 55.5t42 40t58.5 18.5q11 1 24.5 0.5t26 -3t24 -7t18.5 -11.5z" />
    <glyph glyph-name="d" unicode="d" horiz-adv-x="368" 
d="M315 16q0 -11 -6 -15.5t-11 -4.5q-6 0 -12 4.5t-6 15.5v37q-18 -27 -47 -42t-61 -15q-35 0 -61 14.5t-43.5 39.5t-26.5 58t-9 70q0 36 9 68t26.5 56t43.5 38.5t61 14.5q39 0 63 -14t45 -43v95v93q0 11 6 15.5t12 4.5q5 0 11 -4.5t6 -15.5v-470zM283 176q0 29 -6.5 55.5
t-20 47t-34 32.5t-47.5 12q-30 0 -50.5 -13.5t-33 -35t-18 -47t-5.5 -49.5q0 -23 5.5 -49.5t18 -49t33 -37.5t50.5 -15q27 0 47.5 12.5t34 33.5t20 47.5t6.5 55.5z" />
    <glyph glyph-name="e" unicode="e" horiz-adv-x="344" 
d="M314 184q0 -5 -0.5 -7.5t-1.5 -4.5q-1 -3 -5 -5.5t-16 -2.5h-228q2 -60 31 -97.5t83 -37.5q43 0 67 16t36 30q5 6 11.5 7t11.5 -2t5.5 -9.5t-6.5 -16.5q-5 -8 -15.5 -18t-26 -18.5t-36 -14.5t-45.5 -6q-40 0 -68.5 15t-47 40t-27.5 58t-9 70q0 81 39 128t109 47
q34 0 59.5 -12t43 -33t26.5 -48.5t10 -58.5v-19zM277 190q1 23 -4.5 47t-18.5 43t-32.5 31t-46.5 12q-29 0 -49.5 -11.5t-34.5 -30t-21 -42.5t-8 -49h215z" />
    <glyph glyph-name="f" unicode="f" horiz-adv-x="171" 
d="M139 478q-18 0 -27 -11t-9 -26v-99h47q9 0 14 -5t5 -10.5t-5 -10.5t-14 -5h-47v-296q0 -11 -5.5 -16.5t-12 -5.5t-12 5.5t-5.5 16.5v296h-34q-9 0 -13 5t-4 10.5t4 10.5t13 5h34v98q0 32 19 50.5t48 18.5h17q10 0 16.5 -5t7 -10.5t-4.5 -10.5t-18 -5h-14z" />
    <glyph glyph-name="g" unicode="g" horiz-adv-x="368" 
d="M318 24q0 -79 -40.5 -123t-109.5 -44q-23 0 -45.5 6t-40.5 15t-29 19t-11 18q0 19 16 19q5 0 16 -6q5 -3 10.5 -6.5t12.5 -7.5q14 -8 32 -15.5t44 -7.5q30 0 50 11.5t32 29.5t17 40t5 42v43q-20 -34 -45 -47t-54 -13q-35 0 -62 14.5t-45.5 39.5t-28.5 57t-10 68t10 68.5
t28.5 57t45.5 39.5t62 15q22 0 49.5 -10.5t49.5 -44.5v34q0 21 23 21q5 0 11.5 -5t6.5 -16v-311zM283 176q0 24 -5 49.5t-17.5 47t-32.5 35.5t-50 14t-50.5 -14t-32.5 -35.5t-17.5 -47t-5.5 -49.5t5.5 -49.5t17.5 -46.5t32.5 -35t50.5 -14t50 14t32.5 35t17.5 46.5t5 49.5z
" />
    <glyph glyph-name="h" unicode="h" horiz-adv-x="356" 
d="M306 18q0 -21 -18 -21t-18 21v203q0 27 -8 46.5t-21 32t-29 18.5t-32 6q-17 0 -33.5 -7t-30 -20.5t-22 -33.5t-8.5 -47v-198q0 -21 -19 -21q-18 0 -18 21v470q0 21 18 21q19 0 19 -21v-186q13 19 27.5 29t29 15t28 6t24.5 1q16 0 35.5 -7t36.5 -22.5t28 -40.5t11 -61
v-204z" />
    <glyph glyph-name="i" unicode="i" horiz-adv-x="135" 
d="M93 439q0 -11 -7 -18.5t-18 -7.5t-18.5 7.5t-7.5 18.5t7.5 18.5t18.5 7.5t18 -7.5t7 -18.5zM87 20q0 -24 -19 -24t-19 24v312q0 23 19 23t19 -23v-312z" />
    <glyph glyph-name="j" unicode="j" horiz-adv-x="150" 
d="M112 439q0 -11 -7 -18.5t-18 -7.5t-18.5 7.5t-7.5 18.5t7.5 18.5t18.5 7.5t18 -7.5t7 -18.5zM104 -72q0 -32 -18.5 -50.5t-47.5 -18.5h-17q-11 0 -17.5 4.5t-7 10.5t5 10.5t17.5 4.5h15q17 0 25.5 11.5t8.5 25.5v408q0 11 5.5 16.5t12.5 5.5t12.5 -5.5t5.5 -16.5v-406z
" />
    <glyph glyph-name="k" unicode="k" horiz-adv-x="306" 
d="M292 10q0 -5 -4.5 -9t-10.5 -4q-8 0 -12.5 2t-13.5 13l-164 180v-174q0 -22 -20 -22q-19 0 -19 22v470q0 22 19 22q20 0 20 -22v-277l143 127q19 16 27 16q14 0 14 -16q0 -4 -1.5 -8.5t-9.5 -9.5l-141 -118l162 -168q7 -8 9 -12.5t2 -11.5z" />
    <glyph glyph-name="l" unicode="l" horiz-adv-x="135" 
d="M87 18q0 -22 -20 -22q-19 0 -19 22v471q0 22 19 22q20 0 20 -22v-471z" />
    <glyph glyph-name="m" unicode="m" horiz-adv-x="551" 
d="M503 19q0 -22 -19 -22t-19 22v208q0 45 -21 70.5t-63 25.5q-39 0 -62.5 -29t-23.5 -72v-203q0 -22 -19 -22t-19 22v208q0 45 -21.5 70.5t-63.5 25.5t-63.5 -29t-21.5 -72v-203q0 -22 -20 -22q-19 0 -19 22v315q0 22 19 22q20 0 20 -22v-29q10 14 20 23.5t21 15.5t25 8.5
t33 2.5q25 0 50.5 -14t43.5 -60q22 39 48 56.5t63 17.5q19 0 38.5 -6.5t36 -22t27 -40.5t10.5 -61v-206z" />
    <glyph glyph-name="n" unicode="n" horiz-adv-x="356" 
d="M307 18q0 -22 -19 -22t-19 22v204q0 55 -27 78.5t-62 23.5q-16 0 -32.5 -6.5t-30 -19.5t-22 -32.5t-8.5 -44.5v-203q0 -22 -20 -22q-19 0 -19 22v316q0 22 19 22q20 0 20 -22v-32q21 29 46 41.5t62 12.5q19 0 38.5 -6.5t36 -22t27 -40.5t10.5 -61v-208z" />
    <glyph glyph-name="o" unicode="o" horiz-adv-x="356" 
d="M323 176q0 -36 -10 -68t-28.5 -57t-45.5 -39.5t-61 -14.5q-35 0 -61.5 14.5t-45.5 39.5t-28.5 57t-9.5 68t9.5 68t28.5 57t45.5 39.5t61.5 14.5q34 0 61 -14.5t45.5 -39.5t28.5 -57t10 -68zM284 176q0 24 -5 49.5t-17.5 47.5t-33 36t-50.5 14t-50.5 -14t-33 -36
t-18 -47.5t-5.5 -49.5t5.5 -49.5t18 -47.5t33 -36t50.5 -14t50.5 14t33 36t17.5 47.5t5 49.5z" />
    <glyph glyph-name="p" unicode="p" horiz-adv-x="368" 
d="M334 177q0 -36 -9.5 -68.5t-27.5 -57t-44 -39t-59 -14.5q-38 0 -62.5 15t-42.5 37v-171q0 -22 -19 -22t-19 22v455q0 22 19 22t19 -22v-35q7 10 16 20.5t21 18.5t28.5 13t39.5 5q33 0 59 -14.5t44 -39.5t27.5 -57t9.5 -68zM296 177q0 24 -5.5 49.5t-18 47.5t-33 36
t-49.5 14t-49.5 -14t-33.5 -36t-18.5 -47.5t-5.5 -49.5t5.5 -50t18 -48t33 -36t50.5 -14t50.5 14t33 36t17.5 48t5 50z" />
    <glyph glyph-name="q" unicode="q" horiz-adv-x="368" 
d="M316 -121q0 -22 -19 -22t-19 22v171q-18 -22 -42.5 -37t-62.5 -15q-33 0 -59 14.5t-44 39t-27.5 57t-9.5 68.5t9.5 68t27.5 57t44 39.5t59 14.5q23 0 39.5 -5t28.5 -13t21 -18.5t16 -20.5v35q0 22 19 22t19 -22v-455zM284 177q0 24 -5.5 49.5t-18.5 47.5t-33 36t-49 14
q-30 0 -50 -14t-33 -36t-18.5 -47.5t-5.5 -49.5t5.5 -50t18 -48t33 -36t50.5 -14t50.5 14t33 36t17.5 48t5 50z" />
    <glyph glyph-name="r" unicode="r" horiz-adv-x="208" 
d="M200 334q0 -8 -6 -14t-23 -9q-14 -3 -29 -10.5t-27 -21t-20 -34.5t-8 -50v-177q0 -22 -20 -22q-19 0 -19 22v316q0 22 19 22q20 0 20 -22v-49q14 24 36.5 47t53.5 23q11 0 17 -6t6 -15z" />
    <glyph glyph-name="s" unicode="s" horiz-adv-x="294" 
d="M266 95q0 -51 -35 -75t-83 -24q-28 0 -50.5 6.5t-38.5 16t-24.5 20t-8.5 18.5q0 7 5 11.5t11 4.5q7 0 14 -5q5 -3 9 -7t9 -8q12 -10 29.5 -17.5t46.5 -7.5q34 0 56 18t22 43q0 20 -10.5 32.5t-24.5 20.5q-16 10 -33.5 16t-34.5 13q-37 13 -63.5 32.5t-26.5 57.5
q0 48 32.5 72t81.5 24q20 0 39.5 -5t34.5 -13.5t24.5 -18.5t9.5 -20q0 -5 -3.5 -10t-12.5 -5q-4 0 -12 5l-8 6t-9 7q-11 8 -25.5 15t-37.5 7q-13 0 -26 -3.5t-24 -10.5t-18 -18.5t-7 -26.5q0 -18 10.5 -30t24.5 -20q16 -9 33 -15t34 -13q19 -8 35.5 -16.5t28.5 -19t19 -24.5
t7 -33z" />
    <glyph glyph-name="t" unicode="t" horiz-adv-x="172" 
d="M158 327q0 -8 -4 -12t-15 -4h-34v-293q0 -22 -19 -22t-19 22v293h-34q-11 0 -15 4t-4 12t4 12t15 4h34v94q0 22 19 22t19 -22v-94h34q11 0 15 -4t4 -12z" />
    <glyph glyph-name="u" unicode="u" horiz-adv-x="356" 
d="M307 19q0 -22 -19 -22t-19 22v30q-22 -29 -46.5 -40.5t-61.5 -11.5q-19 0 -39 6.5t-36.5 21.5t-27 40t-10.5 62v206q0 22 19 22q20 0 20 -22v-202q0 -55 27 -78.5t62 -23.5q16 0 32.5 6.5t30 19.5t22 32t8.5 45v201q0 22 19 22t19 -22v-314z" />
    <glyph glyph-name="v" unicode="v" horiz-adv-x="282" 
d="M269 337q0 -4 -1 -8.5t-4 -13.5l-101 -299q-5 -12 -8.5 -16t-13.5 -4t-14 4t-8 16l-101 299l-4.5 13.5t-1.5 8.5q0 19 18 19q11 0 15.5 -4.5t7.5 -12.5q26 -82 42.5 -134t26.5 -82.5t14 -43.5t5 -16.5t0.5 -2t-0.5 0.5l89 278q3 8 7 12.5t15 4.5q7 0 12 -5t5 -14z" />
    <glyph glyph-name="w" unicode="w" horiz-adv-x="491" 
d="M480 338q0 -3 -1 -8.5t-3 -11.5l-97 -297q-5 -16 -11 -20.5t-14 -4.5t-13.5 4.5t-10.5 20.5q-24 80 -39.5 131.5t-25 81.5t-13.5 43.5t-5.5 17.5t-1 2.5t0.5 0.5l-86 -277q-5 -16 -10.5 -20.5t-13.5 -4.5t-14 4.5t-11 20.5l-96 297q-2 6 -3 11.5t-1 8.5q0 6 4 12t14 6
q6 0 12 -4t11 -21q24 -81 39.5 -132.5t24.5 -82t13.5 -44t5.5 -18t1 -3t1 -0.5l83 271q6 21 10.5 27.5t14.5 6.5q11 0 15 -6.5t11 -27.5q24 -79 39 -129.5t24 -80t13 -42.5t5 -17t1 -3.5t1 -2.5l84 284q5 17 11 21t13 4q10 0 14 -6t4 -12z" />
    <glyph glyph-name="x" unicode="x" horiz-adv-x="307" 
d="M293 14q0 -18 -17 -18q-11 0 -18 10l-105 154l-105 -154q-7 -10 -18 -10q-7 0 -12 5t-5 13q0 3 2 8.5t8 14.5l109 150l-96 132q-8 13 -8 19q0 8 4.5 13t10.5 5q11 0 18 -10l92 -131l93 131q7 10 18 10q6 0 10.5 -5t4.5 -13q0 -6 -8 -19l-96 -132l108 -150q7 -9 8.5 -14.5
t1.5 -8.5z" />
    <glyph glyph-name="y" unicode="y" horiz-adv-x="307" 
d="M121 -136q-5 -12 -12 -15t-14 -1q-6 2 -9.5 8.5t0.5 17.5l47 130l-116 326q-4 11 0 17.5t10 8.5t13.5 -1t11.5 -15l98 -289l101 294q3 8 10 10.5t14 0.5q6 -2 10 -8t0 -17z" />
    <glyph glyph-name="z" unicode="z" horiz-adv-x="294" 
d="M271 17q0 -8 -4 -12.5t-16 -4.5h-209q-14 0 -17 4.5t-3 7.5q0 5 2 10.5t9 15.5l181 280h-165q-20 0 -20 17t20 17h196q14 0 16.5 -4.5t2.5 -7.5q0 -5 -2 -11t-8 -15l-182 -280h179q12 0 16 -4.5t4 -12.5z" />
    <glyph glyph-name="braceleft" unicode="{" horiz-adv-x="159" 
d="M161 -44q0 -5 -3 -8.5t-15 -3.5h-25q-60 0 -60 65v84q0 42 -5.5 66.5t-31.5 32.5q-15 5 -19 8.5t-4 9.5q0 7 4 10.5t19 7.5q25 7 31 32t6 67v84q0 66 60 66h25q12 0 15 -3.5t3 -8.5t-3 -9t-15 -4h-9q-17 0 -27.5 -11t-10.5 -30v-109q0 -42 -12.5 -64.5t-32.5 -27.5
q20 -5 32.5 -26t12.5 -66v-109q0 -18 10.5 -29.5t27.5 -11.5h9q12 0 15 -3.5t3 -8.5z" />
    <glyph glyph-name="bar" unicode="|" horiz-adv-x="147" 
d="M91 15q0 -19 -18 -19q-17 0 -17 19v476q0 19 17 19q18 0 18 -19v-476z" />
    <glyph glyph-name="braceright" unicode="}" horiz-adv-x="159" 
d="M161 210q0 -6 -4 -9.5t-19 -8.5q-25 -8 -31 -32.5t-6 -66.5v-84q0 -65 -59 -65h-25q-13 0 -16 3.5t-3 8.5t3 8.5t16 3.5h9q17 0 27 11.5t10 29.5v109q0 45 13 66t33 26q-20 5 -33 27.5t-13 64.5v109q0 19 -10 30t-27 11h-9q-13 0 -16 4t-3 9t3 8.5t16 3.5h25q59 0 59 -66
v-84q0 -42 6 -67t31 -32q15 -4 19 -7.5t4 -10.5z" />
    <glyph glyph-name="asciitilde" unicode="~" horiz-adv-x="397" 
d="M344 196q0 -12 -6.5 -23.5t-17.5 -21t-24.5 -15.5t-27.5 -6q-20 0 -38 6.5t-35 14.5q-14 7 -31.5 15.5t-33.5 8.5q-14 0 -22.5 -8.5t-16.5 -18.5q-7 -9 -12 -14t-13 -4q-8 0 -11 3.5t-3 5.5q0 12 6.5 23.5t17.5 21t24.5 15.5t27.5 6q21 0 39 -6.5t35 -15.5
q14 -6 31.5 -14.5t32.5 -8.5q14 0 22.5 8t16.5 19q13 18 26 18q7 0 10 -3.5t3 -5.5z" />
    <glyph glyph-name="uni00A0" unicode="&#xa0;" horiz-adv-x="250" 
 />
    <glyph glyph-name="cent" unicode="&#xa2;" horiz-adv-x="316" 
d="M240 340q6 -6 6.5 -13t-3 -12t-9.5 -6.5t-12 3.5q-7 6 -16 11t-25 8v-191q13 2 21 5.5t18 10.5q6 4 12 2.5t9.5 -6t3.5 -10.5t-7 -12q-7 -5 -21.5 -12t-35.5 -10v-38q0 -7 -4 -10t-9.5 -3t-9.5 3.5t-4 10.5v38q-48 9 -71.5 44t-23.5 83q0 44 23 80.5t72 45.5v39
q0 7 4 10.5t9.5 3.5t9.5 -3t4 -10v-39q22 -2 36.5 -8.5t22.5 -14.5zM154 329q-32 -11 -46 -37.5t-14 -55.5q0 -30 14 -57t46 -38v188z" />
    <glyph glyph-name="sterling" unicode="&#xa3;" horiz-adv-x="380" 
d="M364 16q0 -5 -3.5 -10.5t-14.5 -5.5h-307q-8 0 -12 4t-4 9.5t4 10t12 5.5q21 2 31.5 13.5t15 28t5 34.5t0.5 33v87h-51q-12 0 -15.5 5t-3.5 10q0 7 3.5 12t14.5 5l52 -1v88q0 44 8.5 70.5t25 40.5t40.5 18.5t54 4.5q42 0 69.5 -5t43.5 -19t22.5 -39t6.5 -65
q0 -12 -5.5 -17t-12.5 -5t-12.5 4.5t-5.5 18.5q0 29 -4.5 47.5t-15 28.5t-29 13.5t-46.5 3.5q-32 0 -52 -3.5t-30.5 -14t-14 -30.5t-3.5 -52v-88l139 1q11 0 14.5 -5t3.5 -12q0 -5 -3.5 -10t-14.5 -5h-139v-85v-29q0 -20 -5.5 -40.5t-24.5 -36.5l246 -1q11 0 14.5 -5
t3.5 -12z" />
    <glyph glyph-name="yen" unicode="&#xa5;" horiz-adv-x="372" 
d="M340 460q0 -5 -8 -21l-83 -140h66q9 0 14 -5.5t5 -11.5t-5 -11.5t-14 -5.5h-86l-25 -42v-52h111q9 0 14 -5.5t5 -12t-5 -12t-14 -5.5h-111v-117q0 -23 -20 -23t-20 23v117h-109q-9 0 -14 5.5t-5 12t5 12t14 5.5h109v52l-25 42h-84q-9 0 -14 5.5t-5 11.5t5 11.5t14 5.5h64
l-82 140q-5 8 -6.5 12.5t-1.5 8.5q0 6 4.5 10.5t12.5 4.5q5 0 10.5 -2.5t11.5 -12.5l116 -198l117 198q5 10 10.5 12.5t10.5 2.5q8 0 13 -4.5t5 -10.5z" />
    <glyph glyph-name="copyright" unicode="&#xa9;" horiz-adv-x="626" 
d="M577 276q0 -54 -20.5 -101.5t-56.5 -83.5t-83.5 -56.5t-101.5 -20.5t-101.5 20.5t-83.5 56.5t-56.5 83.5t-20.5 101.5t20.5 101.5t56.5 83.5t83.5 56.5t101.5 20.5t101.5 -20.5t83.5 -56.5t56.5 -83.5t20.5 -101.5zM547 276q0 49 -18.5 91.5t-50 74.5t-73.5 50.5
t-89 18.5t-89 -18.5t-73.5 -50.5t-50 -74.5t-18.5 -91.5t18.5 -91.5t50 -74.5t73.5 -50.5t89 -18.5t89 18.5t73.5 50.5t50 74.5t18.5 91.5zM400 359q-2 -3 -7.5 -3.5t-9.5 1.5q-11 9 -26.5 16.5t-37.5 5.5t-37.5 -12t-26 -25t-15.5 -34t-5 -38q0 -20 5 -39t15 -35t25.5 -26
t37.5 -11q30 -2 53 12q7 6 11 7q5 3 10 2t7.5 -5t1.5 -9t-7 -10q-8 -6 -24.5 -14t-36.5 -10q-31 -2 -55 8.5t-40.5 29.5t-25 45t-8.5 55q0 25 7 48t21 41.5t33.5 31t45.5 15.5q34 2 54.5 -6.5t31.5 -19.5q5 -5 5.5 -11t-2.5 -10z" />
    <glyph glyph-name="guillemotleft" unicode="&#xab;" horiz-adv-x="269" 
d="M236 76q5 -6 3.5 -11t-4.5 -7q-13 -7 -23 6l-71 105q-4 9 0 16l71 106q4 7 9.5 8t10 -1t6.5 -7.5t-2 -11.5l-67 -102zM124 76q4 -6 3 -11t-5 -7q-13 -7 -23 6l-71 105q-5 8 0 16l71 106q5 7 11 8t10.5 -1t6 -7.5t-2.5 -11.5l-67 -102z" />
    <glyph glyph-name="registered" unicode="&#xae;" horiz-adv-x="626" 
d="M577 276q0 -54 -20.5 -101.5t-56.5 -83.5t-83.5 -56.5t-101.5 -20.5t-101.5 20.5t-83.5 56.5t-56.5 83.5t-20.5 101.5t20.5 101.5t56.5 83.5t83.5 56.5t101.5 20.5t101.5 -20.5t83.5 -56.5t56.5 -83.5t20.5 -101.5zM547 276q0 49 -18.5 91.5t-50 74.5t-73.5 50.5
t-89 18.5t-89 -18.5t-73.5 -50.5t-50 -74.5t-18.5 -91.5t18.5 -91.5t50 -74.5t73.5 -50.5t89 -18.5t89 18.5t73.5 50.5t50 74.5t18.5 91.5zM434 337q0 -38 -25 -56.5t-61 -19.5l72 -108q8 -12 5.5 -18t-9.5 -9q-15 -4 -24 11l-76 122h-62v-117q0 -16 -15 -16t-15 16v262
q0 4 3.5 7.5t9.5 3.5l94 1q49 1 76 -18t27 -61zM404 339q0 16 -7.5 26.5t-19 16t-24.5 7.5t-25 2l-74 -1v-106h72q14 0 28 1.5t25 7.5t18 17t7 30v-1z" />
    <glyph glyph-name="guillemotright" unicode="&#xbb;" horiz-adv-x="269" 
d="M237 185q5 -8 0 -16l-72 -105q-5 -7 -11 -8t-10.5 1.5t-6 7.5t3.5 11l67 101l-67 102q-5 6 -3.5 11t6 7.5t10.5 1.5t11 -8zM124 185q4 -7 0 -16l-71 -105q-5 -7 -11 -8t-10.5 1t-6 7.5t2.5 11.5l68 101l-68 102q-4 6 -2.5 11.5t6 7.5t10.5 1t11 -8z" />
    <glyph glyph-name="onequarter" unicode="&#xbc;" horiz-adv-x="519" 
d="M462 72q0 -5 -4 -9.5t-10 -4.5h-16v-44q0 -9 -5 -13t-10.5 -4t-10.5 4t-5 13v44h-107q-10 0 -13 9.5t2 17.5l108 162q5 7 12 10.5t13.5 3t11 -5.5t4.5 -14v-155h16q14 0 14 -14zM135 16q-7 -12 -16 -16.5t-15.5 -2.5t-8.5 9t5 19l275 428q7 12 16 17t16 4t9 -8t-5 -19z
M131 226q0 -9 -5 -13t-10.5 -4t-10.5 4t-5 13v214h-34q-9 0 -13.5 4.5t-4.5 10.5t4.5 10.5t13.5 4.5h50q15 0 15 -14v-230zM401 208l-82 -122h82v122z" />
    <glyph glyph-name="onehalf" unicode="&#xbd;" horiz-adv-x="519" 
d="M462 194q0 -14 -6 -30.5t-20 -33.5l-84 -103h102q7 0 10 -4t3 -9.5t-3 -9.5t-10 -4h-128q-11 0 -15 9.5t4 18.5l97 117q8 11 13.5 24t5.5 24q0 19 -13.5 30t-29.5 11t-28.5 -7.5t-16.5 -23.5q0 -8 -5 -12.5t-10.5 -4.5t-10.5 4t-5 13q3 23 22 41t54 18t54.5 -20.5
t19.5 -47.5zM115 16q-7 -12 -16 -16.5t-15.5 -2.5t-8.5 9t5 19l275 428q7 12 16 17t16 4t9 -8t-5 -19zM131 226q0 -9 -5 -13t-10.5 -4t-10.5 4t-5 13v214h-34q-9 0 -13.5 4.5t-4.5 10.5t4.5 10.5t13.5 4.5h50q15 0 15 -14v-230z" />
    <glyph glyph-name="threequarters" unicode="&#xbe;" horiz-adv-x="519" 
d="M160 16q-7 -12 -16 -16.5t-15.5 -2.5t-8.5 9t5 19l275 428q7 12 16 17t16 4t9 -8t-5 -19zM472 72q0 -5 -4 -9.5t-10 -4.5h-16v-44q0 -9 -5 -13t-10.5 -4t-10.5 4t-5 13v44h-107q-10 0 -13 9.5t2 17.5l108 162q5 7 12 10.5t13.5 3t11 -5.5t4.5 -14v-155h16q14 0 14 -14z
M210 287q0 -37 -23 -56.5t-58 -19.5q-33 0 -52 16t-23 32q-3 10 0 16.5t8 8.5t11 -1t9 -12q5 -14 17.5 -23.5t29.5 -9.5q21 0 35.5 13t14.5 33q0 25 -14.5 37t-33.5 14q-8 0 -12 4t-4 9t3 9.5t10 6.5q20 4 31 16.5t11 28.5q0 19 -12 28.5t-29 9.5q-20 0 -29 -10t-9 -21
q0 -8 -5 -12.5t-10.5 -4.5t-10.5 4t-5 13q0 21 18.5 40t50.5 19q31 0 52 -17.5t21 -45.5q0 -21 -10 -37t-27 -24q22 -6 33.5 -24t11.5 -40zM411 208l-82 -122h82v122z" />
    <glyph glyph-name="multiply" unicode="&#xd7;" horiz-adv-x="350" 
d="M294 299q11 -12 -3 -26l-93 -93l93 -93q14 -14 3 -26q-12 -12 -28 4l-91 92l-92 -92q-15 -15 -26 -3q-12 12 4 28l90 90l-90 91q-16 16 -4 28q12 11 27 -4l91 -92l91 92q17 15 28 4z" />
    <glyph glyph-name="divide" unicode="&#xf7;" horiz-adv-x="350" 
d="M199 282q0 -25 -25 -25t-25 25t25 25t25 -25zM306 180q0 -5 -5 -10.5t-17 -5.5h-215q-12 0 -17 5.5t-5 10.5q0 6 5.5 11.5t18.5 5.5h211q14 0 19 -5.5t5 -11.5zM199 82q0 -25 -25 -25t-25 25t25 25t25 -25z" />
    <glyph glyph-name="kokaithai" unicode="&#xe01;" horiz-adv-x="344" 
d="M301 18q0 -22 -18 -22q-19 0 -19 22v210q0 48 -26 73t-66 25q-42 0 -67 -25t-25 -73v-210q0 -22 -18 -22q-19 0 -19 22v209q0 39 11.5 64t30 39.5t41.5 20.5t46 6q24 0 47 -6t41.5 -21t29.5 -40t11 -63v-209z" />
    <glyph glyph-name="khokhaithai" unicode="&#xe02;" horiz-adv-x="316" 
d="M273 96q0 -48 -29.5 -74t-77.5 -26q-45 0 -75.5 25.5t-30.5 79.5q0 34 16.5 59t33.5 50q11 16 18.5 33t7.5 37q0 3 -1.5 10.5t-6 15t-13 13t-21.5 5.5q-11 0 -22 -6.5t-16 -23.5q-2 -8 -4.5 -13t-12.5 -7t-15 5t-3 16q1 8 5 18.5t12.5 20t22 16t33.5 6.5q38 0 57 -22.5
t19 -53.5q0 -32 -10 -52.5t-24 -39.5q-17 -23 -28 -43t-11 -49q0 -19 7 -32.5t17.5 -22t22.5 -12.5t22 -4q12 0 24.5 4t22.5 12.5t16.5 22t6.5 33.5l-1 239q0 12 5 16.5t14 4.5t14 -4.5t5 -16.5v-240z" />
    <glyph glyph-name="khokhuatthai" unicode="&#xe03;" horiz-adv-x="316" 
d="M273 96q0 -48 -29.5 -74t-77.5 -26q-45 0 -75.5 25.5t-30.5 79.5q0 18 5.5 33t13.5 29t18 27t19 27q5 8 9 19t4 30q-7 -3 -15.5 -6t-19.5 -3q-20 0 -34 7t-24 18t-14.5 24.5t-4.5 26.5q0 24 19 24q17 0 17 -25q0 -20 13 -31.5t28 -11.5q14 0 22 5.5t12.5 13t5.5 15
t1 10.5q0 24 19 24q8 0 12 -5t5.5 -12.5t1.5 -15v-13.5l-1 -23q-3 -39 -15 -64t-25.5 -44.5t-24 -38t-10.5 -45.5q0 -19 7 -32.5t17.5 -22t22.5 -12.5t22 -4q12 0 24.5 4t22.5 12.5t16.5 22t6.5 33.5l-1 239q0 12 5 16.5t14 4.5t14 -4.5t5 -16.5v-240z" />
    <glyph glyph-name="khokhwaithai" unicode="&#xe04;" horiz-adv-x="344" 
d="M301 18q0 -22 -19 -22q-18 0 -18 22v210q0 48 -25.5 73t-67.5 25q-40 0 -65.5 -25t-25.5 -73v-29h81q22 1 22 -19q0 -18 -20 -18l-83 1v-145q0 -22 -19 -22q-18 0 -18 22v209q0 39 11.5 64t29.5 39.5t41 20.5t46 6q24 0 47.5 -6t42 -21t29.5 -40t11 -63v-209z" />
    <glyph glyph-name="khokhonthai" unicode="&#xe05;" horiz-adv-x="377" 
d="M334 17q0 -21 -19 -21q-18 0 -18 22v301l-51 -51q-9 -9 -22 -5t-25.5 13t-23 19.5l-13.5 13.5q-5 5 -10 6t-11 1q-12 0 -25 -9.5t-23.5 -27t-17 -42t-6.5 -54.5q0 -22 3.5 -45t13 -44t25 -38t39.5 -26l1 123q0 26 14.5 36.5t32.5 10.5h19q22 0 22 -19q0 -18 -20 -18h-31
l-1 -148q0 -21 -17 -19q-35 1 -61 15.5t-43.5 39.5t-26.5 58t-9 71q0 46 12 80t30.5 56t40 32.5t41.5 10.5q9 0 9 -2q2 -1 3.5 -2.5l2.5 -2.5l40 -40q16 -17 33 0l37 35q7 7 14.5 9t13.5 2q12 0 19.5 -8t7.5 -19v-314z" />
    <glyph glyph-name="khorakhangthai" unicode="&#xe06;" horiz-adv-x="347" 
d="M129 266q-7 -3 -15.5 -6t-19.5 -3q-20 0 -34 7t-24 18t-14.5 24.5t-4.5 26.5q0 24 19 24q17 0 17 -25q0 -20 13 -31.5t28 -11.5q14 0 22 5.5t12.5 13t5.5 15t1 10.5q0 24 19 24q8 0 12 -5t5.5 -12.5t1.5 -15v-13.5l-1 -23q-3 -41 -16.5 -62.5t-29 -37.5t-27.5 -31
t-12 -42q0 -15 7.5 -30.5t20.5 -28.5t31.5 -21.5t40.5 -8.5q32 0 56 22t24 67v221q0 21 18 21q19 0 19 -21v-220q0 -35 -11 -58t-27.5 -36.5t-37 -19.5t-39.5 -6q-27 0 -45 6t-30 14t-18 15t-9 10v-23q0 -22 -19 -22q-18 0 -18 22v83q0 37 11 58t25.5 36t27 30t15.5 41z" />
    <glyph glyph-name="ngonguthai" unicode="&#xe07;" horiz-adv-x="246" 
d="M203 127q0 -38 -10.5 -63.5t-26.5 -40.5t-35.5 -21t-38.5 -6q-24 0 -48.5 10t-41.5 34q-7 10 -6 17t6 11t11 4t13 -11q10 -16 28.5 -24.5t35.5 -8.5q34 0 55 24t21 72v191h-34q-19 0 -20 19q0 19 22 19h50q19 0 19 -22v-204z" />
    <glyph glyph-name="chochanthai" unicode="&#xe08;" horiz-adv-x="300" 
d="M256 18q0 -22 -19 -22q-18 0 -18 21v145h-101q-20 0 -20 18q0 19 22 19h99v33q0 95 -98 95q-27 0 -47 -11.5t-33 -30.5q-11 -20 -25 -14q-8 2 -10.5 10.5t2.5 15.5q16 26 43.5 44.5t72.5 18.5q63 0 98 -30.5t34 -90.5v-221z" />
    <glyph glyph-name="chochingthai" unicode="&#xe09;" horiz-adv-x="364" 
d="M322 18q0 -22 -19 -22q-18 0 -18 22v23q-36 -45 -102 -45q-19 0 -39 5t-36 18t-26 35t-9 56l1 53h-29q-20 0 -20 18q0 19 22 19h45q19 0 19 -22l-1 -70q-1 -45 19.5 -63.5t55.5 -18.5q17 0 35 7t32.5 20.5t23.5 32.5t9 44v80q0 63 -27 88.5t-87 25.5q-20 0 -36.5 -6
t-30 -15t-22 -19t-11.5 -18q-7 -19 -25 -13q-15 7 -8 28q13 29 47 53.5t89 24.5q70 0 109 -33t39 -114v-194z" />
    <glyph glyph-name="chochangthai" unicode="&#xe0a;" horiz-adv-x="315" 
d="M273 338q0 -10 -1 -28.5t-12 -28.5q-5 -5 -6 -11.5t7 -13.5q9 -7 10.5 -24.5t1.5 -28.5v-108q0 -49 -29.5 -74.5t-77.5 -25.5q-45 0 -75.5 25.5t-30.5 79.5q0 28 12 50t26 42.5t26 41t12 46.5q0 3 -1.5 10t-6 14.5t-13 13t-21.5 5.5q-11 0 -22 -6.5t-16 -22.5
q-2 -8 -4.5 -13.5t-12.5 -7.5q-10 -1 -15 5.5t-3 15.5q1 8 5 19t12.5 20.5t22 16t33.5 6.5q38 0 57 -23t19 -53q0 -33 -11.5 -55t-25 -41t-25 -39.5t-11.5 -48.5q0 -19 7 -32.5t17.5 -21.5t22.5 -12t22 -4q12 0 24.5 3.5t22.5 11.5t16.5 21.5t6.5 33.5v109q0 13 -4.5 30.5
t-24.5 25.5q-4 2 -4 7.5t4 7.5q18 8 23.5 24.5t5.5 31.5l-1 39q0 12 5 16.5t14 4.5t14 -4.5t5 -16.5v-33z" />
    <glyph glyph-name="sosothai" unicode="&#xe0b;" horiz-adv-x="315" 
d="M273 96q0 -49 -29.5 -74.5t-77.5 -25.5q-45 0 -75.5 25.5t-30.5 79.5q0 28 11 48.5t23.5 39t23.5 36.5t11 41q-7 -3 -15.5 -6t-19.5 -3q-20 0 -34 7t-24 18t-14.5 24.5t-4.5 26.5q0 24 19 24q17 0 17 -25q0 -20 13 -31.5t28 -11.5q14 0 22 5.5t12.5 13t5.5 15t1 10.5
q0 24 19 24q8 0 12 -5t5.5 -12.5t1.5 -15v-13.5l-1 -23q-3 -39 -15 -64t-25.5 -44.5t-24 -38.5t-10.5 -45q0 -19 6.5 -32t16.5 -21.5t22.5 -12t23.5 -3.5q12 0 24.5 3.5t22.5 11.5t16.5 21t6.5 33v110q0 13 -4.5 30t-24.5 25q-4 2 -4 7.5t4 7.5q18 8 23.5 24.5t5.5 31.5
l-1 39q0 12 5 16.5t14 4.5t14 -4.5t5 -16.5v-33q0 -10 -1 -28.5t-12 -28.5q-5 -5 -6 -11.5t7 -13.5q9 -7 10.5 -24.5t1.5 -28.5v-107z" />
    <glyph glyph-name="chochoethai" unicode="&#xe0c;" horiz-adv-x="541" 
d="M498 121q0 -35 -9.5 -59t-24.5 -38.5t-34 -21t-37 -6.5q-23 0 -48.5 10t-44.5 36l-4 6v-30q0 -22 -19 -22q-18 0 -18 22v210q0 96 -88 95l-91 -2v-281l31 -1q23 0 23 -18q0 -9 -5.5 -15t-17.5 -6h-37q-18 0 -24.5 8t-6.5 25v298q0 22 19 22l110 2q24 0 46 -5.5t39.5 -20
t28 -39.5t10.5 -63v-91q0 -22 8 -41.5t21 -34.5t30.5 -23.5t35.5 -8.5q32 0 51 25t19 67v216q0 21 18 21q19 0 19 -21v-215z" />
    <glyph glyph-name="yoyingthai" unicode="&#xe0d;" horiz-adv-x="541" 
d="M498 122q0 -63 -32.5 -94t-86.5 -31q-24 0 -46 6.5t-38.5 21t-26 38.5t-9.5 59v106q0 48 -23 72t-65 23l-91 -1v-283h32q22 0 22 -19q0 -9 -5 -15t-17 -5h-38q-17 0 -24 7.5t-7 24.5v299q0 21 19 22l110 2q24 0 46.5 -6t40 -20.5t27.5 -39.5t10 -63v-105q0 -25 7 -42.5
t19 -29t27 -16.5t31 -5q35 0 58 26.5t23 69.5v211q0 22 18 22q19 0 19 -22v-213zM493 -46q5 -4 5.5 -12.5t-7.5 -16.5q-21 -23 -46.5 -34.5t-64.5 -11.5t-65 11.5t-46 34.5q-8 8 -8 16.5t5 12.5q14 11 28 -4q17 -17 34.5 -28t51.5 -11q33 0 51 11t35 28q15 15 27 4z" />
    <glyph glyph-name="dochadathai" unicode="&#xe0e;" horiz-adv-x="354" 
d="M311 -89q0 -17 -3.5 -30t-17.5 -20q-9 -5 -23 -5t-22 9l-52 56l-56 -58q-15 -16 -27 -4q-5 4 -5.5 12.5t8.5 17.5l67 70q12 12 23 1l71 -75v342q0 48 -26.5 72.5t-66.5 23.5l-92 -1v-102v-94.5t1 -94.5q0 -17 -7 -24.5t-24 -7.5h-32q-23 0 -23 20q0 19 23 19h26v292
q0 22 18 22l111 3q24 0 47 -6t41.5 -20.5t29.5 -39.5t11 -63v-315z" />
    <glyph glyph-name="topatakthai" unicode="&#xe0f;" horiz-adv-x="354" 
d="M197 -85l-51 -54q-7 -8 -14.5 -7.5t-12.5 6.5l-59 63q-14 13 0 27q12 11 23 0l49 -52l47 50q7 8 18 7.5t17 -6.5l60 -64v343q0 48 -25.5 72.5t-67.5 23.5l-91 -1v-290q0 -17 -6.5 -25t-23.5 -8h-33q-23 0 -23 20q0 17 23 19h26v292q0 22 19 22l110 2q24 1 47.5 -4.5
t41.5 -20.5t29 -40.5t11 -62.5v-316q0 -17 -3.5 -30t-17.5 -20q-9 -5 -23 -5t-22 9z" />
    <glyph glyph-name="thothanthai" unicode="&#xe10;" horiz-adv-x="299" 
d="M256 18q0 -22 -20 -22q-18 0 -18 22l1 144h-101q-20 0 -20 18q0 19 22 19h99v33q0 97 -98 97q-31 0 -50 -12.5t-30 -31.5q-11 -20 -25 -14q-8 2 -10.5 10.5t2.5 15.5q14 25 40 44t76 19q24 0 46 -5.5t49 -20.5v34q0 22 19 22q18 0 18 -22v-350zM255 -132q0 -14 -8 -22.5
t-19 -8.5q-9 0 -16 1t-14 9l-42 44l-48 -51q-4 -4 -9.5 -4t-9.5 5l-61 65q-12 14 0 26q14 12 23 1l49 -51l48 51q5 5 7 5t7 -5l56 -59v72q0 19 18 19q19 0 19 -20v-77z" />
    <glyph glyph-name="thonangmonthothai" unicode="&#xe11;" horiz-adv-x="374" 
d="M332 18q0 -22 -18 -22q-19 0 -19 22l1 260q0 24 -13 35t-32 11q-14 0 -30 -6.5t-32.5 -19.5t-31 -32t-24.5 -44q-12 -28 -20.5 -57t-8.5 -76v-71q0 -22 -18 -22q-19 0 -19 22l1 81q0 52 15.5 93t32.5 77q-19 -13 -36 -13q-20 0 -33.5 7t-21.5 18.5t-12 25t-4 26.5
q0 12 6 18t14 6q17 0 17 -25q0 -17 8 -30t26 -13q17 0 25 9.5t9 25.5v9q0 24 18 24q8 0 10.5 -2.5t3.5 -5.5q2 -8 2 -12q1 -3 1 -39q25 37 52 48.5t53 11.5q31 0 54.5 -14.5t23.5 -58.5v-267z" />
    <glyph glyph-name="thophuthaothai" unicode="&#xe12;" horiz-adv-x="574" 
d="M531 111q0 -30 -9 -52t-23 -36t-32 -20.5t-36 -6.5q-27 0 -53 11t-45 37l-4 6v-32q0 -22 -19 -22q-18 0 -18 22v295l-46 -48q-10 -11 -23 -6.5t-25.5 14.5t-22.5 21.5t-13 14.5q-5 5 -10 6t-11 1q-12 0 -25 -9.5t-23.5 -27t-17.5 -42t-7 -54.5q0 -27 5.5 -54t18 -49
t33 -36t51.5 -15q8 -1 13 0.5t7 2.5q11 2 15.5 -1t6.5 -11q4 -16 -19 -21l-6 -2q-3 -1 -17 -1q-36 0 -63.5 14.5t-46 39t-27.5 58t-9 72.5q0 46 12 80t30.5 56t40 32.5t41.5 10.5q9 0 9 -2q2 -1 3.5 -2.5l2.5 -2.5l40 -40q16 -17 33 0l37 35q7 7 14.5 9t13.5 2q11 0 16.5 -8
t5.5 -19v-196q0 -21 8 -40.5t21 -34t30.5 -23.5t35.5 -9q28 0 49 19.5t21 61.5v227q0 21 18 21q19 0 19 -21v-225z" />
    <glyph glyph-name="nonenthai" unicode="&#xe13;" horiz-adv-x="541" 
d="M498 18q0 -22 -18 -22q-19 0 -19 22v32l-3 -5q-19 -26 -45 -37.5t-49 -11.5q-18 0 -37 6.5t-34 21t-24.5 38.5t-9.5 59v107q0 48 -23 73t-65 23l-91 -2v-282l31 -1q23 0 23 -18q0 -9 -5.5 -15t-17.5 -6h-37q-17 0 -24 8t-7 25v298q0 21 19 22l110 2q24 1 46.5 -4.5
t39.5 -20.5t27.5 -40.5t10.5 -62.5v-107q0 -42 19 -67t51 -25q18 0 35.5 8.5t30.5 23t21 34t8 41.5v201q0 21 18 21q19 0 19 -21v-318z" />
    <glyph glyph-name="dodekthai" unicode="&#xe14;" horiz-adv-x="374" 
d="M331 18q0 -22 -19 -22q-18 0 -18 22v186q0 17 -3.5 38t-14.5 39.5t-32.5 31t-58.5 12.5q-57 0 -86 -39.5t-30 -102.5q0 -27 5.5 -54.5t18.5 -50t33 -36.5t50 -13q13 0 17 1q2 1 3.5 1t3.5 1q11 2 15.5 -1t6.5 -11t-3 -14t-15 -7q-2 -1 -4 -1t-4 -1q-4 -1 -9 -1h-11
q-36 0 -63.5 14.5t-46 39t-27.5 58t-9 72.5q1 90 45 134.5t111 44.5q43 0 71 -13t44.5 -33.5t23 -45t6.5 -47.5v-202z" />
    <glyph glyph-name="totaothai" unicode="&#xe15;" horiz-adv-x="377" 
d="M334 17q0 -21 -19 -21q-18 0 -18 22v303l-51 -49q-8 -8 -20.5 -7.5t-19.5 6.5l-44 39q-5 4 -8.5 7.5t-9.5 3.5q-13 0 -26.5 -11t-24 -30t-17.5 -44t-7 -53q0 -27 5 -54t17.5 -49.5t33 -36.5t51.5 -14q13 0 17 1q2 1 3.5 1t3.5 1q12 1 16.5 -1.5t6.5 -10.5t-3 -14t-15 -7
q-2 -1 -4.5 -1t-4.5 -1q-4 -1 -9 -1h-11q-38 0 -65.5 14.5t-45.5 39.5t-26.5 58.5t-8.5 71.5q0 46 12 80t30.5 56t40 32.5t41.5 10.5q5 0 8 -2t7 -5l40 -40q16 -17 33 0l37 36q7 7 14.5 8.5t13.5 1.5q12 0 19.5 -8t7.5 -19v-314z" />
    <glyph glyph-name="thothungthai" unicode="&#xe16;" horiz-adv-x="344" 
d="M301 18q0 -22 -19 -22q-18 0 -18 22v210q0 48 -26 73t-66 23l-92 -2v-283l32 -1q22 0 22 -18q0 -20 -22 -20h-38q-17 0 -24 8t-7 25v298q0 21 19 22l110 2q24 1 47 -4.5t41.5 -20.5t29.5 -40.5t11 -62.5v-209z" />
    <glyph glyph-name="thothahanthai" unicode="&#xe17;" horiz-adv-x="340" 
d="M297 18q0 -22 -18 -22q-19 0 -19 22v236q0 38 -17 54t-44 16q-23 0 -44.5 -11t-38 -29t-26.5 -40t-10 -44v-182q0 -22 -18 -22q-19 0 -19 22v318q0 21 19 21q18 0 18 -21v-55l5 10q12 20 27 33t31 20.5t30.5 10t25.5 2.5q19 0 37 -4t31.5 -16t21.5 -33.5t8 -55.5v-230z
" />
    <glyph glyph-name="thothongthai" unicode="&#xe18;" horiz-adv-x="316" 
d="M282 101q0 -51 -37.5 -78.5t-92.5 -27.5q-11 0 -25 1.5t-28 4.5t-27.5 9t-23.5 15q-5 3 -5 13v103q0 22 18 22q19 0 19 -22v-99q17 -9 38.5 -12.5t32.5 -3.5q17 0 34 4.5t30.5 13.5t22 22.5t8.5 31.5q0 22 -7 37t-20 25t-30.5 16t-39.5 11q-23 6 -43 12.5t-35 16.5
t-24 25.5t-9 38.5q1 39 37.5 59t85.5 20q25 0 56.5 -10t47.5 -33q15 -22 2 -29q-5 -5 -12 -3t-14 13q-14 17 -36.5 24t-43.5 7q-33 0 -59 -11.5t-28 -37.5q-1 -14 5 -23t15.5 -15.5t21 -10.5t22.5 -7l52 -14t46.5 -19t33 -33t12.5 -56z" />
    <glyph glyph-name="nonuthai" unicode="&#xe19;" horiz-adv-x="340" 
d="M297 18q0 -22 -19 -22q-18 0 -18 22v30l-3 -4q-26 -32 -53 -40t-51 -8q-19 0 -38.5 5t-35.5 18t-26 35t-10 57v225q0 21 18 21q19 0 19 -21v-227q0 -45 21.5 -63.5t53.5 -18.5q18 0 36.5 7.5t33.5 21.5t25 35t10 48v197q0 21 18 21q19 0 19 -21v-318z" />
    <glyph glyph-name="bobaimaithai" unicode="&#xe1a;" horiz-adv-x="344" 
d="M301 127q0 -38 -11 -63.5t-29.5 -40.5t-42 -21t-47.5 -6q-23 0 -46 6t-41 20.5t-29.5 40t-11.5 64.5v209q0 21 18 21q19 0 19 -21v-210q0 -48 25.5 -73.5t65.5 -25.5q42 0 67.5 25.5t25.5 73.5v210q0 21 18 21q19 0 19 -21v-209z" />
    <glyph glyph-name="poplathai" unicode="&#xe1b;" horiz-adv-x="344" 
d="M301 127q0 -38 -11.5 -63t-29.5 -40t-41.5 -21t-47.5 -6q-23 0 -46 6t-41 20.5t-29.5 39.5t-11.5 64l-1 209q0 22 19 22t19 -22l-1 -209q0 -48 25 -73.5t67 -25.5q40 0 66 25.5t26 73.5v348q0 22 19 22q18 0 19 -22v-348z" />
    <glyph glyph-name="phophungthai" unicode="&#xe1c;" horiz-adv-x="382" 
d="M339 50q0 -22 -8.5 -37.5t-31.5 -15.5q-5 0 -14 3.5t-20 14.5l-44 46q-16 18 -33 1l-52 -58q-6 -7 -16 -7q-17 0 -33 14.5t-29 40t-20.5 60t-7.5 73.5q0 23 7.5 54.5t23 59.5t39 45.5t56.5 13.5q8 -1 13.5 -7t3.5 -14q-2 -9 -7 -12.5t-19 -2.5l-3 -1q-18 -3 -32.5 -17
t-24 -34.5t-14.5 -43.5t-5 -44q0 -45 10.5 -75t19.5 -45q11 -20 19.5 -21.5t23.5 20.5l33 37q13 15 30.5 14.5t31.5 -15.5l57 -59q4 -5 6.5 -5.5t2.5 7.5v297q0 21 18 21q19 0 19 -21v-287z" />
    <glyph glyph-name="fofathai" unicode="&#xe1d;" horiz-adv-x="382" 
d="M339 50q0 -22 -8.5 -37.5t-31.5 -15.5q-5 0 -14 3.5t-20 14.5l-44 46q-16 18 -33 1l-52 -58q-6 -7 -16 -7q-17 0 -33 14.5t-29 40t-20.5 60t-7.5 73.5q0 23 7.5 54.5t23 59.5t39 45.5t56.5 13.5q8 -1 13.5 -7t3.5 -14q-2 -9 -7 -12.5t-19 -2.5l-3 -1q-18 -3 -32.5 -17
t-24 -34.5t-14.5 -43.5t-5 -44q0 -45 10.5 -75t19.5 -45q11 -20 19.5 -21.5t23.5 20.5l33 37q13 15 30.5 14.5t31.5 -15.5l57 -59q4 -5 6.5 -5.5t2.5 7.5v437q0 21 18 21q19 0 19 -21v-427z" />
    <glyph glyph-name="phophanthai" unicode="&#xe1e;" horiz-adv-x="401" 
d="M358 89q0 -19 -7 -36t-19 -29.5t-28 -20t-34 -7.5q-19 0 -37.5 11t-31.5 37q-14 -26 -32.5 -37t-36.5 -11t-34 7.5t-28 20t-19 29.5t-7 36v248q0 21 19 21q18 0 18 -21v-251q0 -23 15 -38t36 -15t36 15.5t15 38.5l-1 250q0 21 19 21t19 -21l-1 -251q0 -23 15 -38t36 -15
t36 15t15 38v251q0 21 18 21q19 0 19 -21v-248z" />
    <glyph glyph-name="fofanthai" unicode="&#xe1f;" horiz-adv-x="401" 
d="M358 89q0 -19 -7 -36t-19 -29.5t-28 -20t-34 -7.5q-19 0 -37.5 11t-31.5 37q-14 -26 -32.5 -37t-36.5 -11t-34 7.5t-28 20t-19 29.5t-7 36v248q0 21 19 21q18 0 18 -21v-251q0 -23 15 -38t36 -15t36 15.5t15 38.5l-1 250q0 21 19 21t19 -21l-1 -251q0 -23 15 -38t36 -15
t36 15t15 38v390q0 22 18 22q19 0 19 -22v-387z" />
    <glyph glyph-name="phosamphaothai" unicode="&#xe20;" horiz-adv-x="354" 
d="M311 18q0 -22 -19 -22q-18 0 -18 22v210q0 48 -24 72.5t-69 23.5l-91 -2v-289q0 -17 -6.5 -25t-23.5 -8h-33q-23 0 -23 20q0 18 23 18l26 1v292q0 21 19 22l110 2q24 1 47 -4.5t41.5 -20.5t29.5 -40.5t11 -62.5v-209z" />
    <glyph glyph-name="momathai" unicode="&#xe21;" horiz-adv-x="347" 
d="M304 116q0 -35 -11 -58t-27.5 -36.5t-37 -19.5t-39.5 -6q-25 0 -50.5 8t-49.5 37l-2 3v-26q0 -22 -19 -22q-18 0 -18 22v318q0 21 18 21q19 0 19 -21v-203q0 -27 9 -47t23.5 -33.5t32 -20t35.5 -6.5q32 0 56 22t24 67v221q0 21 18 21q19 0 19 -21v-220z" />
    <glyph glyph-name="yoyakthai" unicode="&#xe22;" horiz-adv-x="334" 
d="M291 127q0 -38 -11 -63.5t-29.5 -40.5t-42 -21t-47.5 -6q-23 0 -45.5 6.5t-41 20t-30 35t-11.5 51.5q0 26 15 49t50 35q-36 8 -49 29t-13 46q0 39 23.5 63.5t59.5 24.5h21q21 0 21 -20t-21 -20h-10q-5 0 -7 1q-20 0 -35 -13t-15 -36t15 -38.5t35 -14.5q12 0 24.5 -0.5
t12.5 -18.5q0 -12 -7.5 -15t-18.5 -3q-23 0 -43.5 -19.5t-20.5 -50.5q0 -38 27.5 -59.5t63.5 -21.5q42 0 67.5 25t25.5 73v211q0 21 18 21q19 0 19 -21v-209z" />
    <glyph glyph-name="roruathai" unicode="&#xe23;" horiz-adv-x="290" 
d="M262 90q0 -23 -9.5 -41t-25.5 -30t-37 -18t-45 -6q-29 0 -60.5 10t-47.5 33q-8 11 -6.5 18t6.5 11t11 3t13 -12q14 -15 38.5 -23t43.5 -8q35 0 58.5 17t23.5 44q0 16 -6 28t-15.5 20t-21.5 13.5t-24 9.5q-23 7 -45.5 14t-40 18t-28.5 29.5t-11 49.5q0 24 10 41t26 27.5
t36 15.5t41 5q29 0 56 -10t43 -34q8 -10 6.5 -17t-6.5 -11t-11.5 -2.5t-13.5 12.5q-14 16 -31 23t-43 7q-13 0 -26.5 -3t-24.5 -10t-18 -18t-7 -27t6 -27t16 -18.5t22 -12.5t24 -9q21 -7 43 -13.5t40 -18t29.5 -30.5t11.5 -50z" />
    <glyph glyph-name="ruthai" unicode="&#xe24;" horiz-adv-x="344" 
d="M301 -112q0 -22 -19 -22q-18 0 -18 22v340q0 48 -25 72.5t-67 23.5l-92 -2v-283l32 -1q22 0 22 -17q0 -9 -5.5 -15t-16.5 -6h-38q-17 0 -24 8t-7 25v298q0 21 19 22l110 2q24 1 47 -5t41.5 -21t29.5 -40t11 -62v-339z" />
    <glyph glyph-name="lolingthai" unicode="&#xe25;" horiz-adv-x="348" 
d="M305 18q0 -22 -19 -22q-18 0 -18 22v167q-15 -14 -30.5 -16.5t-29.5 -4.5t-29.5 -1.5t-31.5 0.5q-38 0 -59 -17.5t-21 -49.5q0 -39 27.5 -56.5t76.5 -8.5q20 5 23 -11q2 -7 -2 -13t-15 -8q-38 -8 -65.5 -2t-45.5 20t-27 35t-9 43q0 19 6.5 38t19.5 33t33 23t47 9h55
q12 0 26 1.5t25 6t18.5 14t7.5 25.5q0 10 -5 24.5t-18 27.5t-34 22t-52 9q-33 0 -54 -13t-36 -28q-16 -16 -28 -4q-5 5 -5 13.5t8 17.5q17 20 47 33.5t68 13.5q43 0 71.5 -11.5t45 -30.5t23 -43.5t6.5 -50.5v-207z" />
    <glyph glyph-name="luthai" unicode="&#xe26;" horiz-adv-x="354" 
d="M311 -112q0 -22 -19 -22q-18 0 -18 22v340q0 48 -26 72.5t-66 23.5l-92 -2v-289q0 -17 -6.5 -25t-23.5 -8h-33q-23 0 -23 20q0 18 23 18l26 1v183v109q0 21 19 22l110 2q24 1 47 -4.5t41.5 -20.5t29.5 -40.5t11 -62.5v-339z" />
    <glyph glyph-name="wowaenthai" unicode="&#xe27;" horiz-adv-x="292" 
d="M259 177q0 -39 -10.5 -73t-31 -58.5t-50 -37.5t-68.5 -11q-26 2 -42 8.5t-24 15.5q-13 14 -5.5 23.5t22.5 2.5q6 -2 12 -5.5t14 -6.5t18.5 -5t23.5 -1q28 2 48 15.5t33 34.5t19 46.5t6 51.5t-6.5 51.5t-19.5 46t-33.5 34t-48.5 15.5q-19 1 -37 -5q-7 -2 -14 -5.5
t-16 -6.5q-17 -6 -23.5 5.5t6.5 23.5q15 14 43 18.5t51 2.5q33 -3 58 -19t41.5 -40.5t25 -55.5t8.5 -65z" />
    <glyph glyph-name="sosalathai" unicode="&#xe28;" horiz-adv-x="344" 
d="M301 221v-205q0 -22 -19 -22q-18 0 -18 22v206q0 21 -7.5 40.5t-20 33.5t-30 22.5t-37.5 8.5q-42 0 -65.5 -26.5t-23.5 -74.5v-28l81 1q22 0 22 -19q0 -18 -20 -18h-83v-146q0 -22 -19 -22q-18 0 -18 22v209q0 39 11 64.5t29 40t40.5 20.5t45.5 6q9 0 20.5 -1t24.5 -5.5
t25.5 -13.5t24.5 -26v56q0 22 19 22q18 0 18 -22v-145z" />
    <glyph glyph-name="sorusithai" unicode="&#xe29;" horiz-adv-x="344" 
d="M343 184q0 -8 -4 -12t-17 -5l-22 -2l1 -39q0 -38 -11 -63t-29.5 -40t-41.5 -21t-47 -6t-47 6t-41.5 21t-29.5 40.5t-11 63.5v209q0 21 19 21q18 0 18 -21v-210q0 -48 25.5 -73.5t67.5 -25.5q40 0 65.5 25t25.5 73v39l-35 -1q-31 -2 -47 10.5t-22 39.5q-2 10 3.5 15.5
t14.5 4.5q10 0 15 -11q4 -11 9.5 -18.5t21.5 -6.5l40 1v138q0 21 19 21q18 0 18 -21q-1 -21 -1 -45.5v-44.5v-47l22 2q21 1 21 -17z" />
    <glyph glyph-name="sosuathai" unicode="&#xe2a;" horiz-adv-x="348" 
d="M305 224v-207q0 -22 -19 -22q-18 0 -18 22v167q-15 -14 -30.5 -16t-29.5 -4t-29.5 -1.5t-31.5 0.5q-38 0 -59 -17.5t-21 -49.5q0 -38 27.5 -56t76.5 -9q20 5 23 -11q2 -7 -2 -13t-15 -8q-38 -8 -65.5 -2t-45.5 20t-27 35t-9 43q0 19 6.5 38t19.5 33t33 23t47 9h55
q12 0 26 1t25 5.5t18.5 13.5t7.5 26q0 10 -5 24.5t-18 27.5t-34 22t-52 9q-33 0 -54 -12.5t-36 -27.5q-16 -17 -28 -5q-5 5 -5 13.5t8 17.5q17 20 47 33.5t68 13.5q32 0 57.5 -8t52.5 -28v44q0 12 4.5 16.5t13.5 4.5q18 0 18 -22v-143z" />
    <glyph glyph-name="hohipthai" unicode="&#xe2b;" horiz-adv-x="344" 
d="M301 18q0 -22 -19 -22q-18 0 -18 22v130q0 40 -18.5 68t-54.5 33l-110 -78v-60q0 -25 -0.5 -50.5t0.5 -42.5q0 -22 -19 -22t-19 22v318q0 21 19 21t18 -21v-121l193 137q18 12 27 -1q11 -16 -7 -29l-65 -46q36 -18 54.5 -48t18.5 -81v-129z" />
    <glyph glyph-name="lochulathai" unicode="&#xe2c;" horiz-adv-x="401" 
d="M358 90q0 -19 -7 -36t-19 -29.5t-28 -20t-34 -7.5q-19 0 -37.5 9t-31.5 35q-14 -26 -32.5 -35t-36.5 -9q-37 0 -62.5 27t-25.5 66v247q0 22 19 22q18 0 18 -22v-250q0 -23 15 -38t36 -15t36 15.5t15 37.5l-1 113q0 21 19 21t19 -21l-1 -113q0 -23 15 -38t36 -15t36 15
t15 38v146q0 32 -14.5 47t-46.5 21q-6 1 -11.5 6.5t-7.5 12.5t1 15.5t14 15.5l74 53q18 12 27 -2q12 -15 -7 -28l-67 -47q42 -11 58.5 -32.5t16.5 -63.5v-141z" />
    <glyph glyph-name="oangthai" unicode="&#xe2d;" horiz-adv-x="352" 
d="M322 178q0 -48 -12 -82.5t-32.5 -56.5t-47 -32.5t-56.5 -10.5q-32 0 -60 10.5t-48 32t-29.5 54t-5.5 76.5q1 17 8 24t17 7l86 -1q22 0 22 -19q0 -18 -20 -18h-73q-7 -60 22.5 -96t80.5 -36q48 0 78.5 36.5t30.5 111.5q0 77 -34 112.5t-85 35.5q-35 0 -58.5 -14t-39.5 -32
q-16 -16 -28 -4q-5 5 -5 13.5t8 17.5q20 23 51.5 38.5t70.5 15.5q30 0 59 -9t51 -30t35.5 -56.5t13.5 -87.5z" />
    <glyph glyph-name="honokhukthai" unicode="&#xe2e;" horiz-adv-x="364" 
d="M321 177q0 -48 -12 -82.5t-32 -56.5t-46.5 -32t-56.5 -10q-32 0 -60 10.5t-48 32t-29.5 54t-5.5 76.5q1 17 8 24t17 7l86 -1q22 0 22 -19q0 -18 -20 -18h-73q-7 -60 22.5 -96t80.5 -36q48 0 78.5 36.5t30.5 111.5q0 78 -34 113t-85 35q-35 0 -58.5 -14.5t-39.5 -32.5
q-16 -16 -28 -4q-5 5 -5 13.5t8 17.5q20 23 51.5 38.5t70.5 15.5q33 0 63 -11t59 -46v64q0 13 5 17.5t13 4.5q18 0 18 -22v-190z" />
    <glyph glyph-name="paiyannoithai" unicode="&#xe2f;" horiz-adv-x="345" 
d="M304 13q0 -22 -19 -22q-18 0 -18 22v311q-15 -38 -30.5 -60.5t-31.5 -35.5t-33 -17t-34 -4q-29 0 -52 12.5t-37.5 32t-18.5 44.5t6 51q9 23 27 16q16 -7 9 -29q-6 -16 -3.5 -32.5t11.5 -29.5t24 -21.5t34 -8.5q33 0 57 22.5t46 76.5q9 23 35 23q13 0 20.5 -11.5
t7.5 -27.5v-312z" />
    <glyph glyph-name="saraathai" unicode="&#xe30;" horiz-adv-x="226" 
d="M200 275q-14 -26 -39.5 -37t-50.5 -11q-32 0 -56.5 13.5t-32.5 37.5q-7 19 5 24q8 5 16 3t10 -7q16 -36 59 -36q18 0 33.5 7.5t25.5 27.5q3 6 10.5 7.5t14.5 -2.5q5 -2 7.5 -9.5t-2.5 -17.5zM200 80q-14 -26 -39.5 -37t-50.5 -11q-32 0 -56.5 13.5t-32.5 37.5q-7 19 5 24
q8 5 16 3t10 -7q16 -36 59 -36q18 0 33.5 7.5t25.5 27.5q3 6 10.5 7.5t14.5 -2.5q5 -2 7.5 -9.5t-2.5 -17.5z" />
    <glyph glyph-name="maihanakatthai" unicode="&#xe31;" 
d="M56 452q0 -17 -23 -17h-120q-24 0 -39 4t-23 13.5t-10.5 26t-2.5 40.5q0 22 20 22q8 -1 12.5 -5.5t4.5 -17.5q0 -15 1 -25t4.5 -15t11.5 -7t22 -2h120q22 0 22 -17z" />
    <glyph glyph-name="saraaathai" unicode="&#xe32;" horiz-adv-x="244" 
d="M195 18q0 -22 -19 -22q-18 0 -18 22v232q0 46 -23 63t-54 17q-12 0 -30.5 -8t-28.5 -25q-10 -16 -23 -9q-5 5 -6.5 12t5.5 16q17 25 39 35t48 10q19 0 38.5 -4.5t35.5 -16.5t26 -33.5t10 -55.5v-233z" />
    <glyph glyph-name="saraamthai" unicode="&#xe33;" horiz-adv-x="244" 
d="M0 492q0 -26 -18 -43.5t-44 -17.5q-25 0 -43 17.5t-18 43.5t18 43.5t43 17.5q26 0 44 -17.5t18 -43.5zM195 18q0 -22 -19 -22q-18 0 -18 22v232q0 46 -23 63t-54 17q-12 0 -30.5 -8t-28.5 -25q-10 -16 -23 -9q-5 5 -6.5 12t5.5 16q17 25 39 35t48 10q19 0 38.5 -4.5
t35.5 -16.5t26 -33.5t10 -55.5v-233zM-28 491q0 14 -10 24t-24 10t-23.5 -10t-9.5 -24t9.5 -23.5t23.5 -9.5t24 9.5t10 23.5z" />
    <glyph glyph-name="saraithai" unicode="&#xe34;" 
d="M-46 453q2 -17 -21 -17h-189q-13 0 -17.5 4.5t-4.5 12.5q1 16 20 16h193q19 0 19 -16z" />
    <glyph glyph-name="saraiithai" unicode="&#xe35;" 
d="M-46 454q0 -8 -4.5 -13t-16.5 -5h-189q-13 0 -17.5 4.5t-4.5 12.5q1 16 20 16h178v54q0 11 4.5 15t12.5 5q8 0 13 -4.5t5 -17.5z" />
    <glyph glyph-name="sarauethai" unicode="&#xe36;" 
d="M-15 496q0 -21 -12.5 -37t-32.5 -22q-8 -1 -12.5 -1h-9.5h-179q-13 0 -17.5 4.5t-4.5 12.5q1 16 20 16h130q-3 13 -4 18t-1 9q0 26 18 44t43 18q26 0 44 -18t18 -44zM-42 496q0 14 -10 24t-25 10q-14 0 -24 -10t-10 -24t10 -24.5t24 -10.5q15 0 25 10.5t10 24.5z" />
    <glyph glyph-name="saraueethai" unicode="&#xe37;" 
d="M-46 454q0 -8 -4.5 -13t-16.5 -5h-189q-13 0 -17.5 4.5t-4.5 12.5q1 16 20 16h105v52q0 12 4.5 16.5t11.5 5.5q7 0 11.5 -5t4.5 -19l-1 -50h45v52q0 12 4 16.5t12 5.5q6 0 11 -5t5 -19z" />
    <glyph glyph-name="sarauthai" unicode="&#xe38;" 
d="M-45 -140q0 -20 -15 -20q-19 0 -19 20v59h-34q-22 0 -22 17q0 19 22 19h49q19 0 19 -20v-75z" />
    <glyph glyph-name="sarauuthai" unicode="&#xe39;" 
d="M-45 -115q0 -19 -19 -34t-51 -15q-33 0 -53.5 13t-20.5 36v34h-29q-22 0 -22 17q0 19 22 19h44q19 0 19 -20v-38q0 -14 9 -25t30 -11q19 0 28 12t9 25v41q0 12 3.5 16.5t11.5 4.5q19 0 19 -20v-55z" />
    <glyph glyph-name="phinthuthai" unicode="&#xe3a;" 
d="M-46 -68q0 -11 -8.5 -19.5t-19.5 -8.5t-19.5 8.5t-8.5 19.5t8.5 19.5t19.5 8.5t19.5 -8.5t8.5 -19.5z" />
    <glyph glyph-name="PUCR2005" unicode="&#xe3e;" 
 />
    <glyph glyph-name="bahtthai" unicode="&#xe3f;" horiz-adv-x="355" 
d="M183 470q33 -2 56.5 -16t37.5 -34.5t17.5 -45t-4 -48.5t-27 -44t-50.5 -31q16 -3 38.5 -10.5t41.5 -22.5t30.5 -40t7.5 -63q-3 -23 -13 -43.5t-28 -36.5t-44 -25.5t-62 -9.5h-1v-36q0 -14 -14 -14q-13 0 -13 14v36h-83q-16 0 -21 7.5t-5 18.5v417q0 28 25 28h84v43
q0 14 13 14q14 0 14 -14v-44zM190 33q36 0 59 15t34 37t10 48t-13.5 48t-36 37t-57.5 15h-3v-200h7zM86 33h70v200h-70v-200zM86 264h70v173h-70v-173zM256 350q2 32 -16.5 58t-56.5 29v-172q35 5 53 30.5t20 54.5z" />
    <glyph glyph-name="saraethai" unicode="&#xe40;" horiz-adv-x="137" 
d="M87 17q0 -14 -4 -18t-14 -4q-19 0 -19 22v320q0 21 18 21q19 0 19 -21v-320z" />
    <glyph glyph-name="saraaethai" unicode="&#xe41;" horiz-adv-x="259" 
d="M207 17q0 -14 -4 -18t-14 -4q-19 0 -19 22v320q0 21 18 21q19 0 19 -21v-320zM87 17q0 -14 -4 -18t-14 -4q-19 0 -19 22v320q0 21 18 21q19 0 19 -21v-320z" />
    <glyph glyph-name="saraothai" unicode="&#xe42;" horiz-adv-x="157" 
d="M194 492q-5 -4 -11.5 -3t-11.5 11q-8 17 -25.5 29.5t-40.5 14.5q-19 1 -34.5 -7.5t-23.5 -23.5q-5 -9 -4 -14.5t7 -13.5l41 -55q8 -11 8 -27v-387q0 -22 -19 -22q-8 0 -13 6.5t-5 15.5v386q0 7 -2 13.5t-9 14.5l-42 58q-4 5 -4 10t1 9q12 33 39 51t59 16q39 -2 60.5 -20
t29.5 -33q7 -12 6 -18.5t-6 -10.5z" />
    <glyph glyph-name="saraaimaimuanthai" unicode="&#xe43;" horiz-adv-x="157" 
d="M146 483q-4 -29 -18 -52l-10 -14t-10 -15q-12 -17 -12 -39l1 -347q0 -9 -5 -15.5t-14 -6.5q-18 0 -18 22v355q0 11 2.5 20t5.5 13q4 5 10 13.5t13 17.5q7 11 13.5 23t8.5 27q1 9 -1 19.5t-8 19t-15.5 14.5t-23.5 6q-24 0 -38 -17t-12 -39q2 -17 0.5 -21t-9.5 -6
t-15.5 4.5t-9.5 20.5q-4 37 20 64t63 27q43 0 64.5 -26t17.5 -68z" />
    <glyph glyph-name="saraaimaimalaithai" unicode="&#xe44;" horiz-adv-x="157" 
d="M97 17q0 -9 -4.5 -15.5t-13.5 -6.5q-19 0 -19 22l1 392q0 6 5.5 20.5t13 31.5t16 35t13.5 30l-50 -46q-10 -9 -18 -1l-66 60q-8 9 -7.5 15t4.5 11q5 5 12.5 6t15.5 -7l50 -44l47 40q13 13 29 13q9 0 18 -8.5t4 -25.5l-51 -125v-397z" />
    <glyph glyph-name="lakkhangyaothai" unicode="&#xe45;" horiz-adv-x="253" 
d="M195 -112q0 -22 -19 -22q-18 0 -18 22v362q0 47 -21.5 63t-55.5 16q-12 0 -30.5 -7.5t-28.5 -24.5q-10 -16 -23 -9q-5 5 -6.5 12t5.5 16q17 25 39 35t48 10q19 0 38.5 -4.5t35.5 -16.5t26 -33.5t10 -55.5v-363z" />
    <glyph glyph-name="maiyamokthai" unicode="&#xe46;" horiz-adv-x="444" 
d="M384 -113q0 -22 -19 -22q-18 0 -18 22v441l-46 -45q-17 -17 -36.5 -17t-36.5 17l-26 27q-8 8 -21 10.5t-23 -6.5q-9 -9 -11 -23.5t12 -26.5q2 -2 2.5 -9t-4.5 -13q-4 -4 -11.5 -5.5t-16.5 7.5q-12 11 -17 24.5t-4 27t5 24.5t10 18q11 14 27.5 19.5t29.5 5.5q9 1 19 -3.5
t15 -9.5l29 -30q22 -22 43 1l29 30q12 12 24 13h7q23 0 30.5 -16t7.5 -32v-429z" />
    <glyph glyph-name="maitaikhuthai" unicode="&#xe47;" 
d="M-36 564q0 -5 -3 -9.5t-13 -4.5h-147q-49 0 -49 -48q0 -12 6.5 -27.5t28.5 -20.5l30 30q11 10 18.5 6.5t8.5 -5.5q11 -17 18.5 -27.5t19.5 -10.5q20 0 27.5 14t2.5 29q-5 11 6 13q15 3 20 -14q5 -27 -9 -46.5t-43 -19.5q-21 0 -32.5 7t-23.5 29l-30 -30q-4 -4 -10 -6
t-16 1q-23 7 -38.5 26.5t-15.5 52.5q0 42 25.5 58.5t60.5 16.5h142q10 0 13 -4t3 -10z" />
    <glyph glyph-name="maiekthai" unicode="&#xe48;" 
d="M-63 612q-18 0 -18 21v85q0 22 18 22q9 0 14 -5t5 -19v-81q0 -24 -19 -23z" />
    <glyph glyph-name="maithothai" unicode="&#xe49;" 
d="M33 698q-22 -36 -62.5 -60t-88.5 -24q-18 0 -18 19v54h-40q-20 0 -20 15q0 17 20 17h53q17 0 17 -18v-56q23 0 42 8t33.5 19t25 22.5t16.5 19.5q7 13 22 5q3 -2 4 -7.5t-4 -13.5z" />
    <glyph glyph-name="maitrithai" unicode="&#xe4a;" 
d="M-12 610q-25 -1 -30.5 5t-3.5 17q0 5 0.5 10.5t0.5 10.5t-2 12t-13 7q-5 0 -15 -12q-3 -3 -5.5 -6t-3.5 -4q-9 -11 -17 0q-1 1 -3.5 4t-5.5 6q-11 12 -15 12q-11 0 -13.5 -8.5t-1.5 -16.5l2 -16q2 -15 -10 -18q-14 -4 -16.5 6.5t-4.5 19.5q-3 32 10 47.5t30 15.5
q12 0 23 -11l13 -14l14 14q11 11 23 11q17 0 30 -14t10 -52l28 2q8 1 13 -3.5t5 -9.5q0 -14 -18 -14z" />
    <glyph glyph-name="maichattawathai" unicode="&#xe4b;" 
d="M-46 664v-26q0 -24 -17 -22q-15 0 -15 20v28h-35q-24 0 -22 15q0 14 20 14h37v29q0 19 15 19q17 2 17 -21v-27h34q19 0 19 -14q1 -8 -3.5 -11.5t-17.5 -3.5h-32z" />
    <glyph glyph-name="thanthakhatthai" unicode="&#xe4c;" 
d="M-28 587q-11 -1 -20 -9t-8 -20v-4q0 -8 -2 -16t-13 -10q-14 -2 -17 8t-3 20v6q0 19 13.5 36.5t43.5 18.5l24 1q11 0 14.5 -3.5t3.5 -11.5q0 -15 -19 -15z" />
    <glyph glyph-name="nikhahitthai" unicode="&#xe4d;" 
d="M0 492q0 -26 -18 -43.5t-44 -17.5q-25 0 -43 17.5t-18 43.5t18 43.5t43 17.5q26 0 44 -17.5t18 -43.5zM-28 491q0 14 -10 24t-24 10t-23.5 -10t-9.5 -24t9.5 -23.5t23.5 -9.5t24 9.5t10 23.5z" />
    <glyph glyph-name="yamakkanthai" unicode="&#xe4e;" 
d="M-45 438q0 -17 -17 -17h-14q-26 0 -42 16t-16 42q0 12 7 25t24 24q-19 12 -26 23.5t-7 22.5q-1 23 20.5 44t66.5 21q10 0 15.5 -4t5.5 -8.5t-5.5 -8t-15.5 -3.5q-28 0 -42.5 -11t-15.5 -28q-1 -16 10.5 -28t30.5 -13h4q16 0 16 -12q0 -5 -4.5 -9.5t-12.5 -3.5h-15
q-14 0 -21 -10t-7 -21q0 -13 10.5 -20.5t21.5 -8.5h12q17 0 17 -12z" />
    <glyph glyph-name="fongmanthai" unicode="&#xe4f;" horiz-adv-x="638" 
d="M292 -2q-49 0 -92 18.5t-75.5 51t-51 75.5t-18.5 92t18.5 92t51 75.5t75.5 51t92 18.5t92 -18.5t75.5 -51t51 -75.5t18.5 -92t-18.5 -92t-51 -75.5t-75.5 -51t-92 -18.5zM293 445q-42 0 -79.5 -16.5t-65.5 -45t-44.5 -67t-16.5 -81.5q0 -44 16.5 -82t44.5 -66.5t65.5 -45
t79.5 -16.5t79.5 16.5t65.5 45t44.5 66.5t16.5 82q0 43 -16.5 81.5t-44.5 67t-65.5 45t-79.5 16.5zM292 123q-23 0 -43.5 9t-35.5 24t-24 35.5t-9 43.5t9 43.5t24 35.5t35.5 24t43.5 9t43.5 -9t35.5 -24t24 -35.5t9 -43.5t-9 -43.5t-24 -35.5t-35.5 -24t-43.5 -9zM292 315
q-33 0 -56.5 -23.5t-23.5 -56.5t23.5 -56.5t56.5 -23.5t56.5 23.5t23.5 56.5t-23.5 56.5t-56.5 23.5z" />
    <glyph glyph-name="zerothai" unicode="&#xe50;" horiz-adv-x="384" 
d="M344 141q0 -35 -11.5 -61.5t-32 -45t-48 -28t-60.5 -9.5q-32 0 -59.5 9.5t-48 28t-32.5 45t-12 61.5q0 36 11.5 63t32 45.5t48 27.5t60.5 9q67 0 109.5 -36.5t42.5 -108.5zM311 141q0 58 -34 86t-85 28q-25 0 -46.5 -7t-38 -21t-26 -35.5t-9.5 -50.5q0 -27 9.5 -48
t26 -35.5t38.5 -22.5t46 -8t46 8t38 23t25.5 36t9.5 47z" />
    <glyph glyph-name="onethai" unicode="&#xe51;" horiz-adv-x="384" 
d="M339 141q0 -54 -26.5 -87.5t-66.5 -48.5t-86.5 -11.5t-85.5 23.5q-10 5 -11.5 13t2.5 14q3 5 10 6.5t18 -5.5q24 -14 60.5 -18.5t70.5 5.5t58 36t24 73q0 58 -34 86t-85 28q-14 0 -32.5 -3t-35.5 -11.5t-29 -23.5t-12 -38q0 -28 23 -42t56 0q8 5 17 4t13 -9
q7 -19 -21 -31q-28 -11 -50.5 -8t-38.5 15t-24.5 31t-8.5 41q0 25 13 45t33 33.5t45.5 20.5t51.5 7q67 0 109.5 -36.5t42.5 -108.5z" />
    <glyph glyph-name="twothai" unicode="&#xe52;" horiz-adv-x="384" 
d="M356 140q0 -9 -0.5 -21t-1.5 -24t-2.5 -23t-3.5 -18t-6.5 -16.5t-12 -17.5t-19 -14t-27.5 -6h-153q-42 0 -68.5 23.5t-27.5 74.5q0 35 0.5 63t-0.5 55q-2 28 -5 56t-10 60q-3 15 1 20t12 7q15 1 22 -24q15 -57 15.5 -116t0.5 -119q0 -36 20 -52.5t48 -16.5h126
q26 0 39 16t15 36q2 14 3 26t1 30q0 50 -8 80q-11 32 -33 32q-14 0 -20.5 -11.5t-8.5 -22.5q-3 -13 -4.5 -29t-3.5 -34q-1 -8 -4 -10.5t-6 -1.5t-6 4t-4 7q-2 19 -3 35t-4 29q-2 11 -8 22.5t-20 11.5q-13 0 -20.5 -7.5t-11 -18t-4.5 -23t-1 -21.5q0 -11 1.5 -27.5
t12.5 -21.5q9 -4 11 -9.5t1 -9.5q-2 -5 -5.5 -8t-15.5 -1q-17 3 -27 18.5t-12 39.5q-2 37 3 61t14.5 38t22.5 20t27 6q17 0 30.5 -8t20.5 -41q9 33 22.5 41t26.5 8q34 0 52.5 -32.5t18.5 -114.5z" />
    <glyph glyph-name="threethai" unicode="&#xe53;" horiz-adv-x="384" 
d="M346 141q0 -48 -5 -76t-9 -43t-9.5 -20.5t-13.5 -4.5t-11.5 6t-0.5 20q5 21 9 46q6 28 6 71q0 26 -3 45t-7 33q-5 18 -16.5 25.5t-22.5 7.5q-18 0 -34 -27.5t-21 -69.5q-2 -17 -6 -23t-11 -6t-11 6t-6 23q-5 42 -21 69.5t-33 27.5t-27 -13t-16 -31t-8 -37t-2 -30
q0 -22 1.5 -37t3.5 -25q1 -10 5 -19q5 -14 12 -18.5t15 -6.5q6 -1 10.5 -5t4.5 -9q3 -20 -17 -22q-23 1 -38 13t-23 47q-1 2 -5 26t-4 57q0 68 24 108.5t72 38.5q12 0 22.5 -7.5t18.5 -18.5t13.5 -24t8.5 -23q3 11 8.5 23.5t14 23t19 18t22.5 8.5q48 2 69.5 -38t21.5 -109z
" />
    <glyph glyph-name="fourthai" unicode="&#xe54;" horiz-adv-x="384" 
d="M362 328q-2 -8 -9.5 -22t-19.5 -27t-29 -22.5t-38 -9.5h-108q-42 0 -69.5 -29t-27.5 -80q0 -23 6.5 -42.5t19 -34.5t30 -23t39.5 -8q11 0 25 2t45 7q-23 24 -29.5 45t-2 38t15.5 28.5t23.5 16.5t23 2t12.5 -14q4 -16 -14 -21q-21 -4 -23.5 -23.5t7.5 -35.5
q11 -17 33.5 -29.5t58.5 -10.5q21 1 21 -16q0 -7 -3.5 -12t-20.5 -7q-49 -3 -77 15q-28 -8 -50 -12t-41 -5q-29 -2 -53 8.5t-41.5 29.5t-27.5 46t-10 58q0 67 37.5 104.5t100.5 37.5h98q22 0 40 17.5t26 41.5q6 21 24 16q7 -3 9.5 -9t-1.5 -20z" />
    <glyph glyph-name="fivethai" unicode="&#xe55;" horiz-adv-x="384" 
d="M362 326q-2 -8 -9.5 -22t-19.5 -27t-29 -22.5t-38 -9.5h-108q-42 0 -69.5 -28t-27.5 -79q0 -23 6.5 -42.5t19 -34.5t30 -23t39.5 -8q11 0 25 2t45 7q-23 24 -29 45t-2 37.5t15 28t23.5 16.5t23 2.5t12.5 -14.5q5 -15 -14 -20q-21 -5 -23.5 -24t7.5 -35q11 -17 33.5 -29.5
t58.5 -10.5q21 1 21 -16q0 -7 -3.5 -12t-20.5 -7q-48 -3 -77 14q-28 -7 -50 -11t-41 -5q-29 -2 -53 8.5t-41.5 29.5t-27.5 46t-10 58q0 26 5.5 45.5t14.5 36.5q14 23 35.5 33.5t47.5 15.5q-9 11 -11 18.5t-2 12.5q0 24 16.5 40t43.5 16q29 0 45.5 -16.5t16.5 -39.5
q0 -2 -0.5 -6t-2.5 -16h27q22 0 40 17.5t26 41.5q6 21 24 15q7 -2 9.5 -8t-1.5 -20zM216 301q0 15 -11 24.5t-25 9.5t-25.5 -9.5t-11.5 -24.5t11 -24.5t25 -9.5t25.5 9.5t11.5 24.5z" />
    <glyph glyph-name="sixthai" unicode="&#xe56;" horiz-adv-x="384" 
d="M349 141q0 -38 -13 -66t-35 -46.5t-51.5 -27t-62.5 -7.5q-51 2 -76 18.5t-34 41.5q-7 20 -5.5 41t12.5 38.5t31 29t50 12.5t30 -20q0 -9 -8 -14t-17 -3q-18 0 -31 -6.5t-20.5 -16.5t-9 -22t3.5 -24q9 -24 31 -33t42 -9q25 -1 48.5 5.5t41.5 21t29 36.5t11 51
q0 54 -31.5 84t-82.5 30q-20 0 -47.5 -8t-45.5 -22q-5 -5 -16 -4t-16 13q-11 25 -24 46t-31 36q-11 9 -13.5 16t-0.5 13q3 8 11.5 11t16.5 -4q37 -28 69 -95q21 16 49 23t48 7q67 0 107 -36.5t40 -109.5z" />
    <glyph glyph-name="seventhai" unicode="&#xe57;" horiz-adv-x="384" 
d="M359 147q-10 -82 -35 -117t-67 -34q-11 0 -18.5 8t-4.5 24q3 18 7.5 43.5t4.5 68.5v29.5t-3.5 38t-12 32.5t-24.5 14q-8 0 -14.5 -8.5t-12 -22.5t-8.5 -32.5t-3 -38.5q0 -15 -5 -21t-11 -6q-5 0 -10.5 6t-4.5 21q0 20 -3 38.5t-8.5 32.5t-12.5 22.5t-14 8.5
q-13 0 -21 -12t-12.5 -29.5t-6 -37.5t-1.5 -36q0 -28 3.5 -48t8.5 -34q5 -16 11 -20.5t14 -5.5q15 -2 16 -15q2 -20 -17 -20q-20 0 -36 13t-25 48q-4 16 -6.5 32.5t-2.5 51.5q-1 73 20 111t58 36q14 -1 29.5 -14t21.5 -48q6 35 21 48t28 14q38 2 58 -36t19 -111
q0 -33 -4 -60t-9 -56q14 4 24.5 15.5t17.5 28t11.5 37t7.5 41.5q3 23 3 70.5t-8 114.5q-2 17 1.5 20.5t11.5 4.5q7 0 12 -5.5t7 -20.5q7 -57 8 -98.5t-3 -85.5z" />
    <glyph glyph-name="eightthai" unicode="&#xe58;" horiz-adv-x="384" 
d="M362 328q-2 -8 -9 -21.5t-19.5 -26.5t-29.5 -22.5t-38 -9.5h-110q-42 0 -70 -29.5t-28 -80.5q0 -42 22 -72t53 -35l53 58q7 7 13.5 9t11.5 1t8.5 -4t4.5 -5q7 -25 18.5 -41.5t35.5 -16.5t37 19t10 39q-2 11 2 15.5t8 5.5q20 2 24 -20q3 -18 -1 -34.5t-14 -30t-25 -21.5
t-34 -8q-32 0 -50.5 12.5t-32.5 47.5l-43 -46q-10 -11 -19 -13t-26 3q-38 11 -64 46.5t-26 92.5q0 71 40.5 107t101.5 36h98q22 0 40 17t26 41q6 21 24 16q7 -3 9.5 -9t-1.5 -20z" />
    <glyph glyph-name="ninethai" unicode="&#xe59;" horiz-adv-x="384" 
d="M367 328q-1 -4 -2.5 -9.5t-3.5 -11.5q-8 -23 -22 -39.5t-40 -15.5q-21 0 -35 -9.5t-20.5 -24t-5.5 -32.5t10 -36q8 -16 15.5 -30.5t14.5 -28.5q11 -23 21.5 -44.5t14.5 -26.5q3 -6 2 -12t-9 -10q-6 -3 -12.5 0t-9.5 10l-109 204q-11 20 -25.5 31.5t-37.5 7.5
q-14 -2 -25.5 -12t-19 -26t-9 -37t4.5 -43q14 -48 37 -76.5t43 -23.5q17 3 19 -14q3 -18 -16 -22q-16 -4 -33.5 4.5t-34 26.5t-29.5 43t-20 55q-8 33 -5.5 61.5t14.5 49.5t31.5 33.5t44.5 14.5q11 1 23 -1t24.5 -9.5t25 -22.5t25.5 -40q10 45 30 58t42 13q14 -1 22.5 5.5
t13.5 15.5q5 8 8 18t6 19q6 21 24 16q7 -3 9.5 -9t-1.5 -20z" />
    <glyph glyph-name="angkhankhuthai" unicode="&#xe5a;" horiz-adv-x="455" 
d="M414 13q0 -22 -19 -22q-18 0 -18 22v326q0 10 3.5 17.5t14.5 7.5t15 -7.5t4 -18.5v-325zM304 13q0 -22 -19 -22q-18 0 -18 22v311q-15 -38 -30.5 -60.5t-31.5 -35.5t-33 -17t-34 -4q-29 0 -52 12.5t-37.5 32t-18.5 44.5t6 51q9 23 27 16q16 -7 9 -29q-6 -16 -3.5 -32.5
t11.5 -29.5t24 -21.5t34 -8.5q33 0 57 22.5t46 76.5q9 23 35 23q13 0 20.5 -11.5t7.5 -27.5v-312z" />
    <glyph glyph-name="khomutthai" unicode="&#xe5b;" horiz-adv-x="865" 
d="M573 192h219q24 0 24 -18q0 -20 -22 -20h-234l-44 44l-69 -92q-13 -16 -28 0l-72 87q-6 -24 -18.5 -50.5t-33 -49t-48.5 -37t-64 -14.5q-32 0 -58.5 10t-45.5 28.5t-29 43.5t-10 55q0 28 8.5 50.5t21.5 39t28 26t29 12.5q15 3 23.5 0t11 -9t-1.5 -13t-15 -11
q-29 -11 -48.5 -35t-19.5 -59q0 -43 29 -72.5t72 -29.5q36 0 61.5 17t42 42t24.5 53.5t8 52.5q0 17 12.5 17.5t23.5 -13.5l83 -104l70 93q12 15 25 0z" />
    <glyph glyph-name="ZWSP" unicode="&#x200b;" 
 />
    <glyph glyph-name="endash" unicode="&#x2013;" horiz-adv-x="500" 
d="M469 180q0 -5 -4.5 -9.5t-15.5 -4.5h-400q-11 0 -15.5 4.5t-4.5 9.5t5 10t17 5h396q13 0 17.5 -5t4.5 -10z" />
    <glyph glyph-name="emdash" unicode="&#x2014;" horiz-adv-x="1000" 
d="M964 180q0 -5 -4.5 -9.5t-15.5 -4.5h-895q-11 0 -15.5 4.5t-4.5 9.5t5 10t17 5h891q13 0 17.5 -5t4.5 -10z" />
    <glyph glyph-name="quoteleft" unicode="&#x2018;" horiz-adv-x="171" 
d="M125 321q-1 -11 -6 -14.5t-26 -0.5q-26 4 -35.5 18.5t-9 32.5t6.5 36t11 30q6 15 13 26t22 6q3 -1 3 -5t-1.5 -9t-3.5 -9.5t-3 -6.5q-4 -11 -7 -20.5t-6 -23.5q-4 -17 -2 -30.5t20 -15.5q8 -2 16.5 -2.5t7.5 -11.5z" />
    <glyph glyph-name="quoteright" unicode="&#x2019;" horiz-adv-x="171" 
d="M105 338q-6 -15 -13 -26t-22 -6q-3 1 -3 5t1.5 9t3.5 9.5t3 6.5q4 11 7 20t6 23q4 18 2 31.5t-20 15.5q-8 1 -16.5 2t-7.5 12q2 11 7 14.5t25 0.5q27 -4 36 -18.5t8.5 -32.5t-7 -36t-10.5 -30z" />
    <glyph glyph-name="quotedblleft" unicode="&#x201c;" horiz-adv-x="265" 
d="M226 331q-1 -12 -6.5 -15.5t-25.5 -0.5t-30 12t-13.5 21t-1.5 26.5t6 28.5q3 10 6 17.5l5 12.5q2 7 5 14.5t8 12.5q8 11 23 6q3 -1 3.5 -5.5t-1 -9.5t-3.5 -10t-3 -7q-4 -11 -7.5 -20t-6.5 -23q-4 -17 -2 -30t20 -15q7 -2 16.5 -3t7.5 -12zM112 331q-2 -12 -7 -15.5
t-26 -0.5q-19 3 -29 12t-14 21t-2 26.5t7 28.5q2 9 5 17t5 13q3 7 6 14.5t7 12.5q10 10 23 6q3 -1 3.5 -5.5t-1 -9.5t-3.5 -10t-3 -7q-4 -11 -7 -20t-6 -23q-4 -17 -2 -30t19 -15q8 -2 17 -3t8 -12z" />
    <glyph glyph-name="quotedblright" unicode="&#x201d;" horiz-adv-x="265" 
d="M226 377q-2 -9 -5.5 -16.5t-5.5 -13.5q-2 -5 -3.5 -8.5t-2.5 -5.5q-4 -9 -10 -16t-18 -2q-2 1 -3.5 2.5t-0.5 6.5q1 6 3 11.5t4 10.5q4 11 7.5 20t6.5 23q4 18 1 31t-19 15q-8 1 -17 2t-7 13q1 11 6.5 14.5t25.5 1.5q20 -3 30 -12t13 -21.5t1 -27t-6 -28.5zM112 377
l-6 -16t-5 -14q-2 -5 -3.5 -8.5t-2.5 -5.5q-5 -9 -11 -16t-18 -2q-2 1 -3.5 2.5t0.5 6.5q1 6 3 11.5t4 10.5q4 11 7 20t6 23q4 18 1 31t-18 15q-8 0 -17.5 2t-7.5 13t7.5 14.5t25.5 1.5q19 -3 29 -12t13.5 -21.5t1.5 -27t-6 -28.5z" />
    <glyph glyph-name="bullet" unicode="&#x2022;" horiz-adv-x="330" 
d="M258 164q0 -20 -7.5 -37t-20 -29.5t-30 -20t-36.5 -7.5q-20 0 -37 7.5t-29.5 20t-20 29.5t-7.5 37q0 19 7.5 36.5t20 30t29.5 20t37 7.5q39 0 66.5 -27.5t27.5 -66.5z" />
    <glyph glyph-name="Euro" unicode="&#x20ac;" horiz-adv-x="461" 
d="M432 63q2 -7 0 -16t-13 -17q-20 -12 -53 -23.5t-75 -11.5q-75 0 -124 42t-69 115h-62q-9 0 -14 5.5t-5 11.5t5 11.5t14 5.5h55q-2 17 -2.5 28t-0.5 21q0 11 0.5 22.5t2.5 28.5h-55q-9 0 -14 5.5t-5 11.5t5 11.5t14 5.5h62q20 72 69 114t127 42q45 0 77.5 -15.5
t48.5 -29.5q7 -7 7.5 -15.5t-3.5 -14.5t-11.5 -7.5t-17.5 6.5q-4 2 -7.5 5.5t-8.5 6.5q-38 26 -85 26q-54 0 -92 -30.5t-61 -87.5h133q9 0 14 -5.5t5 -11.5t-5 -11.5t-14 -5.5h-142q-2 -17 -3 -28.5t-1 -22.5t1 -21.5t3 -27.5h142q9 0 14 -5.5t5 -11.5t-5 -11.5t-14 -5.5
h-134q22 -57 59.5 -88.5t91.5 -31.5q22 0 39 4t31 10t24 12t19 11q12 6 19 2.5t9 -8.5z" />
    <glyph glyph-name="trademark" unicode="&#x2122;" horiz-adv-x="520" 
d="M478 209q0 -13 -12 -13t-12 14v192l2 51l-17 -49l-67 -198q-2 -7 -5 -8.5t-8 -1.5t-8 1.5t-5 8.5l-67 198l-15 47v-49v-192q0 -14 -12 -14q-4 0 -7.5 2.5t-3.5 10.5v246q0 18 20 18q8 0 13.5 -3.5t10.5 -16.5l69 -204h10l69 204q5 13 10.5 16.5t13.5 3.5q20 0 20 -18z
M122 448v-239q0 -6 -4 -9.5t-8.5 -3.5t-8 3.5t-3.5 9.5v239h-63q-6 0 -9 3.5t-3 8t3 8t9 3.5h151q6 0 9 -3.5t3 -8t-3 -8t-9 -3.5h-64z" />
    <glyph glyph-name="uni25CC" unicode="&#x25cc;" horiz-adv-x="670" 
d="M259 179l-48 -15l17 47q13 -18 31 -32zM312 413l23 45l22 -44q-5 1 -10.5 1h-10.5q-6 0 -12 -0.5t-12 -1.5zM355 156l-20 -42l-21 42q5 -1 11 -1.5t11 -0.5t9.5 0.5t9.5 1.5zM465 307l42 -22l-42 -19q1 5 1.5 9.5t0.5 9.5t-0.5 11t-1.5 11zM208 264l-45 23l45 22
q-1 -6 -1.5 -12t-0.5 -12q0 -5 0.5 -10.5t1.5 -10.5zM231 363l-13 46l45 -16q-18 -11 -32 -30zM440 205l12 -41l-41 13q18 13 29 28zM410 393l49 16l-17 -47q-14 18 -32 31z" />
    <glyph glyph-name="thothannobasethai" unicode="&#xf700;" horiz-adv-x="306" 
d="M256 18q0 -22 -20 -22q-18 0 -18 22l1 144h-101q-20 0 -20 18q0 19 22 19h99v33q0 97 -98 97q-31 0 -50 -12.5t-30 -31.5q-11 -20 -25 -14q-8 2 -10.5 10.5t2.5 15.5q14 25 40 44t76 19q24 0 46 -5.5t49 -20.5v34q0 22 19 22q18 0 18 -22v-350z" />
    <glyph glyph-name="saraileftthai" unicode="&#xf701;" 
d="M-126 458q2 -17 -21 -17h-164q-13 0 -17.5 4.5t-4.5 12.5q1 16 20 16h168q19 0 19 -16z" />
    <glyph glyph-name="saraiileftthai" unicode="&#xf702;" 
d="M-126 459q0 -8 -4.5 -13t-16.5 -5h-164q-13 0 -17.5 4.5t-4.5 12.5q1 16 20 16h153v54q0 11 4.5 15t12.5 5q8 0 13 -4.5t5 -17.5z" />
    <glyph glyph-name="saraueleftthai" unicode="&#xf703;" 
d="M-125 501q0 -21 -12.5 -37t-32.5 -22q-8 -1 -12.5 -1h-9.5h-120q-13 0 -17.5 4.5t-4.5 12.5q1 16 20 16h71q-3 13 -4 18t-1 9q0 26 18 44t43 18q26 0 44 -18t18 -44zM-151 501q0 14 -10.5 24.5t-25.5 10.5q-14 0 -24.5 -10.5t-10.5 -24.5q0 -15 10.5 -25.5t24.5 -10.5
q15 0 25.5 10.5t10.5 25.5z" />
    <glyph glyph-name="saraueeleftthai" unicode="&#xf704;" 
d="M-126 459q0 -8 -4.5 -13t-16.5 -5h-164q-13 0 -17.5 4.5t-4.5 12.5q1 16 20 16h80v52q0 12 4.5 16.5t11.5 5.5q7 0 11.5 -5t4.5 -19l-1 -50h45v52q0 12 4 16.5t12 5.5q6 0 11 -5t5 -19z" />
    <glyph glyph-name="maieklowleftthai" unicode="&#xf705;" 
d="M-150 462q0 -23 -18 -21q-17 0 -17 19v83q0 11 4.5 15t12.5 5q18 0 18 -22v-79z" />
    <glyph glyph-name="maitholowleftthai" unicode="&#xf706;" 
d="M-96 519q-23 -40 -61.5 -59t-81.5 -19q-20 0 -20 22v54l-45 -1q-22 0 -22 18t22 18h60q19 0 19 -20l-1 -56q32 0 53.5 10.5t39.5 34.5q4 5 7 9t5 7q5 8 10.5 9t13.5 -4q12 -5 1 -23z" />
    <glyph glyph-name="maitrilowleftthai" unicode="&#xf707;" 
d="M-110 455q0 -14 -20 -16l-29 -1q-28 -2 -34 5t-4 20l2 15q2 9 -1.5 20t-17.5 10q-3 0 -8 -3.5t-8 -6.5l-14 -16q-8 -11 -18 0l-14 16q-2 3 -7.5 6.5t-7.5 3.5q-14 1 -17.5 -10t-1.5 -20l3 -16q3 -16 -11 -21q-11 -3 -15 4.5t-6 15.5q-2 12 -1.5 26t5 26.5t14 20.5t25.5 8
q14 0 27 -13l16 -16l17 16q13 13 26 13q20 0 34 -15.5t10 -60.5l36 3q20 0 20 -14z" />
    <glyph glyph-name="maichattawalowleftthai" unicode="&#xf708;" 
d="M-116 502q0 -8 -4.5 -12.5t-18.5 -4.5h-40v-31q0 -14 -4.5 -19.5t-12.5 -5.5q-8 1 -12.5 6t-4.5 17v33h-38q-14 0 -19 4.5t-5 12.5q0 16 22 16h40v35q0 20 17 20q8 1 12.5 -3.5t4.5 -18.5v-33h42q12 0 16.5 -4t4.5 -12z" />
    <glyph glyph-name="thanthakhatlowleftthai" unicode="&#xf709;" 
d="M-85 527q0 -16 -21 -16l-20 -1q-14 -1 -25 -11t-10 -25q0 -11 -1 -21.5t-15 -11.5q-20 -2 -20 18l-1 19q-1 22 15 42t50 22l28 1q20 0 20 -16z" />
    <glyph glyph-name="maieklowrightthai" unicode="&#xf70a;" 
d="M-45 462q0 -23 -18 -21q-17 0 -17 19v83q0 11 4.5 15t12.5 5q18 0 18 -22v-79z" />
    <glyph glyph-name="maitholowrightthai" unicode="&#xf70b;" 
d="M4 519q-23 -40 -61.5 -59t-81.5 -19q-20 0 -20 22v54l-45 -1q-22 0 -22 18t22 18h60q19 0 19 -20l-1 -56q32 0 53.5 10.5t39.5 34.5q4 5 7 9t5 7q5 8 10.5 9t13.5 -4q12 -5 1 -23z" />
    <glyph glyph-name="maitrilowrightthai" unicode="&#xf70c;" 
d="M-15 455q0 -14 -20 -16l-29 -1q-28 -2 -34 5t-4 20l2 15q2 9 -1.5 20t-17.5 10q-3 0 -8 -3.5t-8 -6.5l-14 -16q-8 -11 -18 0l-14 16q-2 3 -7.5 6.5t-7.5 3.5q-14 1 -17.5 -10t-1.5 -20l3 -16q3 -16 -11 -21q-11 -3 -15 4.5t-6 15.5q-2 12 -1.5 26t5 26.5t14 20.5t25.5 8
q14 0 27 -13l16 -16l17 16q13 13 26 13q20 0 34 -15.5t10 -60.5l36 3q20 0 20 -14z" />
    <glyph glyph-name="maichattawalowrightthai" unicode="&#xf70d;" 
d="M18 502q0 -8 -4.5 -12.5t-18.5 -4.5h-40v-31q0 -14 -4.5 -19.5t-12.5 -5.5q-8 1 -12.5 6t-4.5 17v33h-43q-14 0 -19 4.5t-5 12.5q0 16 22 16h45v35q0 20 17 20q8 1 12.5 -3.5t4.5 -18.5v-33h42q12 0 16.5 -4t4.5 -12z" />
    <glyph glyph-name="thanthakhatlowrightthai" unicode="&#xf70e;" 
d="M-15 527q0 -16 -21 -16l-45 -1q-14 -1 -25 -11t-10 -25q0 -11 -1 -21.5t-15 -11.5q-20 -2 -20 18l-1 19q-1 22 15 42.5t49 21.5l54 1q20 0 20 -16z" />
    <glyph glyph-name="yoyingnobasethai" unicode="&#xf70f;" horiz-adv-x="542" 
d="M498 122q0 -63 -32.5 -94t-86.5 -31q-24 0 -46 6.5t-38.5 21t-26 38.5t-9.5 59v106q0 48 -23 72t-65 23l-91 -1v-283h32q22 0 22 -19q0 -9 -5 -15t-17 -5h-38q-17 0 -24 7.5t-7 24.5v299q0 21 19 22l110 2q24 0 46.5 -6t40 -20.5t27.5 -39.5t10 -63v-105q0 -25 7 -42.5
t19 -29t27 -16.5t31 -5q35 0 58 26.5t23 69.5v211q0 22 18 22q19 0 19 -22v-213z" />
    <glyph glyph-name="maihanakatleftthai" unicode="&#xf710;" 
d="M-115 449q0 -17 -23 -17h-90q-24 0 -39 4t-23 13.5t-10.5 26t-2.5 40.5q0 22 20 22q8 -1 12.5 -5.5t4.5 -17.5q0 -15 1 -25t4.5 -15t11.5 -7t22 -2h90q22 0 22 -17z" />
    <glyph glyph-name="nikhahitleftthai" unicode="&#xf711;" 
d="M-130 492q0 -26 -18 -43.5t-44 -17.5q-25 0 -43 17.5t-18 43.5t18 43.5t43 17.5q26 0 44 -17.5t18 -43.5zM-158 491q0 14 -10 24t-24 10t-23.5 -10t-9.5 -24t9.5 -23.5t23.5 -9.5t24 9.5t10 23.5z" />
    <glyph glyph-name="maitaikhuleftthai" unicode="&#xf712;" 
d="M-94 564q0 -5 -3 -9.5t-13 -4.5h-144q-49 0 -49 -48q0 -12 6.5 -27.5t28.5 -20.5l30 30q11 10 18.5 6.5t8.5 -5.5q11 -17 18.5 -27.5t19.5 -10.5q20 0 27.5 14t2.5 29q-5 11 6 13q15 3 20 -14q5 -27 -9 -46.5t-43 -19.5q-21 0 -32.5 7t-23.5 29l-30 -30q-4 -4 -10 -6
t-16 1q-23 7 -38.5 26.5t-15.5 52.5q0 42 25.5 58.5t60.5 16.5h139q10 0 13 -4t3 -10z" />
    <glyph glyph-name="maiekupperleftthai" unicode="&#xf713;" 
d="M-144 612q-18 0 -18 21v85q0 22 18 22q9 0 14 -5t5 -19v-81q0 -24 -19 -23z" />
    <glyph glyph-name="maithoupperleftthai" unicode="&#xf714;" 
d="M9 698q-22 -36 -62.5 -60t-88.5 -24q-18 0 -18 19v54h-40q-20 0 -20 15q0 17 20 17h53q17 0 17 -18v-56q23 0 42 8t33.5 19t25 22.5t16.5 19.5q7 13 22 5q3 -2 4 -7.5t-4 -13.5z" />
    <glyph glyph-name="maitriupperleftthai" unicode="&#xf715;" 
d="M-93 615q-25 -1 -30.5 5t-3.5 17q0 5 0.5 10.5t0.5 10.5t-2 12t-13 7q-5 0 -15 -12q-3 -3 -5.5 -6t-3.5 -4q-9 -11 -17 0q-1 1 -3.5 4t-5.5 6q-11 12 -15 12q-11 0 -13.5 -8.5t-1.5 -16.5l2 -16q2 -15 -10 -18q-14 -4 -16.5 6.5t-4.5 19.5q-3 32 10 47.5t30 15.5
q12 0 23 -11l13 -14l14 14q11 11 23 11q17 0 30 -14t10 -52l28 2q8 1 13 -3.5t5 -9.5q0 -14 -18 -14z" />
    <glyph glyph-name="maichattawaupperleftthai" unicode="&#xf716;" 
d="M-124 664v-26q0 -24 -17 -22q-15 0 -15 20v28h-35q-24 0 -22 15q0 14 20 14h37v29q0 19 15 19q17 2 17 -21v-27h34q19 0 19 -14q1 -8 -3.5 -11.5t-17.5 -3.5h-32z" />
    <glyph glyph-name="thanthakhatupperleftthai" unicode="&#xf717;" 
d="M-98 583q-11 -1 -20 -9t-8 -20v-4q0 -8 -2 -16t-13 -10q-14 -2 -17 8t-3 20v6q0 19 13.5 36.5t43.5 18.5l24 1q11 0 14.5 -3.5t3.5 -11.5q0 -15 -19 -15z" />
    <glyph glyph-name="saraulowthai" unicode="&#xf718;" 
d="M-45 -275q0 -20 -15 -20q-19 0 -19 20v59h-34q-22 0 -22 17q0 19 22 19h49q19 0 19 -20v-75z" />
    <glyph glyph-name="sarauulowthai" unicode="&#xf719;" 
d="M-45 -250q0 -19 -19 -33.5t-51 -14.5q-33 0 -53.5 12.5t-20.5 35.5v34h-29q-22 0 -22 17q0 19 22 19h44q19 0 19 -20v-37q0 -14 9 -25t30 -11q19 0 28 12t9 25v40q0 12 3.5 16.5t11.5 4.5q19 0 19 -20v-55z" />
    <glyph glyph-name="phinthulowthai" unicode="&#xf71a;" 
d="M-36 -213q0 -25 -25 -25t-25 25t25 25t25 -25z" />
    <glyph glyph-name="lochula.short" unicode="&#xf71d;" horiz-adv-x="406" 
d="M358 90q0 -19 -7 -36t-19 -29.5t-28 -20t-34 -7.5q-19 0 -37.5 9t-31.5 35q-14 -26 -32.5 -35t-36.5 -9q-37 0 -62.5 27t-25.5 66v247q0 22 19 22q18 0 18 -22v-250q0 -23 15 -38t36 -15t36 15.5t15 37.5l-1 113q0 21 19 21t19 -21l-1 -113q0 -23 15 -38t36 -15t36 15
t15 38v146q0 32 -14.5 47t-46.5 21q-6 1 -11.5 6.5t-7.5 12.5t1 15.5t14 15.5l74 53q18 12 27 -2q12 -15 -7 -28l-67 -47q42 -11 58.5 -32.5t16.5 -63.5v-141z" />
    <glyph glyph-name="rulakkhangyao" unicode="&#xf881;" horiz-adv-x="501" 
d="M459 -112q0 -22 -19 -22q-18 0 -18 22v362q0 47 -21.5 63t-55.5 16q-12 0 -30 -7.5t-29 -24.5q15 -27 15 -70v-339q0 -22 -19 -22q-18 0 -18 22v340q0 48 -25 72.5t-67 23.5l-92 -2v-282l32 -1q22 0 22 -18q0 -9 -5.5 -15t-16.5 -6h-38q-17 0 -24 8t-7 25v298q0 21 19 22
l110 2q26 1 51 -6t44 -25q17 20 37.5 28.5t43.5 8.5q19 0 39 -4.5t36 -16.5t26 -33.5t10 -55.5v-363z" />
    <glyph glyph-name="lulakkhangyao" unicode="&#xf882;" horiz-adv-x="512" 
d="M469 -112q0 -22 -19 -22q-18 0 -18 22v362q0 47 -21.5 63t-55.5 16q-12 0 -30 -7.5t-29 -24.5q15 -27 15 -70v-339q0 -22 -19 -22q-18 0 -18 22v340q0 48 -26 72.5t-66 23.5l-92 -2v-289q0 -17 -6.5 -25t-23.5 -8h-33q-23 0 -23 20q0 18 23 18l26 1v183v109q0 21 19 22
l110 2q26 1 51 -6t44 -25q17 20 37.5 28.5t43.5 8.5q19 0 39 -4.5t36 -16.5t26 -33.5t10 -55.5v-363z" />
    <glyph glyph-name="yamakkanleftthai" 
d="M-133 438q0 -17 -17 -17h-14q-26 0 -42 16t-16 42q0 12 7 25t24 24q-19 12 -26 23.5t-7 22.5q-1 23 20.5 44t66.5 21q10 0 15.5 -4t5.5 -8.5t-5.5 -8t-15.5 -3.5q-28 0 -42.5 -11t-15.5 -28q-1 -16 10.5 -28t30.5 -13h4q16 0 16 -12q0 -5 -4.5 -9.5t-12.5 -3.5h-15
q-14 0 -21 -10t-7 -21q0 -13 10.5 -20.5t21.5 -8.5h12q17 0 17 -12z" />
    <glyph glyph-name="saraamleft" horiz-adv-x="244" 
d="M-121 492q0 -26 -18 -43.5t-44 -17.5q-25 0 -43 17.5t-18 43.5t18 43.5t43 17.5q26 0 44 -17.5t18 -43.5zM195 18q0 -22 -19 -22q-18 0 -18 22v232q0 46 -23 63t-54 17q-12 0 -30.5 -8t-28.5 -25q-10 -16 -23 -9q-5 5 -6.5 12t5.5 16q17 25 39 35t48 10q19 0 38.5 -4.5
t35.5 -16.5t26 -33.5t10 -55.5v-233zM-149 491q0 14 -10 24t-24 10t-23.5 -10t-9.5 -24t9.5 -23.5t23.5 -9.5t24 9.5t10 23.5z" />
    <glyph glyph-name="uni0E33.alt1" horiz-adv-x="244" 
d="M-121 492q0 -26 -18 -43.5t-44 -17.5q-25 0 -43 17.5t-18 43.5t18 43.5t43 17.5q26 0 44 -17.5t18 -43.5zM195 18q0 -22 -19 -22q-18 0 -18 22v232q0 46 -23 63t-54 17q-12 0 -30.5 -8t-28.5 -25q-10 -16 -23 -9q-5 5 -6.5 12t5.5 16q17 25 39 35t48 10q19 0 38.5 -4.5
t35.5 -16.5t26 -33.5t10 -55.5v-233zM-149 491q0 14 -10 24t-24 10t-23.5 -10t-9.5 -24t9.5 -23.5t23.5 -9.5t24 9.5t10 23.5z" />
    </font>
</defs>
</svg>
