<svg xmlns="http://www.w3.org/2000/svg" width="40.002" height="80.027"><g data-name="Group 389"><g data-name="Group 345"><g data-name="Group 338"><g data-name="Group 337"><path data-name="Path 750" d="M33.752 0h-5.938a6.257 6.257 0 00-6.25 6.25v5.938a6.257 6.257 0 006.25 6.25h5.938a6.257 6.257 0 006.25-6.25V6.25A6.257 6.257 0 0033.752 0zm3.125 12.188a3.129 3.129 0 01-3.125 3.125h-5.938a3.129 3.129 0 01-3.125-3.125V6.25a3.129 3.129 0 013.125-3.125h5.938a3.129 3.129 0 013.125 3.125z" fill="#fff"/></g></g><g data-name="Group 340"><g data-name="Group 339"><path data-name="Path 751" d="M12.188 0H6.25A6.257 6.257 0 000 6.25v5.938a6.257 6.257 0 006.25 6.25h5.938a6.257 6.257 0 006.25-6.25V6.25A6.257 6.257 0 0012.188 0zm3.125 12.188a3.129 3.129 0 01-3.125 3.125H6.25a3.129 3.129 0 01-3.125-3.125V6.25A3.129 3.129 0 016.25 3.125h5.938a3.129 3.129 0 013.125 3.125z" fill="#fff"/></g></g><g data-name="Group 342"><g data-name="Group 341"><path data-name="Path 752" d="M12.188 21.564H6.25A6.257 6.257 0 000 27.814v5.938a6.257 6.257 0 006.25 6.25h5.938a6.257 6.257 0 006.25-6.25v-5.938a6.257 6.257 0 00-6.25-6.25zm3.125 12.188a3.129 3.129 0 01-3.125 3.125H6.25a3.129 3.129 0 01-3.125-3.125v-5.938a3.129 3.129 0 013.125-3.125h5.938a3.129 3.129 0 013.125 3.125z" fill="#fff"/></g></g><g data-name="Group 344"><g data-name="Group 343"><path data-name="Path 753" d="M38.44 32.19a1.563 1.563 0 00-1.563 1.563 3.129 3.129 0 01-3.125 3.125h-5.938a3.129 3.129 0 01-3.125-3.125v-5.939a3.129 3.129 0 013.125-3.125h5.938a3.127 3.127 0 012.865 1.875 1.563 1.563 0 002.863-1.252 6.253 6.253 0 00-5.728-3.748h-5.938a6.257 6.257 0 00-6.25 6.25v5.938a6.257 6.257 0 006.25 6.25h5.938a6.257 6.257 0 006.25-6.25 1.563 1.563 0 00-1.562-1.562z" fill="#fff"/></g></g></g><text transform="translate(20 67.027)" fill="#fff" font-size="40" font-family="DBSaiKrokX-Bold, DB SaiKrok X" font-weight="700"><tspan x="-16.94" y="0">เมนู</tspan></text></g></svg>