<svg data-name="Group 484" xmlns="http://www.w3.org/2000/svg" width="65.103" height="81.794"><g data-name="Group 489"><g data-name="Group 488"><path data-name="Path 793" d="M7.28 80.175a13.788 13.788 0 017.818-12.413 16.758 16.758 0 001.8 5.258 2.052 2.052 0 003.6-1.961 12.571 12.571 0 01-1.125-2.86l3.247 2.359a15.319 15.319 0 0018.062 0l3.252-2.362a12.711 12.711 0 01-12.281 9.5 12.55 12.55 0 01-7.906-2.764 2.052 2.052 0 10-2.559 3.207 16.791 16.791 0 0027.027-10.374 13.8 13.8 0 011.754 1.007 2.052 2.052 0 102.3-3.4 17.843 17.843 0 00-2.5-1.41l.434-.315a19.674 19.674 0 008-17.593 7.461 7.461 0 00-1.4-14.478l-.23-2.38a2.051 2.051 0 10-4.084.394l1.614 16.711a15.556 15.556 0 01-6.311 14.026l-9.517 6.913a11.226 11.226 0 01-13.237 0l-9.517-6.913A15.557 15.557 0 019.204 46.3l1.454-15.063c3.142-.474 9.679-1.976 12.841-6.47 4.62 2.347 10.177 2.156 16.905-.566 4.819-1.95 9.786-1.526 14.76 1.261a25.333 25.333 0 016.314 5.034 2.051 2.051 0 003.624-1.317 27.483 27.483 0 00-12.811-23.61 2.051 2.051 0 00-2.841.588 2.051 2.051 0 00.589 2.841 23.491 23.491 0 0110.449 15.06 29.136 29.136 0 00-3.19-2.1c-6.068-3.442-12.442-3.98-18.432-1.557-8.407 3.397-12.564 1.526-14.959-.174a15.406 15.406 0 01-1.987-1.7 2.051 2.051 0 00-2.9 2.9c.365.365.727.7 1.091 1.017-2.161 3.007-7.217 4.333-10.2 4.759-1.131-2.219-3.317-7.369-1.555-11.335C12.215 7.185 24.121 4.103 33.143 4.103a31.9 31.9 0 0112.406 2.5 2.052 2.052 0 002.692-1.083 2.052 2.052 0 00-1.083-2.692A36.039 36.039 0 0033.143.002c-16.386 0-25.485 7.336-28.536 14.2-2.739 6.162.849 13.477 2.062 15.652l-.166 1.718a7.461 7.461 0 00-1.4 14.48 19.675 19.675 0 008 17.592l.434.316A17.9 17.9 0 003.168 80.175m56.963 0a17.783 17.783 0 00-2.953-9.84 2.051 2.051 0 10-3.422 2.263 13.694 13.694 0 012.272 7.577M5.525 41.716a3.358 3.358 0 01.561-5.805zm53.681-2.747a3.351 3.351 0 01-1.419 2.745l-.56-5.8a3.36 3.36 0 011.978 3.055z" fill="#fff"/></g></g><g data-name="Group 491"><g data-name="Group 490"><path data-name="Path 794" d="M21.335 40.885a2.051 2.051 0 00-2.052 2.052v2.781a2.052 2.052 0 104.1 0v-2.781a2.052 2.052 0 00-2.048-2.052z" fill="#fff"/></g></g><g data-name="Group 493"><g data-name="Group 492"><path data-name="Path 795" d="M47.402 34.762a7.674 7.674 0 00-10.852 0 2.051 2.051 0 002.9 2.9 3.57 3.57 0 015.049 0 2.052 2.052 0 002.9-2.9z" fill="#fff"/></g></g><g data-name="Group 495"><g data-name="Group 494"><path data-name="Path 796" d="M26.76 34.762a7.674 7.674 0 00-10.852 0 2.051 2.051 0 102.9 2.9 3.57 3.57 0 015.049 0 2.052 2.052 0 002.9-2.9z" fill="#fff"/></g></g><g data-name="Group 497"><g data-name="Group 496"><path data-name="Path 797" d="M41.976 40.885a2.051 2.051 0 00-2.052 2.052v2.781a2.052 2.052 0 104.1 0v-2.781a2.052 2.052 0 00-2.048-2.052z" fill="#fff"/></g></g><g data-name="Group 499"><g data-name="Group 498"><path data-name="Path 798" d="M37.614 56.73a2.052 2.052 0 00-2.9 0 4.329 4.329 0 01-6.115 0 2.051 2.051 0 00-2.9 2.9 8.437 8.437 0 0011.918 0 2.051 2.051 0 00-.003-2.9z" fill="#fff"/></g></g></svg>