<svg xmlns="http://www.w3.org/2000/svg" width="45.909" height="45.9" viewBox="0 0 45.909 45.9">
  <defs>
    <style>
      .cls-1 {
        isolation: isolate;
      }

      .cls-2 {
        fill: #e92121;
      }
    </style>
  </defs>
  <g id="band-aid" class="cls-1" transform="translate(0 -0.05)">
    <path id="Path_41" data-name="Path 41" class="cls-2" d="M123.719,337.769l.263-.263a.672.672,0,1,0-.951-.951l-.263.263a.672.672,0,1,0,.951.951Z" transform="translate(-111.581 -306.153)"/>
    <path id="Path_42" data-name="Path 42" class="cls-2" d="M158.173,371.7l-.263.263a.672.672,0,0,0,.951.951l.263-.263a.672.672,0,1,0-.951-.951Z" transform="translate(-143.572 -338.145)"/>
    <path id="Path_43" data-name="Path 43" class="cls-2" d="M94.432,367.055l.263-.263a.672.672,0,0,0-.951-.951l-.263.263a.672.672,0,0,0,.951.951Z" transform="translate(-84.92 -332.813)"/>
    <path id="Path_44" data-name="Path 44" class="cls-2" d="M128.887,400.985l-.263.263a.672.672,0,0,0,.951.951l.263-.263a.672.672,0,1,0-.951-.951Z" transform="translate(-116.912 -364.805)"/>
    <path id="Path_45" data-name="Path 45" class="cls-2" d="M64.457,395.128l-.263.263a.672.672,0,0,0,.951.951l.263-.263a.672.672,0,1,0-.951-.951Z" transform="translate(-58.259 -359.473)"/>
    <path id="Path_46" data-name="Path 46" class="cls-2" d="M99.6,430.27l-.263.263a.673.673,0,0,0,.951.951l.263-.263a.673.673,0,0,0-.951-.951Z" transform="translate(-90.252 -391.465)"/>
    <path id="Path_47" data-name="Path 47" class="cls-2" d="M395.6,65.606a.67.67,0,0,0,.476-.2l.263-.263a.672.672,0,1,0-.951-.951l-.263.263a.672.672,0,0,0,.475,1.148Z" transform="translate(-359.519 -58.214)"/>
    <path id="Path_48" data-name="Path 48" class="cls-2" d="M430.745,100.751a.671.671,0,0,0,.476-.2l.263-.263a.673.673,0,0,0-.951-.951l-.263.263a.672.672,0,0,0,.476,1.148Z" transform="translate(-391.51 -90.208)"/>
    <path id="Path_49" data-name="Path 49" class="cls-2" d="M366.316,94.893a.67.67,0,0,0,.476-.2l.263-.263a.673.673,0,0,0-.951-.951l-.263.263a.672.672,0,0,0,.476,1.148Z" transform="translate(-332.858 -84.875)"/>
    <path id="Path_50" data-name="Path 50" class="cls-2" d="M401.247,128.626l-.263.263a.672.672,0,0,0,.951.951l.263-.263a.672.672,0,0,0-.951-.951Z" transform="translate(-364.85 -116.868)"/>
    <path id="Path_51" data-name="Path 51" class="cls-2" d="M337.031,124.179a.671.671,0,0,0,.476-.2l.263-.263a.672.672,0,0,0-.951-.951l-.263.263a.672.672,0,0,0,.476,1.148Z" transform="translate(-306.198 -111.535)"/>
    <path id="Path_52" data-name="Path 52" class="cls-2" d="M372.911,157.912a.673.673,0,0,0-.951,0l-.263.263a.672.672,0,1,0,.951.951l.263-.263A.672.672,0,0,0,372.911,157.912Z" transform="translate(-338.189 -143.528)"/>
    <path id="Path_53" data-name="Path 53" class="cls-2" d="M152.157,138.6a2.107,2.107,0,0,0-2.98,0L138.6,149.177a2.107,2.107,0,0,0,0,2.98l6.374,6.374a2.107,2.107,0,0,0,2.98,0l10.576-10.576a2.107,2.107,0,0,0,0-2.98Zm5.423,8.4L147,157.58a.762.762,0,0,1-1.078,0l-6.374-6.374a.762.762,0,0,1,0-1.078l10.576-10.576a.762.762,0,0,1,1.078,0l6.374,6.374a.762.762,0,0,1,0,1.078Z" transform="translate(-125.612 -125.566)"/>
    <path id="Path_54" data-name="Path 54" class="cls-2" d="M36.51,23,43.1,16.409A9.585,9.585,0,0,0,29.546,2.853L22.954,9.444,16.363,2.853A9.585,9.585,0,0,0,2.807,16.409L9.4,23,2.807,29.591A9.585,9.585,0,0,0,16.363,43.147l6.591-6.591,6.591,6.591A9.585,9.585,0,1,0,43.1,29.591ZM3.759,15.458A8.24,8.24,0,0,1,15.412,3.8L22,10.4,10.35,22.049ZM15.412,42.2A8.24,8.24,0,1,1,3.759,30.542L30.5,3.8A8.24,8.24,0,1,1,42.15,15.458l-7.069,7.069Zm26.738,0a8.25,8.25,0,0,1-11.654,0L23.906,35.6,35.559,23.951l6.591,6.591A8.25,8.25,0,0,1,42.15,42.2Z"/>
    <path id="Path_55" data-name="Path 55" class="cls-2" d="M159.124,123.031l-.263-.263a.672.672,0,1,0-.951.951l.263.263a.672.672,0,0,0,.951-.951Z" transform="translate(-143.572 -111.535)"/>
    <path id="Path_56" data-name="Path 56" class="cls-2" d="M123.719,157.911a.672.672,0,1,0-.951.951l.263.263a.672.672,0,1,0,.951-.951Z" transform="translate(-111.581 -143.527)"/>
    <path id="Path_57" data-name="Path 57" class="cls-2" d="M129.574,93.482a.673.673,0,0,0-.951.951l.263.263a.672.672,0,0,0,.951-.951Z" transform="translate(-116.911 -84.875)"/>
    <path id="Path_58" data-name="Path 58" class="cls-2" d="M94.432,128.625a.672.672,0,1,0-.951.951l.263.263a.672.672,0,1,0,.951-.951Z" transform="translate(-84.92 -116.867)"/>
    <path id="Path_59" data-name="Path 59" class="cls-2" d="M100.29,64.2a.672.672,0,1,0-.951.951l.263.263a.672.672,0,0,0,.951-.951Z" transform="translate(-90.252 -58.215)"/>
    <path id="Path_60" data-name="Path 60" class="cls-2" d="M65.146,99.339a.672.672,0,0,0-.951.951l.263.263a.672.672,0,0,0,.951-.951Z" transform="translate(-58.26 -90.207)"/>
    <path id="Path_61" data-name="Path 61" class="cls-2" d="M431.22,395.127a.673.673,0,1,0-.951.951l.263.263a.672.672,0,0,0,.951-.951Z" transform="translate(-391.51 -359.473)"/>
    <path id="Path_62" data-name="Path 62" class="cls-2" d="M396.078,430.271a.673.673,0,1,0-.951.951l.263.263a.673.673,0,1,0,.951-.951Z" transform="translate(-359.518 -391.465)"/>
    <path id="Path_63" data-name="Path 63" class="cls-2" d="M401.935,365.841a.672.672,0,1,0-.951.951l.263.263a.672.672,0,0,0,.951-.951Z" transform="translate(-364.85 -332.813)"/>
    <path id="Path_64" data-name="Path 64" class="cls-2" d="M366.791,400.985a.673.673,0,1,0-.951.951l.263.263a.672.672,0,0,0,.951-.951Z" transform="translate(-332.858 -364.805)"/>
    <path id="Path_65" data-name="Path 65" class="cls-2" d="M372.649,336.555a.672.672,0,1,0-.951.951l.263.263a.672.672,0,1,0,.951-.951Z" transform="translate(-338.19 -306.153)"/>
    <path id="Path_66" data-name="Path 66" class="cls-2" d="M337.506,371.7a.672.672,0,1,0-.951.951l.263.263a.672.672,0,0,0,.951-.951Z" transform="translate(-306.198 -338.145)"/>
  </g>
</svg>
