<svg id="cancer-cell" xmlns="http://www.w3.org/2000/svg" width="46.261" height="46.261" viewBox="0 0 46.261 46.261">
  <defs>
    <style>
      .cls-1 {
        fill: #e71618;
      }
    </style>
  </defs>
  <g id="Group_54" data-name="Group 54" transform="translate(0 0)">
    <path id="Path_4" data-name="Path 4" class="cls-1" d="M346.364,375.773l-.459-1.281a2.836,2.836,0,0,1-1.123.147L344.764,376A8.622,8.622,0,0,0,346.364,375.773Z" transform="translate(-313.474 -340.504)"/>
    <path id="Path_5" data-name="Path 5" class="cls-1" d="M107.158,84.729a3.909,3.909,0,0,0-2.836-1.153l-3.274.042c-1.472-1.365-2.832-3.623-5.1-3.534a3.908,3.908,0,0,0-2.821,1.19l-2.283,2.344c-2,.075-4.567-.557-6.11,1.111a3.908,3.908,0,0,0-1.154,2.836l.042,3.274c-1.365,1.472-3.623,2.832-3.534,5.1a3.908,3.908,0,0,0,1.19,2.821l2.344,2.283c.077,2.011-.56,4.561,1.111,6.11a3.912,3.912,0,0,0,2.836,1.154l3.274-.042c1.472,1.365,2.832,3.623,5.1,3.534a3.908,3.908,0,0,0,2.821-1.19l2.283-2.344,1.693.022.018-1.361-2.278-.029-2.692,2.762a2.578,2.578,0,0,1-3.693,0L91.405,106.9l-3.859.05a2.578,2.578,0,0,1-2.611-2.611l.05-3.859L82.223,97.79a2.578,2.578,0,0,1,0-3.693l2.762-2.691-.05-3.859a2.578,2.578,0,0,1,2.611-2.611l3.859.05L94.1,82.224a2.578,2.578,0,0,1,3.693,0l2.691,2.762,3.859-.05a2.578,2.578,0,0,1,2.611,2.611l-.05,3.859,2.762,2.692a2.578,2.578,0,0,1,0,3.693l-2.762,2.691.05,3.859a2.555,2.555,0,0,1-.777,1.878l.951.974c1.714-1.551,1.069-4.118,1.145-6.144,1.365-1.472,3.623-2.832,3.534-5.1a3.908,3.908,0,0,0-1.19-2.821l-2.344-2.283.042-3.274a3.909,3.909,0,0,0-1.153-2.836Z" transform="translate(-72.812 -72.813)"/>
    <path id="Path_6" data-name="Path 6" class="cls-1" d="M179.158,160.727a3.4,3.4,0,0,0-.47-1.726l-1.173.691a2.042,2.042,0,1,1-.74-.734l.682-1.178a3.4,3.4,0,1,0,1.7,2.947Z" transform="translate(-156.708 -143.042)"/>
    <path id="Path_7" data-name="Path 7" class="cls-1" d="M281.143,269.168a3.4,3.4,0,0,0,0-6.807A3.4,3.4,0,0,0,281.143,269.168Zm0-5.445a2.042,2.042,0,0,1,0,4.084A2.042,2.042,0,0,1,281.143,263.722Z" transform="translate(-252.567 -238.55)"/>
    <path id="Path_8" data-name="Path 8" class="cls-1" d="M190.084,288.776v-1.361h1.361v-1.361h-1.361v-1.361h-1.361v1.361h-1.361v1.361h1.361v1.361Z" transform="translate(-170.357 -258.854)"/>
    <path id="Path_9" data-name="Path 9" class="cls-1" d="M289.226,163.258a2.036,2.036,0,0,0,1.444-.6l1.925-1.925a2.042,2.042,0,0,0-2.888-2.888l-1.925,1.925A2.052,2.052,0,0,0,289.226,163.258Zm-.481-2.522,1.925-1.925a.681.681,0,0,1,.963.963l-1.925,1.925A.681.681,0,0,1,288.744,160.736Z" transform="translate(-261.124 -142.968)"/>
    <path id="Path_10" data-name="Path 10" class="cls-1" d="M44.9,20.408V22.45H42.142c-.168-2.481-1.913-4.086-3.6-5.7.046-2.336.145-4.7-1.49-6.578l1.949-1.949,1.444,1.444.963-.963-3.85-3.85-.963.963,1.444,1.444-1.95,1.949c-1.874-1.636-4.244-1.537-6.578-1.49-1.618-1.685-3.223-3.428-5.7-3.6V1.361h2.042V0H20.408V1.361H22.45V4.119c-2.481.168-4.086,1.913-5.7,3.6H14.963V9.076h2.349c1.658-1.637,3.226-3.731,5.82-3.631,2.6-.1,4.158,1.993,5.82,3.631,2.329.015,4.922-.357,6.685,1.548,1.91,1.773,1.531,4.352,1.548,6.685,1.637,1.658,3.731,3.226,3.631,5.82.1,2.6-1.993,4.158-3.631,5.82-.015,2.331.357,4.921-1.548,6.685-1.774,1.91-4.352,1.531-6.685,1.548-1.658,1.637-3.226,3.731-5.82,3.631-2.6.1-4.158-1.993-5.82-3.631-2.329-.015-4.922.357-6.685-1.548-1.91-1.773-1.531-4.352-1.548-6.685-1.637-1.658-3.731-3.226-3.631-5.82-.1-2.6,1.993-4.158,3.631-5.82l0-2.941a5.3,5.3,0,0,1,4.612-5.251l-.173-1.35a6.6,6.6,0,0,0-3.344,1.44L8.219,7.256,9.663,5.812,8.7,4.85,4.85,8.7l.963.963L7.256,8.219l1.952,1.952c-1.627,1.878-1.543,4.205-1.493,6.575-1.685,1.618-3.427,3.223-3.6,5.7H1.361V20.408H0v5.445H1.361V23.811H4.119c.168,2.481,1.913,4.086,3.6,5.7-.046,2.336-.145,4.7,1.49,6.578L7.256,38.042,5.812,36.6l-.963.963,3.85,3.85.963-.963L8.219,39.005l1.949-1.949c1.874,1.636,4.244,1.537,6.578,1.49,1.618,1.685,3.223,3.428,5.7,3.6V44.9H20.408v1.361h5.445V44.9H23.811V42.142c2.481-.168,4.086-1.913,5.7-3.6,2.336.046,4.7.145,6.578-1.49l1.949,1.949L36.6,40.449l.963.963,3.85-3.85-.963-.963-1.444,1.444-1.949-1.949c1.636-1.874,1.537-4.244,1.49-6.578,1.685-1.619,3.428-3.223,3.6-5.7H44.9v2.042h1.361V20.408H44.9Z" transform="translate(0 0)"/>
  </g>
  <g id="Group_55" data-name="Group 55" transform="translate(22.45 23.131)">
    <path id="Path_11" data-name="Path 11" class="cls-1" d="M247.361,254.861h1.361v1.361h-1.361Z" transform="translate(-247.361 -254.861)"/>
  </g>
  <g id="Group_56" data-name="Group 56" transform="translate(22.45 31.299)">
    <path id="Path_12" data-name="Path 12" class="cls-1" d="M247.361,344.861h1.361v1.361h-1.361Z" transform="translate(-247.361 -344.861)"/>
  </g>
  <g id="Group_57" data-name="Group 57" transform="translate(14.282 23.131)">
    <path id="Path_13" data-name="Path 13" class="cls-1" d="M157.361,254.861h1.361v1.361h-1.361Z" transform="translate(-157.361 -254.861)"/>
  </g>
</svg>
