<svg xmlns="http://www.w3.org/2000/svg" width="47.653" height="47.333" viewBox="0 0 47.653 47.333">
  <defs>
    <style>
      .cls-1 {
        fill: #ffc6ae;
      }

      .cls-2 {
        fill: #fff;
      }

      .cls-3 {
        fill: #ff5c7f;
      }

      .cls-4 {
        fill: #ffce62;
      }

      .cls-5 {
        fill: #e71618;
      }
    </style>
  </defs>
  <g id="endocrine-system" transform="translate(0 -1.715)">
    <g id="Group_62" data-name="Group 62" transform="translate(0.931 2.646)">
      <path id="Path_29" data-name="Path 29" class="cls-1" d="M55.161,26.721a16.828,16.828,0,0,0-8.044-6.2l-5.754-1.93a4.172,4.172,0,0,1-3.206-3.676l-.445-3.195H28.034l-.351,3.195c-.194,1.963-1.43,3.048-3.3,3.676l-5.661,1.93a16.827,16.827,0,0,0-8.044,6.2L10,27.677v9.7l7.523-6.45a1.719,1.719,0,0,1,2.781,1.1l.206,1.3c.245,1.544.554,3.076.911,4.6a16.3,16.3,0,0,1,.235,6.212l-.528,4.632a29.763,29.763,0,0,0-.154,6.313l.2,2.11H44.662l.2-2.11a29.759,29.759,0,0,0-.154-6.313l-.72-4.632a16.286,16.286,0,0,1,.364-6.722c.292-1.083.532-2.179.754-3.278l.425-2.107a1.719,1.719,0,0,1,2.781-1.1l7.475,6.408v-9.73Z" transform="translate(-10 -11.717)"/>
    </g>
    <g id="Group_63" data-name="Group 63" transform="translate(18.982 5.625)">
      <path id="Path_30" data-name="Path 30" class="cls-2" d="M210.568,44.046l-.484.322a2.453,2.453,0,0,1-2.527,0l-.484-.322a2.033,2.033,0,0,0-3.121,1.684v1.684a2.008,2.008,0,0,0,3.131,1.631l.461-.322a2.364,2.364,0,0,1,2.552,0l.461.322a1.99,1.99,0,0,0,3.131-1.631V45.729A2.033,2.033,0,0,0,210.568,44.046Z" transform="translate(-203.952 -43.72)"/>
    </g>
    <g id="Group_64" data-name="Group 64" transform="translate(16.09 34.774)">
      <path id="Path_31" data-name="Path 31" class="cls-3" d="M173.771,358.37l-.508,1.393a6.388,6.388,0,0,0,0,4.375l.508,1.393a2.214,2.214,0,0,0,4.294-.758v-5.645a2.214,2.214,0,0,0-4.294-.758Z" transform="translate(-172.877 -356.914)"/>
    </g>
    <g id="Group_65" data-name="Group 65" transform="translate(26.337 34.774)">
      <path id="Path_32" data-name="Path 32" class="cls-3" d="M287.267,358.37l.508,1.393a6.388,6.388,0,0,1,0,4.375l-.508,1.393a2.214,2.214,0,0,1-4.294-.758v-5.645a2.214,2.214,0,0,1,4.294-.758Z" transform="translate(-282.973 -356.914)"/>
    </g>
    <g id="Group_66" data-name="Group 66" transform="translate(21.035 26.145)">
      <path id="Path_33" data-name="Path 33" class="cls-4" d="M234.8,264.2h-6.058a2.8,2.8,0,1,0,2.2,4.62,2.033,2.033,0,0,1,1.06-.647l3.177-.9a1.56,1.56,0,0,0-.381-3.072Z" transform="translate(-226.012 -264.2)"/>
    </g>
    <g id="Group_67" data-name="Group 67" transform="translate(19.634 16.189)">
      <path id="Path_34" data-name="Path 34" class="cls-4" d="M212.851,157.333l.52.213a3.6,3.6,0,0,1,1.982,3.236,1.9,1.9,0,0,1-1.9,1.9,2.5,2.5,0,0,1-2.5-2.5v-1.576A1.376,1.376,0,0,1,212.851,157.333Z" transform="translate(-210.952 -157.228)"/>
    </g>
    <g id="Group_68" data-name="Group 68" transform="translate(24.035 16.189)">
      <path id="Path_35" data-name="Path 35" class="cls-4" d="M260.74,157.333l-.52.213a3.6,3.6,0,0,0-1.982,3.236,1.9,1.9,0,0,0,1.9,1.9,2.5,2.5,0,0,0,2.5-2.5v-1.576A1.376,1.376,0,0,0,260.74,157.333Z" transform="translate(-258.238 -157.228)"/>
    </g>
    <g id="Group_69" data-name="Group 69" transform="translate(0 1.715)">
      <path id="Path_36" data-name="Path 36" class="cls-5" d="M147.954,18l-.63-.888a17.694,17.694,0,0,0-8.492-6.542l-.015-.005-5.754-1.93a3.255,3.255,0,0,1-2.58-2.922l-.445-3.195a.931.931,0,1,0-1.844.257l.311,2.233a2.929,2.929,0,0,0-2.95.168l-.484.322a1.529,1.529,0,0,1-1.5,0l-.484-.322a2.929,2.929,0,0,0-2.979-.153l.25-2.274a.931.931,0,0,0-1.85-.2l-.351,3.195v.01c-.141,1.423-.964,2.313-2.674,2.886l-4.072,1.388a.931.931,0,1,0,.6,1.762l4.068-1.387a6.637,6.637,0,0,0,2.442-1.376v.3a2.947,2.947,0,0,0,4.6,2.394l.461-.322a1.444,1.444,0,0,1,1.486,0l.461.322a2.921,2.921,0,0,0,4.6-2.394V9.062a6.193,6.193,0,0,0,2.348,1.337l5.746,1.927a15.844,15.844,0,0,1,7.589,5.863l.458.646v7.409l-5.938-5.091a2.677,2.677,0,0,0-4.3,1.619l-.425,2.107c-.262,1.3-.49,2.292-.74,3.219a17.307,17.307,0,0,0-.385,7.107l.72,4.632a28.815,28.815,0,0,1,.147,6.08l-.2,2.11a.931.931,0,0,0,.837,1.016c.031,0,.061,0,.091,0a.931.931,0,0,0,.925-.841l.2-2.11a30.509,30.509,0,0,0-.16-6.546l-.72-4.632a15.429,15.429,0,0,1,.343-6.337c.261-.968.5-2,.768-3.336l.422-2.093c.135-.566.747-1.018,1.27-.584l7.47,6.4a.931.931,0,0,0,1.537-.707V18.538A.931.931,0,0,0,147.954,18ZM128.261,9.318a1.06,1.06,0,0,1-1.667.868l-.461-.322a3.294,3.294,0,0,0-3.619,0l-.461.322a1.068,1.068,0,0,1-1.667-.869V7.634a1.1,1.1,0,0,1,1.674-.909l.484.322a3.389,3.389,0,0,0,3.559,0l.484-.322a1.1,1.1,0,0,1,1.674.909Z" transform="translate(-100.473 -1.715)"/>
      <path id="Path_37" data-name="Path 37" class="cls-5" d="M12.359,142.149l-.206-1.3a2.676,2.676,0,0,0-4.306-1.657l-5.986,5.132v-7.383l.506-.713a17,17,0,0,1,2.422-2.74.931.931,0,1,0-1.252-1.377,18.869,18.869,0,0,0-2.689,3.041l-.678.955a.931.931,0,0,0-.172.538v9.7a.931.931,0,0,0,1.537.706l7.518-6.446c.517-.429,1.126.008,1.266.567l.2,1.262c.237,1.495.548,3.064.924,4.664a15.477,15.477,0,0,1,.221,5.856q0,.019-.005.037l-.526,4.614a30.549,30.549,0,0,0-.157,6.526l.2,2.11a.931.931,0,0,0,.925.841c.03,0,.06,0,.091,0a.931.931,0,0,0,.837-1.016l-.2-2.11a28.816,28.816,0,0,1,.147-6.08q0-.019.005-.037l.526-4.614a17.113,17.113,0,0,0-.251-6.548c-.365-1.556-.667-3.081-.9-4.531Z" transform="translate(0 -119.757)"/>
      <path id="Path_38" data-name="Path 38" class="cls-5" d="M179.23,264.895a3.144,3.144,0,0,0-5.995.275,6.391,6.391,0,0,1-.749-2.984v-.64a3.707,3.707,0,0,0,1.912-1.193,1.1,1.1,0,0,1,.576-.349L175,260l3.166-.9a2.491,2.491,0,0,0-.623-4.9h-6.058a3.732,3.732,0,0,0-.865,7.344v.644a6.4,6.4,0,0,1-.78,3.042,3.144,3.144,0,0,0-6.009-.333l-.508,1.393a7.33,7.33,0,0,0,0,5.012l.508,1.393a3.144,3.144,0,0,0,6.1-1.077v-3.46a8.531,8.531,0,0,0,1.621-2.19,8.53,8.53,0,0,0,1.576,2.145v3.5a3.144,3.144,0,0,0,6.1,1.077l.508-1.393a7.33,7.33,0,0,0,0-5.012Zm-11.158,6.722a1.283,1.283,0,0,1-2.488.439l-.508-1.393a5.465,5.465,0,0,1,0-3.738l.508-1.393a1.283,1.283,0,0,1,2.488.439v1.342a6.544,6.544,0,0,1-1.084.682.931.931,0,1,0,.831,1.666q.128-.064.253-.132Zm1.625-13.528a1.884,1.884,0,0,1,1.792-2.03h6.058a.629.629,0,0,1,.154,1.239l-.027.007-3.163.9a2.945,2.945,0,0,0-1.528.942,1.87,1.87,0,0,1-3.286-1.055Zm8.292,12.574-.508,1.393a1.283,1.283,0,0,1-2.488-.439V269.5c.1.054.2.107.3.157a.931.931,0,0,0,.831-1.666,6.541,6.541,0,0,1-1.129-.717v-1.308a1.283,1.283,0,0,1,2.488-.439l.508,1.393A5.465,5.465,0,0,1,177.989,270.663Z" transform="translate(-147.725 -230.699)"/>
      <path id="Path_39" data-name="Path 39" class="cls-5" d="M204.382,154.6a2.82,2.82,0,0,0,1.9-.735,2.82,2.82,0,0,0,1.9.735,3.435,3.435,0,0,0,3.431-3.431v-1.576a2.331,2.331,0,0,0-3.183-2.134l-.52.213a3.912,3.912,0,0,0-1.629,1.312,3.913,3.913,0,0,0-1.629-1.312l-.52-.213a2.331,2.331,0,0,0-3.183,2.134v1.576A3.435,3.435,0,0,0,204.382,154.6Zm4.236-5.206.52-.213a.449.449,0,0,1,.615.412v1.576a1.571,1.571,0,0,1-1.57,1.57.971.971,0,0,1-.97-.97A2.7,2.7,0,0,1,208.619,149.394Zm-5.806.2a.449.449,0,0,1,.615-.412l.52.213a2.7,2.7,0,0,1,1.405,2.375.971.971,0,0,1-.97.97,1.571,1.571,0,0,1-1.57-1.57v-1.576Z" transform="translate(-182.248 -133.741)"/>
      <path id="Path_40" data-name="Path 40" class="cls-5" d="M70.81,107.761a.93.93,0,1,0,.4-1.165.938.938,0,0,0-.4,1.165Z" transform="translate(-64.157 -96.727)"/>
    </g>
  </g>
</svg>
