<svg xmlns="http://www.w3.org/2000/svg" width="13.62" height="13.027" viewBox="0 0 13.62 13.027">
  <defs>
    <style>
      .cls-1 {
        fill: #fff;
      }
    </style>
  </defs>
  <g id="recommendation" transform="translate(-94.755 -56.918)">
    <path id="Path_75" data-name="Path 75" class="cls-1" d="M113.728,67.474h-3.466a.783.783,0,0,1-.744-.541l-1.073-3.3a.783.783,0,0,0-1.488,0l-1.071,3.3a.784.784,0,0,1-.746.542h-3.466a.783.783,0,0,0-.46,1.417l2.8,2.036a.783.783,0,0,1,.285.876l-1.071,3.3a.783.783,0,0,0,1.206.876l2.8-2.037a.783.783,0,0,1,.921,0l2.8,2.037a.783.783,0,0,0,1.206-.876L111.1,71.8a.783.783,0,0,1,.285-.876l2.8-2.036a.783.783,0,0,0-.46-1.417Zm0,0" transform="translate(-6.137 -6.179)"/>
  </g>
</svg>
