<svg xmlns="http://www.w3.org/2000/svg" width="24.888" height="20.888" viewBox="0 0 24.888 20.888">
    <g id="Group_463" data-name="Group 463" transform="translate(-733.181 254.499)">
        <path id="Path_782" data-name="Path 782" d="M755.4-254.5H735.854a2.677,2.677,0,0,0-2.673,2.673v7.777a2.677,2.677,0,0,0,2.673,2.674h6l1.711,6.669a.73.73,0,0,0,1.174.378l1.037-.869,1.105,1.325a.729.729,0,0,0,1.029.091l2.514-2.11a.729.729,0,0,0,.091-1.026l-1.107-1.327,1.04-.871a.73.73,0,0,0-.148-1.214l-2.138-1.046h7.23a2.677,2.677,0,0,0,2.673-2.674v-7.777A2.677,2.677,0,0,0,755.4-254.5Zm-7.569,16.631,1.108,1.328-1.4,1.172-1.1-1.324a.729.729,0,0,0-1.028-.092l-.711.6-1.544-6.016,5.506,2.693-.737.618a.729.729,0,0,0-.092,1.026Zm8.785-6.18a1.217,1.217,0,0,1-1.215,1.215c-10.735,0-10.066-.008-10.179.016l-2.846-1.392a.73.73,0,0,0-1.027.836l.139.54h-5.628a1.217,1.217,0,0,1-1.215-1.215v-7.777a1.217,1.217,0,0,1,1.215-1.215H755.4a1.217,1.217,0,0,1,1.215,1.215Z" fill="#ffffff"/>
        <path id="Path_783" data-name="Path 783" d="M797.1-194.5H794.91a.729.729,0,0,0-.729.729v5.833a.729.729,0,0,0,.729.729H797.1a2.19,2.19,0,0,0,2.187-2.187,2.179,2.179,0,0,0-.558-1.458,2.179,2.179,0,0,0,.558-1.458A2.19,2.19,0,0,0,797.1-194.5Zm0,5.833h-1.458v-1.458H797.1a.73.73,0,0,1,.729.729A.73.73,0,0,1,797.1-188.666Zm0-2.917h-1.458v-1.458H797.1a.73.73,0,0,1,.729.729A.73.73,0,0,1,797.1-191.582Z" transform="translate(-58.035 -57.083)" fill="#ffffff"/>
        <path id="Path_784" data-name="Path 784" d="M933.556-194.5a.729.729,0,0,0-.729.729v4.01a1.1,1.1,0,0,1-1.094,1.094,1.1,1.1,0,0,1-1.094-1.094v-4.01a.729.729,0,0,0-.729-.729.729.729,0,0,0-.729.729v4.01a2.555,2.555,0,0,0,2.552,2.552,2.555,2.555,0,0,0,2.552-2.552v-4.01A.729.729,0,0,0,933.556-194.5Z" transform="translate(-186.473 -57.083)" fill="#ffffff"/>
        <path id="Path_785" data-name="Path 785" d="M1069.657-194.4a.729.729,0,0,0-1,.25l-1.562,2.6-1.562-2.6a.729.729,0,0,0-1-.25.729.729,0,0,0-.25,1l2.083,3.472v1.985a.729.729,0,0,0,.729.729.729.729,0,0,0,.729-.729v-1.985l2.083-3.472a.729.729,0,0,0-.25-1Z" transform="translate(-314.908 -57.081)" fill="#ffffff"/>
    </g>
</svg>
