<svg xmlns="http://www.w3.org/2000/svg" width="35.381" height="35.381" viewBox="0 0 35.381 35.381">
    <g id="Group_23" data-name="Group 23" transform="translate(-989.983 -150.755)">
        <path id="Path_456" data-name="Path 456" d="M1011.814,160h-8.281a4.283,4.283,0,0,0-4.279,4.279v8.281a4.284,4.284,0,0,0,4.279,4.28h8.281a4.284,4.284,0,0,0,4.279-4.28V164.28A4.283,4.283,0,0,0,1011.814,160Zm-4.055,13.528a5.109,5.109,0,1,1,5.108-5.108A5.115,5.115,0,0,1,1007.759,173.529Zm5.406-9.344a1.216,1.216,0,1,1,1.216-1.216A1.215,1.215,0,0,1,1013.165,164.185Z" fill="#fff"/>
        <path id="Path_457" data-name="Path 457" d="M1007.759,165.148a3.272,3.272,0,1,0,3.272,3.273A3.276,3.276,0,0,0,1007.759,165.148Z" fill="#fff"/>
        <path id="Path_458" data-name="Path 458" d="M1007.673,150.755a17.69,17.69,0,1,0,17.691,17.69A17.69,17.69,0,0,0,1007.673,150.755Zm10.372,21.806a6.238,6.238,0,0,1-6.231,6.231h-8.281a6.238,6.238,0,0,1-6.231-6.231V164.28a6.238,6.238,0,0,1,6.231-6.231h8.281a6.238,6.238,0,0,1,6.231,6.231Z" fill="#fff"/>
    </g>
</svg>
