<svg xmlns="http://www.w3.org/2000/svg" width="36.381" height="36.381" viewBox="0 0 36.381 36.381">
    <g id="Group_25" data-name="Group 25" transform="translate(-1101.391 -292.73)">
        <path id="Path_461" data-name="Path 461" d="M1121.978,306.579a.636.636,0,0,0-.636.635v2.932s-2.538-3.311-2.576-3.354a.632.632,0,0,0-.5-.212.653.653,0,0,0-.611.661v4.771a.635.635,0,0,0,1.271,0V309.1s2.577,3.339,2.615,3.375a.626.626,0,0,0,.43.174.658.658,0,0,0,.641-.662v-4.771A.635.635,0,0,0,1121.978,306.579Z" transform="translate(0.459 0.391)" fill="#fff"/>
        <rect id="Rectangle_69" data-name="Rectangle 69" width="1.271" height="6.068" rx="0.483" transform="translate(1115.893 306.971)" fill="#fff"/>
        <path id="Path_462" data-name="Path 462" d="M1114.376,311.377h-1.906v-4.162a.636.636,0,0,0-1.271,0v4.8a.636.636,0,0,0,.635.635h2.542a.635.635,0,1,0,0-1.271Z" transform="translate(0.277 0.391)" fill="#fff"/>
        <path id="Path_463" data-name="Path 463" d="M1126.581,307.85a.635.635,0,1,0,0-1.271h-2.542a.636.636,0,0,0-.635.635v4.8a.636.636,0,0,0,.635.635h2.542a.635.635,0,1,0,0-1.271h-1.906v-1.128h1.906a.635.635,0,1,0,0-1.271h-1.906V307.85Z" transform="translate(0.622 0.391)" fill="#fff"/>
        <path id="Path_464" data-name="Path 464" d="M1119.582,292.73a18.191,18.191,0,1,0,18.191,18.191A18.191,18.191,0,0,0,1119.582,292.73ZM1132,310.273a6.229,6.229,0,0,1-.1.752,8.341,8.341,0,0,1-.949,2.723c-.223.4-1.312,1.928-1.646,2.33-1.836,2.213-4.912,4.766-10.055,7.248a.677.677,0,0,1-.969-.684l.259-2.332a.676.676,0,0,0-.6-.748c-6.087-.636-10.786-4.779-10.786-9.8,0-5.457,5.562-9.88,12.423-9.88,6.667,0,12.108,4.178,12.409,9.422A9.566,9.566,0,0,1,1132,310.273Z" transform="translate(0 0)" fill="#fff"/>
    </g>
</svg>
