<svg xmlns="http://www.w3.org/2000/svg" width="35.382" height="35.381" viewBox="0 0 35.382 35.381">
    <g id="Group_24" data-name="Group 24" transform="translate(-914.966 -212.094)">
        <path id="Path_459" data-name="Path 459" d="M944.955,236.175v-.039c-.008.013-.019.027-.027.039Z" transform="translate(-10.508 -8.432)" fill="#fff"/>
        <path id="Path_460" data-name="Path 460" d="M932.657,212.094a17.691,17.691,0,1,0,17.691,17.691A17.711,17.711,0,0,0,932.657,212.094Zm-4.424,25.643a.3.3,0,0,1-.3.3h-3.409a.3.3,0,0,1-.3-.3V226.294a.3.3,0,0,1,.3-.3h3.409a.3.3,0,0,1,.3.3Zm-2.12-13.269a2.142,2.142,0,1,1,2.142-2.142A2.142,2.142,0,0,1,926.113,224.468Zm16.545,13.269a.3.3,0,0,1-.3.3h-3.41a.3.3,0,0,1-.3-.3v-6.143c0-1.617-.578-2.721-2.026-2.721a2.189,2.189,0,0,0-2.052,1.463,2.741,2.741,0,0,0-.132.975v6.425a.3.3,0,0,1-.3.3h-3.409a.294.294,0,0,1-.3-.3c.008-1.636.042-9.574.007-11.439a.294.294,0,0,1,.3-.3h3.4a.3.3,0,0,1,.3.3v1.41a3.973,3.973,0,0,1,3.606-1.988c2.632,0,4.605,1.72,4.605,5.416Z" transform="translate(0)" fill="#fff"/>
    </g>
</svg>
