<svg xmlns="http://www.w3.org/2000/svg" width="22.551" height="23.617" viewBox="0 0 22.551 23.617">
    <g id="Group_462" data-name="Group 462" transform="translate(715.839 131.77)">
        <g id="Group_447" data-name="Group 447" transform="translate(-713.423 -125.017)">
            <g id="Group_446" data-name="Group 446" transform="translate(0 0)">
                <path id="Path_776" data-name="Path 776" d="M-663.007,2.382a4.832,4.832,0,0,0-4.832,4.832,4.832,4.832,0,0,0,4.832,4.832,4.832,4.832,0,0,0,4.832-4.832A4.832,4.832,0,0,0-663.007,2.382Zm3.576,3.02h-1.742a7.825,7.825,0,0,0-.692-2.03A4.019,4.019,0,0,1-659.43,5.4ZM-661.8,7.214a8.563,8.563,0,0,1-.064,1.007h-2.288a8.55,8.55,0,0,1-.064-1.007,8.6,8.6,0,0,1,.063-1.007h2.29A8.646,8.646,0,0,1-661.8,7.214ZM-663.124,3.2c.04,0,.077-.012.117-.012s.078.011.118.012A6.693,6.693,0,0,1-662,5.4h-2.021A6.681,6.681,0,0,1-663.124,3.2Zm-1.025.173a7.848,7.848,0,0,0-.692,2.03h-1.742A4.02,4.02,0,0,1-664.149,3.373Zm-2.885,3.842a3.981,3.981,0,0,1,.143-1.007h1.928a9.484,9.484,0,0,0-.057,1.007,9.331,9.331,0,0,0,.058,1.007h-1.929A3.981,3.981,0,0,1-667.034,7.214Zm.451,1.812h1.744a7.985,7.985,0,0,0,.689,2.029A4.019,4.019,0,0,1-666.583,9.026Zm3.693,2.2c-.04,0-.077.012-.117.012s-.077-.011-.117-.012a6.74,6.74,0,0,1-.892-2.2H-662A6.727,6.727,0,0,1-662.89,11.23Zm1.027-.174a7.965,7.965,0,0,0,.688-2.029h1.744A4.021,4.021,0,0,1-661.863,11.056Zm.812-2.835a9.4,9.4,0,0,0,.058-1.007,9.5,9.5,0,0,0-.057-1.007h1.927a3.981,3.981,0,0,1,.143,1.007,3.981,3.981,0,0,1-.143,1.007Z" transform="translate(667.839 -2.382)" fill="#fff"/>
            </g>
        </g>
        <g id="Group_449" data-name="Group 449" transform="translate(-712.617 -112.936)">
            <g id="Group_448" data-name="Group 448" transform="translate(0)">
                <rect id="Rectangle_271" data-name="Rectangle 271" width="8.054" height="0.805" fill="#fff"/>
            </g>
        </g>
        <g id="Group_451" data-name="Group 451" transform="translate(-699.374 -118.738)">
            <g id="Group_450" data-name="Group 450" transform="translate(0 0)">
                <rect id="Rectangle_272" data-name="Rectangle 272" width="1.611" height="0.805" transform="translate(0 1.556) rotate(-74.995)" fill="#fff"/>
            </g>
        </g>
        <g id="Group_453" data-name="Group 453" transform="translate(-701.25 -115.628)">
            <g id="Group_452" data-name="Group 452" transform="translate(0 0)">
                <rect id="Rectangle_273" data-name="Rectangle 273" width="5.637" height="0.805" transform="translate(0 5.445) rotate(-75.001)" fill="#fff"/>
            </g>
        </g>
        <g id="Group_455" data-name="Group 455" transform="translate(-715.839 -131.77)">
            <g id="Group_454" data-name="Group 454" transform="translate(0 0)">
                <path id="Path_777" data-name="Path 777" d="M-694.482-129.213l-9.335-2.5a1.613,1.613,0,0,0-.418-.055,1.612,1.612,0,0,0-1.555,1.194l-.842,3.142h-8.4a.805.805,0,0,0-.805.805v16.108a.805.805,0,0,0,.805.805h9.3l5.621,1.506a1.613,1.613,0,0,0,.418.055,1.612,1.612,0,0,0,1.555-1.194l4.794-17.893A1.611,1.611,0,0,0-694.482-129.213Zm-20.551,18.693v-16.108h12.081a.806.806,0,0,1,.805.805v14.5a.806.806,0,0,1-.805.805Zm20.912-16.929-4.794,17.893a.806.806,0,0,1-.777.6.808.808,0,0,1-.209-.028l-2.808-.753a1.607,1.607,0,0,0,1.368-1.586v-6.385l.413.111.417-1.556-.778-.208-.052.192v-6.4l.822.22.953,3.114.667.179-.063-2.876,1.178.316.518.913.445.119-.076-1.271.7-1.063-.445-.119-.9.532-1.178-.316,1.493-2.459-.667-.179-2.382,2.221-1.256-.337a1.6,1.6,0,0,0-1.415-.856H-705.8l.786-2.934a.807.807,0,0,1,.777-.6.808.808,0,0,1,.209.028l9.335,2.5a.8.8,0,0,1,.489.375A.8.8,0,0,1-694.121-127.449Z" transform="translate(715.839 131.77)" fill="#fff"/>
            </g>
        </g>
        <g id="Group_457" data-name="Group 457" transform="translate(-699.372 -120.867)">
            <g id="Group_456" data-name="Group 456" transform="translate(0 0)">
                <rect id="Rectangle_274" data-name="Rectangle 274" width="0.805" height="0.792" transform="translate(0 0.779) rotate(-75.179)" fill="#fff"/>
            </g>
        </g>
        <g id="Group_459" data-name="Group 459" transform="translate(-697.844 -120.461)">
            <g id="Group_458" data-name="Group 458" transform="translate(0 0)">
                <rect id="Rectangle_275" data-name="Rectangle 275" width="0.805" height="0.792" transform="translate(0 0.779) rotate(-75.179)" fill="#fff"/>
            </g>
        </g>
        <g id="Group_461" data-name="Group 461" transform="translate(-700.901 -121.272)">
            <g id="Group_460" data-name="Group 460" transform="translate(0 0)">
                <rect id="Rectangle_276" data-name="Rectangle 276" width="0.805" height="0.792" transform="translate(0 0.779) rotate(-75.179)" fill="#fff"/>
            </g>
        </g>
    </g>
</svg>
