<svg xmlns="http://www.w3.org/2000/svg" width="35.381" height="35.381" viewBox="0 0 35.381 35.381">
    <g id="Group_26" data-name="Group 26" transform="translate(-1100.89 -405.476)">
        <path id="Path_465" data-name="Path 465" d="M1121.387,425.387a1.605,1.605,0,0,0-1.226.71v-2.869h-1.185v8.784h1.185v-.634a1.616,1.616,0,0,0,1.226.724.94.94,0,0,0,.948-.736,5.242,5.242,0,0,0,.119-1.318v-2.607a5.069,5.069,0,0,0-.119-1.316A.939.939,0,0,0,1121.387,425.387Zm-.119,4.754c0,.591-.173.883-.515.883a.843.843,0,0,1-.592-.292v-3.989a.849.849,0,0,1,.592-.288c.342,0,.515.3.515.893Z" fill="#fff"/>
        <path id="Path_466" data-name="Path 466" d="M1110.231,424.464h1.394v7.547h1.319v-7.547h1.42v-1.236h-4.134Z" fill="#fff"/>
        <path id="Path_467" data-name="Path 467" d="M1117.78,419.42c.387,0,.572-.306.572-.918V415.72c0-.612-.185-.917-.572-.917s-.572.3-.572.917V418.5C1117.208,419.114,1117.394,419.42,1117.78,419.42Z" fill="#fff"/>
        <path id="Path_468" data-name="Path 468" d="M1116.762,425.467v5c-.263.372-.512.555-.75.555-.159,0-.249-.093-.277-.277a3.614,3.614,0,0,1-.011-.461v-4.819h-1.186v5.175a3.332,3.332,0,0,0,.1.974.728.728,0,0,0,.764.486,1.9,1.9,0,0,0,1.355-.8v.714h1.187v-6.545Z" fill="#fff"/>
        <path id="Path_469" data-name="Path 469" d="M1118.58,405.476a17.69,17.69,0,1,0,17.691,17.691A17.69,17.69,0,0,0,1118.58,405.476Zm1.957,8.328h1.2v4.87a2.908,2.908,0,0,0,.014.465c.026.186.121.281.281.281.24,0,.492-.185.757-.561V413.8h1.2v6.614h-1.2V419.7a1.927,1.927,0,0,1-1.369.812.735.735,0,0,1-.772-.491,3.36,3.36,0,0,1-.106-.984Zm-4.527,2.156a2.568,2.568,0,0,1,.375-1.558,1.777,1.777,0,0,1,2.793,0,2.59,2.59,0,0,1,.372,1.558v2.316a2.585,2.585,0,0,1-.372,1.556,1.779,1.779,0,0,1-2.793,0,2.563,2.563,0,0,1-.375-1.556Zm-3.2-4.418.943,3.486.907-3.486H1116l-1.6,5.281v3.6h-1.329v-3.6a21.856,21.856,0,0,0-.813-2.807c-.28-.824-.572-1.651-.852-2.474Zm15.244,21.048a2.477,2.477,0,0,1-2.121,1.928,99.4,99.4,0,0,1-14.7,0,2.476,2.476,0,0,1-2.121-1.928,31.446,31.446,0,0,1,0-9.278,2.479,2.479,0,0,1,2.12-1.928,99.414,99.414,0,0,1,14.7,0,2.48,2.48,0,0,1,2.121,1.928,31.635,31.635,0,0,1,0,9.278Z" fill="#fff"/>
        <path id="Path_470" data-name="Path 470" d="M1125.164,425.388a1.688,1.688,0,0,0-1.42.67,2.55,2.55,0,0,0-.366,1.543v2.292a2.538,2.538,0,0,0,.38,1.539,1.7,1.7,0,0,0,1.436.67,1.641,1.641,0,0,0,1.434-.709,1.694,1.694,0,0,0,.277-.711c.011-.118.025-.382.025-.764v-.173h-1.209a7.442,7.442,0,0,1-.027.8.51.51,0,0,1-.53.475c-.407,0-.606-.3-.606-.908v-1.16h2.373V427.6a2.578,2.578,0,0,0-.367-1.543A1.65,1.65,0,0,0,1125.164,425.388Zm.58,2.58h-1.185v-.606q0-.908.6-.907c.392,0,.59.3.59.907Z" fill="#fff"/>
    </g>
</svg>
