<svg xmlns="http://www.w3.org/2000/svg" width="47.625" height="47.742"><g data-name="Group 19" fill="#fff"><path data-name="Path 453" d="M34.788 44.303a23.64 23.64 0 119.414-9.332l3.422 12.771zm6.532-2.863l-1.911-7.13.5-.815A19.172 19.172 0 1033.345 40l.808-.482z"/><path data-name="Path 454" d="M32.817 26.86c-.972-.582-2.234-1.229-3.377-.761-.877.359-1.437 1.731-2.005 2.433a.841.841 0 01-1.088.236 15.287 15.287 0 01-7.633-6.539.936.936 0 01.119-1.278 5.159 5.159 0 001.386-2.252 4.917 4.917 0 00-.619-2.664c-.46-.992-.974-2.4-1.967-2.966a2.694 2.694 0 00-2.927.436 5.941 5.941 0 00-2.06 4.708 6.683 6.683 0 00.185 1.494 12.379 12.379 0 001.433 3.3 26.26 26.26 0 001.5 2.275 23.105 23.105 0 006.489 6.026 19.658 19.658 0 004.048 1.924 8.994 8.994 0 004.71.744 5.7 5.7 0 004.272-3.178 2.752 2.752 0 00.2-1.621c-.251-1.114-1.764-1.778-2.666-2.317z" fill-rule="evenodd"/></g></svg>