<svg xmlns="http://www.w3.org/2000/svg" width="100.4" height="100.4"><g data-name="Group 17" fill="#fff"><path data-name="Path 448" d="M62.46 68.042a2.878 2.878 0 00-2.76 2.8h5.458a2.76 2.76 0 00-2.698-2.8z"/><path data-name="Path 449" d="M23.766 65.061h-2.88v5.076h2.88c1.873 0 3.041-1.047 3.041-2.518v-.04c0-1.651-1.188-2.518-3.041-2.518z"/><path data-name="Path 450" d="M43.263 68.183a3.191 3.191 0 00-3.2 3.383v.041a3.277 3.277 0 003.242 3.4 3.19 3.19 0 003.223-3.363v-.04a3.287 3.287 0 00-3.265-3.421z"/><path data-name="Path 451" d="M81.876 42.648c-.025-.75-.422-1.18-1.09-1.18-1.478 0-4.058 2.114-5.649 5.529a8.4 8.4 0 00-.8 2.727l-.032.347.3-.176c3.362-1.963 7.349-4.811 7.271-7.247z"/><path data-name="Path 452" d="M50.2 0a50.2 50.2 0 1050.2 50.2A50.2 50.2 0 0050.2 0zM28.563 30.737l-1.938.274-.938.132c-.309.046-.612.1-.912.147l-1.745.287-1.618.3c-.259.049-.514.094-.761.144l-.72.151c-.467.1-.915.187-1.327.285l-1.156.27c-.354.086-.674.172-.966.246s-.546.145-.766.207c-.11.032-.213.06-.306.086s-.163.05-.233.07l-.318.1-.126.041-.018.006a2.758 2.758 0 11-1.7-5.247c.033-.011.077-.024.11-.033l.128-.036.426-.112c.092-.023.208-.056.312-.08l.353-.083c.255-.06.548-.131.869-.2s.682-.148 1.07-.224l1.254-.238c.448-.088.922-.158 1.423-.244l.77-.129c.263-.042.532-.077.806-.118l1.712-.245 1.831-.223c.315-.036.633-.079.955-.113l.979-.1 2.018-.2 2.087-.16c.705-.053 1.418-.113 2.138-.145l2.171-.117c.363-.017.727-.044 1.093-.054l1.094-.034c1.46-.044 2.919-.105 4.355-.1l2.133-.02c.351 0 .7-.008 1.048-.007l1.033.014 3.935.054 3.522.123 1.564.056 1.409.079 2.289.131 1.994.113a1.789 1.789 0 01-.124 3.575h-.039l-1.97-.03-2.26-.034-1.391-.02-1.54.01-3.464.024-3.864.109-1.011.029c-.34.012-.682.034-1.026.05-.688.035-1.385.07-2.086.107-1.4.058-2.825.177-4.247.279l-.338.025a48.374 48.374 0 00-4.919 7.361 76.566 76.566 0 00-4.188 9.083 105.92 105.92 0 00-3.184 9.56A116.367 116.367 0 0023.3 59.5a2.958 2.958 0 01-3.276 1.236 2.862 2.862 0 01-2.258-2.959c.346-1.175.7-2.345 1.086-3.508 1.1-3.351 2.342-6.658 3.759-9.9a81.715 81.715 0 014.863-9.484 60.47 60.47 0 012.9-4.365zm.762 36.822c0 3.162-2.538 4.813-5.64 4.813h-2.8v3.4a1.239 1.239 0 01-2.477 0V64.054a1.23 1.23 0 011.249-1.248h4.309c3.3 0 5.358 1.873 5.358 4.713zm6.929.946c-1.731.3-2.919 1.631-2.919 4.148v3.142a1.217 1.217 0 01-1.229 1.209 1.2 1.2 0 01-1.208-1.209v-8.418a1.2 1.2 0 011.208-1.229 1.221 1.221 0 011.229 1.229v1.087c.564-1.329 1.611-2.336 2.678-2.336a1.131 1.131 0 011.208 1.208 1.144 1.144 0 01-.967 1.169zm12.709 3.1a5.56 5.56 0 01-5.7 5.538 5.5 5.5 0 01-5.639-5.5v-.04a5.671 5.671 0 0111.339-.041zm5.953 3.3a5.715 5.715 0 00.6-.061 1.028 1.028 0 011.027 1.008 1.049 1.049 0 01-.645.946 4.849 4.849 0 01-1.671.282c-1.792 0-3.061-.786-3.061-3.122v-5.6h-.4a1.047 1.047 0 010-2.094h.4v-1.813a1.219 1.219 0 012.437 0v1.813h1.913a1.047 1.047 0 110 2.094h-1.913v5.217a1.16 1.16 0 001.313 1.335zm11.471-2.458h-6.666a2.968 2.968 0 003.06 2.7 3.824 3.824 0 002.518-.926.906.906 0 01.625-.222.959.959 0 01.966.987 1.064 1.064 0 01-.322.745 5.462 5.462 0 01-3.827 1.41 5.306 5.306 0 01-5.458-5.518v-.041a5.277 5.277 0 015.2-5.538 5.03 5.03 0 015.056 5.236 1.139 1.139 0 01-1.152 1.168zm11.817 3.183a5.2 5.2 0 01-3.867 1.51 5.429 5.429 0 01-5.5-5.5v-.04a5.489 5.489 0 015.538-5.559 5.388 5.388 0 013.727 1.329 1.158 1.158 0 01.382.846 1.108 1.108 0 01-1.127 1.108 1.242 1.242 0 01-.726-.242 3.37 3.37 0 00-2.275-.906 3.206 3.206 0 00-3.081 3.383v.041a3.217 3.217 0 003.181 3.4 3.55 3.55 0 002.377-.946 1.026 1.026 0 011.711.8.949.949 0 01-.34.781zm6.559-.725a5.747 5.747 0 00.6-.061 1.028 1.028 0 011.027 1.008 1.05 1.05 0 01-.645.946 4.853 4.853 0 01-1.671.282c-1.793 0-3.062-.786-3.062-3.122v-5.6h-.4a1.047 1.047 0 110-2.094h.4v-1.813a1.219 1.219 0 012.438 0v1.813h1.913a1.047 1.047 0 110 2.094H83.45v5.217a1.16 1.16 0 001.313 1.335zm-8.344-17.507a7.7 7.7 0 01-5.846-2.464l-.093-.108-.126.066c-2.967 1.548-5.453 2.52-7.194 2.52h-.049a3.848 3.848 0 01-2.359-.747c-1.712-1.3-1.287-3.407-1.026-4.251a46.171 46.171 0 012.2-5.768c.467-1.011.934-2.04 1.385-3.037l.309-.68a.9.9 0 00-.027-.9 1.5 1.5 0 00-1.269-.555c-2.722 0-4.583 3.1-5.257 4.426-.362.733-.739 1.506-1.123 2.3a53.318 53.318 0 00-1.064 2.6c-.378.969-.77 1.97-1.225 2.939-.092.2-.181.4-.272.6a7.3 7.3 0 01-1.482 2.433 2.62 2.62 0 01-4.159-1.117l-.075-.371-.239.292a4.769 4.769 0 01-3.69 1.817 3.841 3.841 0 01-3.611-2.3l-.1-.26-.194.2a8.2 8.2 0 01-5.127 2.359 3.846 3.846 0 01-3.515-1.616c-2.334-3.691 1.8-12.486 1.837-12.574 2.613-5.921 3.24-6.448 4.367-6.448.784 0 3.019.41 3.019 2.234a9.9 9.9 0 01-1.351 3.442c-.113.217-.221.423-.319.614l-.059.116c-1.314 2.58-3.76 7.383-2.93 9.069a1.058 1.058 0 00.8.594 2.1 2.1 0 00.384.035 3.245 3.245 0 001.981-.786c1.594-1.328 2.806-3.907 3.457-5.292.494-1.051.959-2.135 1.409-3.184s.917-2.136 1.411-3.187c.082-.174.163-.354.246-.536a8.284 8.284 0 011.538-2.555 2.062 2.062 0 011.292-.564c.784 0 3.02.41 3.02 2.234 0 1.021-.951 2.8-1.666 4.048-.185.35-.407.759-.665 1.233-1.48 2.719-3.716 6.828-3.716 8.717 0 .884.327 1.3 1.03 1.3h.014l.2-.03h.009a3.767 3.767 0 001.794-1.366c.189-.263.381-.56.573-.889.119-.222.242-.445.379-.687.592-1.128 1.1-2.351 1.512-3.335.2-.484.376-.9.512-1.193.495-1.05.958-2.133 1.408-3.18s.918-2.139 1.413-3.191c.082-.173.163-.353.245-.536a8.287 8.287 0 011.539-2.555 2.481 2.481 0 011.8-.564 2.32 2.32 0 012.511 2.234v.3l.263-.138c.35-.185.689-.371 1.018-.552a10.768 10.768 0 015.062-1.785h.128a3.45 3.45 0 013.074 5.007l-.034.067-.012.02c-.176.334-.4.751-.663 1.227-1.629 2.992-4.356 8-4.356 9.886 0 .98.41 1.154.989 1.291a1.725 1.725 0 00.4.042 8.018 8.018 0 003.335-1.167l.125-.067-.037-.137c-.568-2.111-.06-4.758 1.508-7.87 4.087-8.109 9.715-8.343 10.344-8.343h.071a6.323 6.323 0 014.188 1.741 4.668 4.668 0 01.974 3.772c-.524 4.576-7.332 8.4-11.344 10.275l-.2.094.136.177a3.764 3.764 0 002.373 1.422 7.563 7.563 0 001.087.081c2.184 0 4.347-1.105 7.013-3.581a.9.9 0 011.308 1.2c-.174.182-4.637 5.447-10.516 5.447z"/></g></svg>