<svg xmlns="http://www.w3.org/2000/svg" width="24.888" height="20.888"><g data-name="Group 463" fill="#fff"><path data-name="Path 782" d="M22.219-.001H2.673A2.677 2.677 0 000 2.672v7.777a2.677 2.677 0 002.673 2.674h6l1.711 6.669a.73.73 0 001.174.378l1.037-.869 1.105 1.325a.729.729 0 001.029.091l2.514-2.11a.729.729 0 00.091-1.026l-1.107-1.327 1.04-.871a.73.73 0 00-.148-1.214l-2.138-1.046h7.23a2.677 2.677 0 002.673-2.674V2.672a2.677 2.677 0 00-2.665-2.673zM14.65 16.63l1.108 1.328-1.4 1.172-1.1-1.324a.729.729 0 00-1.028-.092l-.711.6-1.544-6.016 5.506 2.693-.737.618a.729.729 0 00-.092 1.026zm8.785-6.18a1.217 1.217 0 01-1.215 1.215c-10.735 0-10.066-.008-10.179.016l-2.846-1.392a.73.73 0 00-1.027.836l.139.54H2.679a1.217 1.217 0 01-1.215-1.215V2.673a1.217 1.217 0 011.215-1.215h19.54a1.217 1.217 0 011.215 1.215z"/><path data-name="Path 783" d="M5.884 2.916h-2.19a.729.729 0 00-.729.729v5.833a.729.729 0 00.729.729h2.19A2.19 2.19 0 008.071 8.02a2.179 2.179 0 00-.558-1.458 2.179 2.179 0 00.558-1.458 2.19 2.19 0 00-2.187-2.188zm0 5.833H4.426V7.291h1.458a.73.73 0 01.729.729.73.73 0 01-.729.73zm0-2.917H4.426V4.374h1.458a.73.73 0 01.729.729.73.73 0 01-.729.731z"/><path data-name="Path 784" d="M13.902 2.916a.729.729 0 00-.729.729v4.01a1.1 1.1 0 01-1.094 1.094 1.1 1.1 0 01-1.094-1.094v-4.01a.729.729 0 00-.729-.729.729.729 0 00-.729.729v4.01a2.555 2.555 0 002.552 2.552 2.555 2.555 0 002.552-2.552v-4.01a.729.729 0 00-.729-.729z"/><path data-name="Path 785" d="M21.568 3.018a.729.729 0 00-1 .25l-1.562 2.6-1.562-2.6a.729.729 0 00-1-.25.729.729 0 00-.25 1l2.083 3.472v1.985a.729.729 0 00.729.729.729.729 0 00.729-.729V7.49l2.083-3.472a.729.729 0 00-.25-1z"/></g></svg>