<svg xmlns="http://www.w3.org/2000/svg" width="21.254" height="21.254"><g transform="translate(-15.998 -16)" fill="#fff"><path data-name="Path 778" d="M37.23 19.783c0-.011-.007-.022-.012-.033a.354.354 0 00-.071-.1l-3.542-3.55a.354.354 0 00-.1-.071l-.032-.011a.34.34 0 00-.094-.018h-9.938a.354.354 0 00-.354.354v6.73h.708v-6.376h9.21V19.9a.354.354 0 00.354.354h3.188V34.42h-7.439v.708h7.793a.354.354 0 00.354-.354V19.878a.335.335 0 00-.025-.095zm-3.52-.241v-2.333l2.333 2.333z"/><path data-name="Path 779" d="M17.15 37.254H27.6a1.151 1.151 0 00.921-1.842l-.832-1.11v-4.055a4.392 4.392 0 00-3.034-4.2l.873-1.742a.354.354 0 00-.319-.513h-5.668a.354.354 0 00-.317.513l.871 1.742a4.392 4.392 0 00-3.034 4.2v4.055l-.832 1.11a1.151 1.151 0 00.921 1.842zm7.486-12.752l-.708 1.417h-3.1l-.708-1.417zM16.8 35.837l.9-1.2a.354.354 0 00.071-.213v-4.173a3.694 3.694 0 012.874-3.62h3.463a3.694 3.694 0 012.874 3.62v4.173a.354.354 0 00.071.213l.9 1.2a.443.443 0 01-.354.708H17.15a.443.443 0 01-.354-.708z"/><path data-name="Path 780" d="M21.843 31.94h1.06a.531.531 0 110 1.063h-1.948v.708h1.063v.708h.708v-.708h.177a1.24 1.24 0 100-2.48h-1.06a.531.531 0 110-1.063h1.948v-.708h-1.063v-.708h-.708v.708h-.177a1.24 1.24 0 100 2.48z"/><path data-name="Path 781" d="M29.814 18.48a2.852 2.852 0 01-1.7-.567l-.567-.425a.354.354 0 00-.425 0l-.567.425a2.852 2.852 0 01-1.7.567.354.354 0 00-.354.354v1.955a2.486 2.486 0 001.249 2.154l1.407.8a.354.354 0 00.351 0l1.41-.8a2.486 2.486 0 001.249-2.154v-1.955a.354.354 0 00-.353-.354zm-.354 2.309a1.775 1.775 0 01-.892 1.538l-1.233.7-1.233-.7a1.775 1.775 0 01-.892-1.538V19.17a3.57 3.57 0 001.771-.69l.354-.266.354.266a3.57 3.57 0 001.771.69z"/><rect data-name="Rectangle 277" height="1" transform="translate(27.251 19)"/><rect data-name="Rectangle 278" height="1" transform="translate(27.251 21)"/><path data-name="Rectangle 279" d="M25.917 20.221h.708v.708h-.708z"/><rect data-name="Rectangle 280" height="1" transform="translate(28.251 20)"/><path data-name="Rectangle 281" d="M26.251 25h9v1h-9z"/><rect data-name="Rectangle 282" width="4" transform="translate(27.251 27)"/><rect data-name="Rectangle 283" width="3" transform="translate(32.251 27)"/><path data-name="Rectangle 284" d="M28.251 28h7v1h-7z"/><path data-name="Rectangle 285" d="M28.251 30h4v1h-4z"/><path data-name="Rectangle 286" d="M33.251 30h2v1h-2z"/><path data-name="Rectangle 287" d="M28.251 32h7v1h-7z"/><path data-name="Rectangle 288" d="M31.251 23h4v1h-4z"/><path data-name="Rectangle 289" d="M31.251 21h4v1h-4z"/></g></svg>