<svg xmlns="http://www.w3.org/2000/svg" width="35.381" height="35.381"><g data-name="Group 23" fill="#fff"><path data-name="Path 456" d="M21.831 9.245H13.55a4.283 4.283 0 00-4.279 4.279v8.281a4.284 4.284 0 004.279 4.28h8.281a4.284 4.284 0 004.279-4.28v-8.28a4.283 4.283 0 00-4.279-4.28zm-4.055 13.528a5.109 5.109 0 115.108-5.108 5.115 5.115 0 01-5.108 5.109zm5.406-9.344a1.216 1.216 0 111.216-1.216 1.215 1.215 0 01-1.216 1.217z"/><path data-name="Path 457" d="M17.776 14.393a3.272 3.272 0 103.272 3.273 3.276 3.276 0 00-3.272-3.273z"/><path data-name="Path 458" d="M17.69 0a17.69 17.69 0 1017.691 17.69A17.69 17.69 0 0017.69 0zm10.372 21.806a6.238 6.238 0 01-6.231 6.231H13.55a6.238 6.238 0 01-6.231-6.231v-8.281a6.238 6.238 0 016.231-6.231h8.281a6.238 6.238 0 016.231 6.231z"/></g></svg>