<svg xmlns="http://www.w3.org/2000/svg" width="36.381" height="36.381"><g data-name="Group 25" transform="translate(-1101.391 -292.73)" fill="#fff"><path data-name="Path 461" d="M1122.437 306.97a.636.636 0 00-.636.635v2.932s-2.538-3.311-2.576-3.354a.632.632 0 00-.5-.212.653.653 0 00-.611.661v4.771a.635.635 0 001.271 0v-2.912s2.577 3.339 2.615 3.375a.626.626 0 00.43.174.658.658 0 00.641-.662v-4.771a.635.635 0 00-.634-.637z"/><rect data-name="Rectangle 69" width="1.271" height="6.068" rx=".483" transform="translate(1115.893 306.971)"/><path data-name="Path 462" d="M1114.653 311.768h-1.906v-4.162a.636.636 0 00-1.271 0v4.8a.636.636 0 00.635.635h2.542a.635.635 0 100-1.271z"/><path data-name="Path 463" d="M1127.203 308.241a.635.635 0 100-1.271h-2.542a.636.636 0 00-.635.635v4.8a.636.636 0 00.635.635h2.542a.635.635 0 100-1.271h-1.906v-1.128h1.906a.635.635 0 100-1.271h-1.906v-1.129z"/><path data-name="Path 464" d="M1119.582 292.73a18.191 18.191 0 1018.191 18.191 18.191 18.191 0 00-18.191-18.191zM1132 310.273a6.229 6.229 0 01-.1.752 8.341 8.341 0 01-.949 2.723c-.223.4-1.312 1.928-1.646 2.33-1.836 2.213-4.912 4.766-10.055 7.248a.677.677 0 01-.969-.684l.259-2.332a.676.676 0 00-.6-.748c-6.087-.636-10.786-4.779-10.786-9.8 0-5.457 5.562-9.88 12.423-9.88 6.667 0 12.108 4.178 12.409 9.422a9.566 9.566 0 01.014.969z"/></g></svg>