<svg xmlns="http://www.w3.org/2000/svg" width="35.382" height="35.381"><g data-name="Group 24" fill="#fff"><path data-name="Path 459" d="M19.481 15.649v-.039l-.027.039z"/><path data-name="Path 460" d="M17.691 0a17.691 17.691 0 1017.691 17.691A17.711 17.711 0 0017.691 0zm-4.424 25.643a.3.3 0 01-.3.3H9.558a.3.3 0 01-.3-.3V14.2a.3.3 0 01.3-.3h3.409a.3.3 0 01.3.3zm-2.12-13.269a2.142 2.142 0 112.142-2.142 2.142 2.142 0 01-2.142 2.142zm16.545 13.269a.3.3 0 01-.3.3h-3.41a.3.3 0 01-.3-.3V19.5c0-1.617-.578-2.721-2.026-2.721a2.189 2.189 0 00-2.052 1.463 2.741 2.741 0 00-.132.975v6.425a.3.3 0 01-.3.3h-3.409a.294.294 0 01-.3-.3c.008-1.636.042-9.574.007-11.439a.294.294 0 01.3-.3h3.4a.3.3 0 01.3.3v1.41a3.973 3.973 0 013.606-1.988c2.632 0 4.605 1.72 4.605 5.416z"/></g></svg>