<svg xmlns="http://www.w3.org/2000/svg" width="22.551" height="23.617"><g data-name="Group 462"><g data-name="Group 447"><g data-name="Group 446"><path data-name="Path 776" d="M7.248 6.753a4.832 4.832 0 00-4.832 4.832 4.832 4.832 0 004.832 4.832 4.832 4.832 0 004.832-4.832 4.832 4.832 0 00-4.832-4.832zm3.576 3.02H9.082a7.825 7.825 0 00-.692-2.03 4.019 4.019 0 012.435 2.028zm-2.369 1.812a8.563 8.563 0 01-.064 1.007H6.103a8.55 8.55 0 01-.064-1.007 8.6 8.6 0 01.063-1.007h2.29a8.646 8.646 0 01.063 1.007zM7.131 7.571c.04 0 .077-.012.117-.012s.078.011.118.012a6.693 6.693 0 01.889 2.2H6.234a6.681 6.681 0 01.897-2.2zm-1.025.173a7.848 7.848 0 00-.692 2.03H3.672a4.02 4.02 0 012.434-2.03zm-2.885 3.842a3.981 3.981 0 01.143-1.007h1.928a9.484 9.484 0 00-.057 1.007 9.331 9.331 0 00.058 1.007H3.364a3.981 3.981 0 01-.143-1.008zm.451 1.812h1.744a7.985 7.985 0 00.689 2.029 4.019 4.019 0 01-2.433-2.03zm3.693 2.2c-.04 0-.077.012-.117.012s-.077-.011-.117-.012a6.74 6.74 0 01-.892-2.2h2.016a6.727 6.727 0 01-.89 2.203zm1.027-.174a7.965 7.965 0 00.688-2.029h1.744a4.021 4.021 0 01-2.432 2.032zm.812-2.835a9.4 9.4 0 00.058-1.007 9.5 9.5 0 00-.057-1.007h1.927a3.981 3.981 0 01.143 1.007 3.981 3.981 0 01-.143 1.007z" fill="#fff"/></g></g><g data-name="Group 449"><g data-name="Group 448"><path data-name="Rectangle 271" fill="#fff" d="M3.222 18.834h8.054v.805H3.222z"/></g></g><g data-name="Group 451"><g data-name="Group 450"><path data-name="Rectangle 272" fill="#fff" d="M16.465 14.588l.417-1.556.778.208-.417 1.556z"/></g></g><g data-name="Group 453"><g data-name="Group 452"><path data-name="Rectangle 273" fill="#fff" d="M14.589 21.587l1.459-5.445.777.208-1.458 5.445z"/></g></g><g data-name="Group 455"><g data-name="Group 454"><path data-name="Path 777" d="M21.357 2.557l-9.335-2.5a1.613 1.613 0 00-.418-.055 1.612 1.612 0 00-1.555 1.194l-.842 3.142h-8.4a.805.805 0 00-.805.805v16.108a.805.805 0 00.805.805h9.3l5.621 1.506a1.613 1.613 0 00.418.055 1.612 1.612 0 001.555-1.194L22.495 4.53a1.611 1.611 0 00-1.138-1.973zM.806 21.25V5.142h12.081a.806.806 0 01.805.805v14.5a.806.806 0 01-.805.805zM21.718 4.321l-4.794 17.893a.806.806 0 01-.777.6.808.808 0 01-.209-.028l-2.808-.753a1.607 1.607 0 001.368-1.586v-6.385l.413.111.417-1.556-.778-.208-.052.192v-6.4l.822.22.953 3.114.667.179-.063-2.876 1.178.316.518.913.445.119-.076-1.271.7-1.063-.445-.119-.9.532-1.178-.316 1.493-2.459-.667-.179-2.382 2.221-1.256-.337a1.6 1.6 0 00-1.415-.856h-2.853l.786-2.934a.807.807 0 01.777-.6.808.808 0 01.209.028l9.335 2.5a.8.8 0 01.489.375.8.8 0 01.083.613z" fill="#fff"/></g></g><g data-name="Group 457"><g data-name="Group 456"><path data-name="Rectangle 274" fill="#fff" d="M16.467 11.682l.206-.778.766.202-.206.779z"/></g></g><g data-name="Group 459"><g data-name="Group 458"><path data-name="Rectangle 275" fill="#fff" d="M17.995 12.088l.206-.778.766.202-.206.779z"/></g></g><g data-name="Group 461"><g data-name="Group 460"><path data-name="Rectangle 276" fill="#fff" d="M14.938 11.277l.206-.778.766.202-.206.779z"/></g></g></g></svg>