<svg xmlns="http://www.w3.org/2000/svg" width="35.381" height="35.381"><g data-name="Group 26" fill="#fff"><path data-name="Path 465" d="M20.497 19.911a1.605 1.605 0 00-1.226.71v-2.869h-1.185v8.784h1.185v-.634a1.616 1.616 0 001.226.724.94.94 0 00.948-.736 5.242 5.242 0 00.119-1.318v-2.607a5.069 5.069 0 00-.119-1.316.939.939 0 00-.948-.738zm-.119 4.754c0 .591-.173.883-.515.883a.843.843 0 01-.592-.292v-3.989a.849.849 0 01.592-.288c.342 0 .515.3.515.893z"/><path data-name="Path 466" d="M9.341 18.988h1.394v7.547h1.319v-7.547h1.42v-1.236H9.34z"/><path data-name="Path 467" d="M16.89 13.944c.387 0 .572-.306.572-.918v-2.782c0-.612-.185-.917-.572-.917s-.572.3-.572.917v2.78c0 .614.186.92.572.92z"/><path data-name="Path 468" d="M15.872 19.991v5c-.263.372-.512.555-.75.555-.159 0-.249-.093-.277-.277a3.614 3.614 0 01-.011-.461v-4.819h-1.186v5.175a3.332 3.332 0 00.1.974.728.728 0 00.764.486 1.9 1.9 0 001.355-.8v.714h1.187v-6.545z"/><path data-name="Path 469" d="M17.69 0a17.69 17.69 0 1017.691 17.691A17.69 17.69 0 0017.69 0zm1.957 8.328h1.2v4.87a2.908 2.908 0 00.014.465c.026.186.121.281.281.281.24 0 .492-.185.757-.561V8.324h1.2v6.614h-1.2v-.714a1.927 1.927 0 01-1.369.812.735.735 0 01-.772-.491 3.36 3.36 0 01-.106-.984zm-4.527 2.156a2.568 2.568 0 01.375-1.558 1.777 1.777 0 012.793 0 2.59 2.59 0 01.372 1.558V12.8a2.585 2.585 0 01-.372 1.556 1.779 1.779 0 01-2.793 0 2.563 2.563 0 01-.375-1.556zm-3.2-4.418l.943 3.486.907-3.486h1.34l-1.6 5.281v3.6h-1.329v-3.6a21.856 21.856 0 00-.813-2.807c-.28-.824-.572-1.651-.852-2.474zm15.244 21.048a2.477 2.477 0 01-2.121 1.928 99.4 99.4 0 01-14.7 0 2.476 2.476 0 01-2.121-1.928 31.446 31.446 0 010-9.278 2.479 2.479 0 012.12-1.928 99.414 99.414 0 0114.7 0 2.48 2.48 0 012.121 1.928 31.635 31.635 0 010 9.278z"/><path data-name="Path 470" d="M24.274 19.912a1.688 1.688 0 00-1.42.67 2.55 2.55 0 00-.366 1.543v2.292a2.538 2.538 0 00.38 1.539 1.7 1.7 0 001.436.67 1.641 1.641 0 001.434-.709 1.694 1.694 0 00.277-.711c.011-.118.025-.382.025-.764v-.173h-1.209a7.442 7.442 0 01-.027.8.51.51 0 01-.53.475c-.407 0-.606-.3-.606-.908v-1.16h2.373v-1.352a2.578 2.578 0 00-.367-1.543 1.65 1.65 0 00-1.4-.669zm.58 2.58h-1.185v-.606q0-.908.6-.907c.392 0 .59.3.59.907z"/></g></svg>