<?xml version="1.0" standalone="no"?>
<!DOCTYPE svg PUBLIC "-//W3C//DTD SVG 20010904//EN"
 "http://www.w3.org/TR/2001/REC-SVG-20010904/DTD/svg10.dtd">
<svg version="1.0" xmlns="http://www.w3.org/2000/svg"
 width="512.000000pt" height="512.000000pt" viewBox="0 0 512.000000 512.000000"
 preserveAspectRatio="xMidYMid meet">

<g transform="translate(0.000000,512.000000) scale(0.100000,-0.100000)"
fill="#E71618" stroke="none">
<path d="M2143 5096 c-299 -76 -459 -419 -343 -738 48 -132 132 -252 284 -403
195 -194 403 -345 476 -345 100 0 469 301 626 510 148 197 199 382 159 575
-75 355 -443 522 -738 335 l-47 -30 -47 30 c-108 69 -256 95 -370 66z m182
-305 c24 -10 66 -46 99 -84 100 -114 172 -114 272 0 87 99 155 123 240 84 73
-33 124 -127 124 -227 0 -58 -33 -145 -88 -229 -56 -85 -217 -249 -330 -334
l-82 -62 -88 67 c-115 89 -276 253 -330 335 -77 120 -98 214 -68 313 19 63 60
114 110 137 52 23 90 24 141 0z"/>
<path d="M1045 3893 c-400 -85 -661 -483 -579 -881 26 -126 92 -261 167 -339
17 -18 29 -34 26 -37 -2 -2 -30 -16 -61 -30 -276 -130 -480 -381 -570 -703
-22 -77 -23 -87 -26 -923 -3 -954 -8 -898 73 -946 l42 -24 2442 0 c2428 0
2442 0 2481 20 26 13 47 34 60 60 20 38 20 57 20 839 0 519 -4 827 -11 877
-30 220 -141 438 -303 599 -78 78 -215 173 -295 206 -28 12 -51 25 -51 29 0 4
10 15 22 26 11 10 40 48 63 84 80 123 112 220 122 370 31 482 -419 872 -895
774 -405 -83 -669 -480 -586 -882 26 -126 92 -261 166 -338 l30 -32 -81 -40
c-101 -51 -158 -89 -244 -164 l-67 -60 -47 42 c-93 81 -253 140 -383 140 -130
0 -290 -59 -383 -140 l-47 -42 -67 60 c-78 69 -182 137 -267 176 l-59 26 30
33 c38 40 93 126 122 191 34 77 51 153 58 256 27 425 -325 794 -754 789 -43 0
-109 -7 -148 -16z m247 -294 c87 -18 158 -58 223 -123 258 -259 118 -696 -244
-758 -141 -24 -281 22 -386 127 -178 177 -178 454 -1 630 111 111 258 155 408
124z m2720 0 c87 -18 158 -58 223 -123 258 -259 118 -696 -244 -758 -141 -24
-281 22 -386 127 -178 177 -178 454 -1 630 111 111 258 155 408 124z m-2467
-1211 c139 -42 257 -112 355 -212 l64 -66 1 -132 c1 -151 18 -220 80 -322 19
-32 35 -61 35 -65 0 -3 -26 -22 -57 -40 -118 -70 -245 -215 -302 -345 -52
-119 -54 -138 -58 -529 l-5 -367 -679 0 -679 0 0 710 c0 609 2 722 16 788 60
294 285 520 584 587 90 20 571 15 645 -7z m2673 6 c241 -50 449 -221 545 -450
56 -132 57 -152 57 -924 l0 -710 -679 0 -679 0 -5 367 c-4 389 -4 393 -56 522
-52 128 -182 280 -303 352 -32 18 -58 37 -58 40 0 4 16 33 35 65 62 102 79
171 79 321 l1 132 40 42 c68 72 88 89 156 134 76 51 168 90 259 109 97 21 506
21 608 0z m-1524 -168 c105 -51 161 -144 161 -266 0 -85 -21 -142 -74 -203
-82 -92 -237 -121 -353 -64 -160 79 -215 278 -118 430 80 126 246 170 384 103z
m108 -877 c172 -37 310 -175 347 -347 7 -33 11 -172 11 -372 l0 -320 -600 0
-600 0 0 320 c0 196 4 339 11 372 19 88 58 158 124 224 66 65 128 100 210 120
65 16 426 18 497 3z"/>
</g>
</svg>
