<svg xmlns="http://www.w3.org/2000/svg" width="45.842" height="45" viewBox="0 0 45.842 45">
  <defs>
    <style>

      .cls-2 {
        fill: #acacac;
      }


      .cls-4 {
        fill: #acacac;
      }


      .cls-6 {
        fill: #fff;
      }
    </style>
  </defs>
  <g id="brain" transform="translate(-31.828 -34)">
    <circle id="Ellipse_6" data-name="Ellipse 6" class="cls-2" cx="0.795" cy="0.795" r="0.795" transform="translate(70.669 34.757)"/>
    <circle id="Ellipse_7" data-name="Ellipse 7" class="cls-2" cx="0.795" cy="0.795" r="0.795" transform="translate(66.013 43.291)"/>
    <path id="Path_14" data-name="Path 14" class="cls-2" d="M174.5,38.655a2.328,2.328,0,1,1,2.328-2.328A2.33,2.33,0,0,1,174.5,38.655Zm0-3.1a.776.776,0,1,0,.776.776A.776.776,0,0,0,174.5,35.552Z" transform="translate(-113.122)"/>
    <g id="Group_58" data-name="Group 58" transform="translate(31.828 35.519)">
      <path id="Path_16" data-name="Path 16" class="cls-2" d="M49.048,79.915a4.553,4.553,0,0,1-4.1-2.575,4.615,4.615,0,0,1-4.9-4.609v-.005a4.543,4.543,0,0,1-1.121.14,4.623,4.623,0,0,1-4.223-6.382,6.907,6.907,0,0,1,0-11.22,4.623,4.623,0,0,1,4.223-6.382,4.543,4.543,0,0,1,1.121.14v-.005a4.612,4.612,0,0,1,4.9-4.609,4.553,4.553,0,0,1,4.1-2.575,4.6,4.6,0,0,1,4.57,4.621v28.84A4.6,4.6,0,0,1,49.048,79.915Zm-3.607-4.207a.776.776,0,0,1,.738.539,3.012,3.012,0,0,0,5.888-.952V46.454a3.012,3.012,0,0,0-5.888-.952.774.774,0,0,1-.908.52,3.036,3.036,0,0,0-3.669,3,3.092,3.092,0,0,0,.183,1.04.776.776,0,0,1-1.17.9,2.97,2.97,0,0,0-1.686-.523A3.049,3.049,0,0,0,35.91,53.5a3.093,3.093,0,0,0,.465,1.629.777.777,0,0,1-.281,1.086,5.349,5.349,0,0,0,0,9.31.777.777,0,0,1,.281,1.086,3.093,3.093,0,0,0-.465,1.629,3.049,3.049,0,0,0,3.019,3.07,2.972,2.972,0,0,0,1.686-.523.776.776,0,0,1,1.17.9,3.093,3.093,0,0,0-.183,1.04,3.036,3.036,0,0,0,3.669,3A.794.794,0,0,1,45.441,75.708Z" transform="translate(-31.828 -41.833)"/>
    </g>
    <g id="Group_59" data-name="Group 59" transform="translate(38.237 38.082)">
      <path id="Path_17" data-name="Path 17" class="cls-2" d="M95.385,202.526a.776.776,0,1,1,0-1.552,3.073,3.073,0,0,0,3.069-3.069.776.776,0,1,1,1.552,0A4.626,4.626,0,0,1,95.385,202.526Z" transform="translate(-88.841 -169.57)"/>
      <path id="Path_18" data-name="Path 18" class="cls-2" d="M99.231,60.444a.775.775,0,0,1-.776-.776A3.073,3.073,0,0,0,95.386,56.6a.776.776,0,1,1,0-1.552,4.626,4.626,0,0,1,4.621,4.621A.775.775,0,0,1,99.231,60.444Z" transform="translate(-88.842 -55.047)"/>
      <path id="Path_19" data-name="Path 19" class="cls-2" d="M65.967,110.648a.776.776,0,1,1,0-1.552,1.467,1.467,0,1,0,0-2.934h-.32a.776.776,0,0,1,0-1.552h.32a3.019,3.019,0,1,1,0,6.038Z" transform="translate(-64.871 -94.996)"/>
      <path id="Path_20" data-name="Path 20" class="cls-2" d="M68.952,154.956a.775.775,0,0,1-.776-.776v-.161a3.984,3.984,0,0,1,3.98-3.98.776.776,0,0,1,0,1.552,2.431,2.431,0,0,0-2.428,2.428v.161A.775.775,0,0,1,68.952,154.956Z" transform="translate(-67.535 -131.614)"/>
      <path id="Path_21" data-name="Path 21" class="cls-2" d="M95.385,94.869a.776.776,0,0,1,0-1.552,1.148,1.148,0,0,0,1.147-1.146.776.776,0,0,1,1.552,0A2.7,2.7,0,0,1,95.385,94.869Z" transform="translate(-88.841 -84.345)"/>
      <path id="Path_22" data-name="Path 22" class="cls-2" d="M98.27,173.478a3.664,3.664,0,0,1-3.66-3.66.776.776,0,1,1,1.552,0,2.11,2.11,0,0,0,2.108,2.108.776.776,0,0,1,0,1.552Z" transform="translate(-88.842 -146.932)"/>
      <path id="Path_23" data-name="Path 23" class="cls-2" d="M102.864,144.331h-2.074A2.616,2.616,0,0,1,98.1,141.8a2.76,2.76,0,0,0-2.9-2.6h-.516a.776.776,0,0,1,0-1.552h.516a4.31,4.31,0,0,1,4.447,4.147,1.067,1.067,0,0,0,1.136.98h2.074a.776.776,0,1,1,0,1.552Z" transform="translate(-88.281 -121.629)"/>
      <path id="Path_24" data-name="Path 24" class="cls-2" d="M117.385,118.638h-1.916A3.463,3.463,0,0,1,111.9,115.3a.776.776,0,1,1,1.552,0,1.914,1.914,0,0,0,2.016,1.787h1.916a.776.776,0,1,1,0,1.552Z" transform="translate(-102.78 -102.987)"/>
    </g>
    <g id="Group_60" data-name="Group 60" transform="translate(54.394 46.422)">

      <path id="Path_26" data-name="Path 26" class="cls-2" d="M154.413,130.621h-1.626a.777.777,0,0,1-.512-.192c-.872-.767-2.253-2.009-3.87-3.58a.776.776,0,0,1,1.08-1.114c1.466,1.423,2.732,2.572,3.6,3.334h1.04c7.667-6.765,15.772-15.888,15.772-21.437,0-4.432-3.906-8.038-8.707-8.038a8.87,8.87,0,0,0-6.98,3.282.8.8,0,0,1-1.211,0,8.72,8.72,0,0,0-4.278-2.865.776.776,0,0,1,.456-1.483,10.354,10.354,0,0,1,4.426,2.69,10.453,10.453,0,0,1,7.587-3.175c5.657,0,10.259,4.3,10.259,9.589,0,7.7-12.645,19.4-16.52,22.8A.772.772,0,0,1,154.413,130.621Z" transform="translate(-148.169 -98.043)"/>
    </g>
    <g id="Group_61" data-name="Group 61" transform="translate(66.81 49.517)">
      <path id="Path_28" data-name="Path 28" class="cls-2" d="M217.123,117.091a.772.772,0,0,1-.5-.183,6.426,6.426,0,0,0-3.673-1.355.776.776,0,0,1,0-1.552,7.92,7.92,0,0,1,4.669,1.721.776.776,0,0,1-.5,1.369Z" transform="translate(-212.18 -114.001)"/>
    </g>
  </g>
</svg>
