<svg class="img-fluid" id="outputsvg" xmlns="http://www.w3.org/2000/svg" width="512" height="512"
     viewBox="0 0 5120 5120" style="transform: none; transform-origin: 50% 50%; cursor: move; max-height: none;">
    <g id="l4t7eXPswbGHvyF02YKH2TD" fill="#acacac" style="transform: none;">
        <g>
            <path
                  d="M2079 5030 c-93 -16 -170 -75 -208 -160 -25 -55 -28 -155 -6 -207 8 -20 14 -37 13 -38 -2 -1 -23 -13 -48 -27 -59 -34 -94 -72 -120 -131 -40 -89 -21 -217 42 -284 l21 -23 -20 -22 c-63 -69 -83 -188 -48 -280 6 -15 -21 -17 -337 -20 -333 -3 -344 -4 -393 -26 -106 -49 -165 -139 -165 -252 0 -113 59 -203 165 -252 50 -23 51 -23 623 -28 l573 -5 23 -56 c58 -143 170 -229 329 -251 111 -16 606 -4 687 17 182 45 347 170 449 338 l23 37 117 0 118 0 6 -57 c4 -38 13 -63 27 -77 20 -21 27 -21 530 -21 l509 0 23 23 23 23 0 749 0 749 -23 23 -23 23 -509 0 c-503 0 -510 0 -530 -21 -14 -14 -23 -39 -27 -77 l-6 -57 -118 0 -117 0 -23 38 c-75 123 -187 226 -313 287 -140 67 -145 68 -711 71 -280 1 -531 -1 -556 -6z m527 -184 c30 -30 34 -40 34 -86 0 -46 -4 -56 -34 -86 l-34 -34 -252 0 -252 0 -34 34 c-30 30 -34 40 -34 86 0 46 4 56 34 86 l34 34 252 0 252 0 34 -34z m578 19 c149 -39 284 -147 356 -286 50 -96 57 -99 241 -99 l139 0 0 -480 0 -480 -139 0 c-184 0 -191 -3 -242 -100 -50 -97 -137 -186 -227 -233 -124 -65 -141 -67 -494 -67 -350 0 -354 1 -423 61 -70 62 -75 83 -75 352 l0 239 34 34 c30 30 40 34 85 34 42 0 56 -5 83 -29 l33 -29 5 -186 c7 -248 -11 -231 240 -231 237 0 229 -5 239 144 7 90 11 106 37 143 16 24 49 56 73 73 41 29 47 30 167 33 l124 4 0 79 0 79 -67 0 c-173 -1 -275 -34 -363 -116 -62 -58 -112 -155 -118 -230 l-4 -54 -83 0 -83 0 -4 123 c-5 107 -3 124 13 142 79 88 77 266 -3 353 l-21 22 21 23 c11 12 30 42 41 67 40 88 21 221 -41 288 l-21 22 21 23 c54 58 81 187 53 261 -6 15 -11 29 -11 32 0 2 80 4 178 4 127 0 194 -4 236 -15z m1696 -865 l0 -640 -400 0 -400 0 0 640 0 640 400 0 400 0 0 -640z m-2274 446 c30 -30 34 -40 34 -86 0 -46 -4 -56 -34 -86 l-34 -34 -332 0 -332 0 -34 34 c-30 30 -34 40 -34 86 0 46 4 56 34 86 l34 34 332 0 332 0 34 -34z m0 -400 c29 -29 34 -41 34 -80 0 -44 -11 -59 -26 -35 -3 6 -30 22 -58 35 -70 33 -162 33 -231 0 -47 -21 -125 -94 -125 -116 0 -6 -56 -10 -146 -10 l-146 0 -34 34 c-30 30 -34 40 -34 86 0 46 4 56 34 86 l34 34 332 0 332 0 34 -34z m-446 -486 l0 -120 -440 0 -440 0 0 80 0 80 -80 0 -80 0 0 -80 0 -80 -46 0 c-39 0 -51 5 -80 34 -30 30 -34 40 -34 86 0 46 4 56 34 86 l34 34 566 0 566 0 0 -120z"></path>
            <path
                  d="M988 4789 c-147 -23 -260 -156 -260 -308 0 -94 20 -135 153 -313 158 -211 160 -211 317 0 137 182 151 213 152 313 0 65 -4 85 -30 137 -63 125 -193 193 -332 171z m140 -169 c48 -29 72 -75 72 -138 0 -29 -5 -63 -12 -75 -20 -38 -139 -192 -148 -192 -9 0 -128 154 -148 192 -7 12 -12 46 -12 75 0 98 60 158 160 158 37 0 66 -6 88 -20z"></path>
            <path
                  d="M864 3113 c-12 -2 -30 -13 -40 -25 -17 -18 -19 -44 -22 -314 l-3 -294 -147 0 c-81 -1 -178 -5 -216 -9 -183 -24 -323 -164 -347 -349 -11 -87 -11 -1597 0 -1684 24 -185 164 -325 347 -349 90 -11 1278 -11 1368 0 183 24 323 164 347 349 11 87 11 1597 0 1684 -24 185 -164 325 -347 349 -38 4 -135 8 -216 9 l-147 0 -3 295 c-3 291 -3 295 -26 317 -22 23 -27 23 -275 24 -138 1 -262 0 -273 -3z m416 -233 l0 -80 -160 0 -160 0 0 80 0 80 160 0 160 0 0 -80z m0 -320 l0 -80 -160 0 -160 0 0 80 0 80 160 0 160 0 0 -80z m585 -259 c46 -20 101 -79 121 -127 12 -28 14 -186 14 -894 0 -943 3 -891 -61 -965 -69 -78 -27 -75 -817 -75 -770 0 -734 -3 -807 61 -79 70 -75 8 -75 977 0 710 2 868 14 896 20 48 71 101 119 125 41 21 51 21 747 21 660 0 708 -2 745 -19z"></path>
            <path
                  d="M982 2120 c-33 -17 -75 -47 -93 -67 -42 -48 -79 -129 -79 -174 l0 -36 -115 -6 c-103 -5 -121 -8 -168 -35 -73 -41 -113 -108 -122 -205 -4 -40 -5 -283 -3 -542 l3 -470 31 -55 c36 -65 107 -114 180 -124 61 -8 947 -8 1008 0 73 10 144 59 180 124 l31 55 3 470 c2 259 1 502 -3 542 -9 97 -49 164 -122 205 -47 27 -65 30 -168 35 l-115 6 0 37 c0 49 -52 151 -97 191 -99 86 -237 105 -351 49z m226 -140 c48 -30 72 -75 72 -140 0 -100 -60 -160 -160 -160 -100 0 -160 60 -160 160 0 65 24 110 72 140 45 27 131 27 176 0z m-325 -344 c22 -27 61 -56 98 -75 53 -27 73 -31 139 -31 66 0 86 4 138 31 38 19 76 47 98 75 l36 44 121 0 c110 0 123 -2 144 -22 l23 -21 0 -519 c0 -505 -1 -519 -20 -538 -19 -19 -33 -20 -540 -20 -507 0 -521 1 -540 20 -19 19 -20 33 -20 540 0 507 1 521 20 540 18 18 33 20 143 20 l123 0 37 -44z"></path>
        </g>
    </g>
</svg>
