<svg xmlns="http://www.w3.org/2000/svg" width="45" height="45" viewBox="0 0 45 45">
  <defs>
    <style>
      .cls-1 {
        isolation: isolate;
      }

      .cls-2 {
        fill: #acacac;
      }
    </style>
  </defs>
  <g id="Outline" class="cls-1" transform="translate(-16 -16)">
    <path id="Path_67" data-name="Path 67" class="cls-2" d="M49,262.5H25.454l-2.1-4,2.059-1.373-.832-1.248-1.927,1.284-.562-1.073,1.821-1.214-.832-1.248-1.689,1.126-1.629-3.111,1.9-1.267a.75.75,0,0,0,.255-.959l-1.031-2.062a3.852,3.852,0,0,1,2.309,1.972l1.881,3.76a.75.75,0,0,0,1.421-.335V240H25v9.574l-.459-.919a5.416,5.416,0,0,0-4.972-2.978,5.326,5.326,0,0,0-3.3,1.248.75.75,0,0,0-.184.924l8.25,15.75A.75.75,0,0,0,25,264H49.75a.75.75,0,0,0,.75-.75v-4.5H49ZM17.716,247.729a3.814,3.814,0,0,1,1.428-.513l1.139,2.277-1.218.811Z" transform="translate(0 -203)"/>
    <path id="Path_68" data-name="Path 68" class="cls-2" d="M104.75,40a3.726,3.726,0,0,0-2.652,1.1,3.8,3.8,0,0,0-.35.4,3.749,3.749,0,0,0-5.65-.4,3.8,3.8,0,0,0-.35.4,3.75,3.75,0,0,0-5.248-.752V35.5a3,3,0,0,0,3-3V30.25H92V32.5A1.5,1.5,0,0,1,90.5,34H83a1.5,1.5,0,0,1-1.5-1.5V19A1.5,1.5,0,0,1,83,17.5h7.5A1.5,1.5,0,0,1,92,19v5.25h1.5V19a3,3,0,0,0-3-3H83a3,3,0,0,0-3,3V32.5a3,3,0,0,0,3,3h6v8.25a.75.75,0,1,0,1.5,0,2.25,2.25,0,1,1,4.5,0,.75.75,0,0,0,1.5,0,2.25,2.25,0,1,1,4.5,0,.75.75,0,0,0,1.5,0,2.25,2.25,0,1,1,4.5,0v10.5h1.5V43.75A3.754,3.754,0,0,0,104.75,40Z" transform="translate(-58)"/>
    <path id="Path_69" data-name="Path 69" class="cls-2" d="M112.75,48a.75.75,0,0,0-.75.75v12a.75.75,0,0,0,.75.75h6a.75.75,0,0,0,.75-.75v-12a.75.75,0,0,0-.75-.75ZM118,60h-4.5V58.5H118Zm0-3h-4.5V49.5H118Z" transform="translate(-87 -29)"/>
    <rect id="Rectangle_22" data-name="Rectangle 22" class="cls-2" width="2" height="1" transform="translate(28 22)"/>
    <rect id="Rectangle_23" data-name="Rectangle 23" class="cls-2" width="2" height="1" transform="translate(28 25)"/>
    <path id="Path_70" data-name="Path 70" class="cls-2" d="M227.75,31V19.75A3.754,3.754,0,0,0,224,16H207.5a3.754,3.754,0,0,0-3.75,3.75v4.825l-3.386,2.031a.75.75,0,0,0,0,1.286l3.386,2.031V34.75a3.754,3.754,0,0,0,3.75,3.75H224a3.754,3.754,0,0,0,3.75-3.75V32.5h-1.5v2.25A2.253,2.253,0,0,1,224,37H207.5a2.253,2.253,0,0,1-2.25-2.25V29.5a.75.75,0,0,0-.364-.643l-2.678-1.607,2.678-1.607A.75.75,0,0,0,205.25,25V19.75a2.253,2.253,0,0,1,2.25-2.25H224a2.253,2.253,0,0,1,2.25,2.25V31Z" transform="translate(-166.75)"/>
    <path id="Path_71" data-name="Path 71" class="cls-2" d="M272,68.656h1.561a4.757,4.757,0,0,0,.4.428l6.489,6.118a.75.75,0,0,0,1.027,0l6.537-6.112a4.773,4.773,0,0,0,.411-.436H290v-1.5h-.732a4.756,4.756,0,0,0-7.623-5.126l-.677.589-.62-.546a4.743,4.743,0,0,0-7.625,5.083H272Zm8.968,4.971-5.273-4.971h1.556a.75.75,0,0,0,.624-.334l.783-1.175,1.672,3.344a.75.75,0,0,0,.671.415h.039a.75.75,0,0,0,.663-.486l1.57-4.187.781,1.953a.75.75,0,0,0,.7.471h1.535Zm-6.888-8.82a3.222,3.222,0,0,1,2.19-2.276,3.264,3.264,0,0,1,.953-.143,3.222,3.222,0,0,1,2.134.81l1.113.979a.75.75,0,0,0,.988,0l1.172-1.02a3.256,3.256,0,0,1,5.007,3.995h-2.379l-1.311-3.279a.75.75,0,0,0-1.4.015l-1.646,4.39-1.481-2.962a.75.75,0,0,0-1.295-.081l-1.277,1.916h-2.5A3.24,3.24,0,0,1,274.079,64.808Z" transform="translate(-232 -40.656)"/>
    <rect id="Rectangle_24" data-name="Rectangle 24" class="cls-2" width="1.5" height="4.243" transform="translate(16.219 19.53) rotate(-45)"/>
    <rect id="Rectangle_25" data-name="Rectangle 25" class="cls-2" width="4.243" height="1.5" transform="translate(16.219 31.97) rotate(-45)"/>
    <rect id="Rectangle_26" data-name="Rectangle 26" class="cls-2" width="3" height="1" transform="translate(16 25)"/>
  </g>
</svg>
