<?xml version="1.0" encoding="utf-8"?>
<!DOCTYPE svg PUBLIC "-//W3C//DTD SVG 20010904//EN" "http://www.w3.org/TR/2001/REC-SVG-20010904/DTD/svg10.dtd">
<svg version="1.0" xmlns="http://www.w3.org/2000/svg" width="512px" height="512px" viewBox="0 0 512 512" preserveAspectRatio="xMidYMid meet">
 <g fill="#acacac">
  <path d="M160.2 489.8 c-24.4 -33.3 -39.2 -55.1 -39.2 -57.8 0 -2.2 3.3 -7.5 12.8 -20.7 22.5 -31.2 69.3 -99.7 70.8 -103.7 0.2 -0.6 -2.5 -6.6 -6.2 -13.1 -25 -45.3 -44.6 -92.1 -52 -124.5 -6.4 -28 -0.1 -72.9 13.8 -99 8.3 -15.6 18.7 -27 33.6 -36.8 30.6 -20 72.9 -23.6 107.7 -9.1 8.9 3.7 22.7 12.5 30.1 19.2 22.4 20.3 34.7 53.1 36.1 96.2 0.4 14.8 0.2 18.3 -1.6 27.1 -6.3 30.5 -26.6 79.9 -51.8 125.7 l-7.5 13.8 14.7 22.2 c18.2 27.3 39.8 58.5 56.7 81.9 10.3 14.3 12.8 18.4 12.8 21 -0.1 2.7 -4.3 9.2 -21.3 32.8 l-21.2 29.5 -4.1 0.3 -4.1 0.3 -11.5 -13.8 c-22.3 -26.8 -51.7 -65 -67.8 -88 -2.4 -3.5 -4.6 -6.3 -4.9 -6.3 -0.4 0.1 -6.5 8.3 -13.7 18.3 -15.8 21.9 -37.7 50.2 -56.6 73 -13.7 16.4 -14 16.7 -17.8 16.7 -3.6 0 -4.3 -0.5 -7.8 -5.2z m24.3 -33.4 c69 -85.5 120.4 -167.6 149.7 -239.4 6.7 -16.4 15 -41.6 16.8 -50.8 l1.3 -6.2 -4.9 -8 c-5.7 -9.5 -15.2 -20.2 -23.6 -26.6 -3.2 -2.5 -6 -4.5 -6.2 -4.3 -0.1 0.2 -1.4 4.9 -3 10.4 -8.7 32 -35.8 85.9 -75.1 149.5 -17.7 28.7 -60.9 93.2 -83.8 125.3 -9.7 13.7 -17.7 25.3 -17.7 25.8 0 0.6 6.1 9.7 13.7 20.2 14.4 20.2 16.2 22.7 17.2 22.7 0.3 -0.1 7.4 -8.4 15.6 -18.6z m174.7 -2.5 c8.1 -11.2 14.7 -21 14.8 -21.6 0 -0.7 -6.7 -10.6 -14.8 -22 -16.1 -22.7 -37.9 -54.2 -51.7 -75.1 -4.9 -7.3 -9.2 -12.9 -9.6 -12.5 -0.4 0.5 -5 7.6 -10.1 15.8 -5.2 8.3 -12.4 19.5 -16 24.9 l-6.7 9.9 2.2 3.1 c18.8 26.9 39.1 53.7 59.1 78.4 7.8 9.6 14.5 18 15.1 18.8 0.5 0.8 1.4 1.3 2 1.1 0.5 -0.2 7.6 -9.5 15.7 -20.8z m-136.7 -173.9 c10.7 -16.9 24.5 -40 24.5 -40.9 0 -0.4 -3.6 -7.3 -8.1 -15.2 -21.6 -38.6 -38.4 -77.5 -44.3 -102.3 -0.3 -1.5 -15.3 11.1 -20.4 17.2 -2.7 3.3 -7 9.4 -9.7 13.6 l-4.7 7.7 1.2 6.2 c1.8 9.4 13 42.4 20 58.7 9.1 21.2 31.9 67 33.5 67 0.2 0 3.8 -5.4 8 -12z m38.7 -65.2 c20.8 -37.6 35.4 -71 40.3 -91.9 1 -4.2 1.5 -8.4 1.2 -9.2 -0.8 -2.1 -16.9 -7.2 -27.5 -8.7 -13.4 -2 -38.5 -0.8 -49.7 2.3 -13.3 3.8 -16.5 5.3 -16.5 8 0 3.9 5.1 20.8 10.1 33.7 7.1 18.2 34.9 74 36.9 74 0.3 0 2.7 -3.7 5.2 -8.2z m-80.7 -101.9 c19 -14.3 38.8 -21.8 63.1 -24 40 -3.6 79.2 10.7 103.2 37.6 l5.2 5.9 0 -4 c0 -10.5 -5.3 -33.1 -10.5 -44.7 -11.6 -26.2 -34.2 -44 -64 -50.3 -9.5 -2 -33.8 -2 -43 0 -30.9 6.7 -53.4 24.9 -64.9 52.5 -5 11.9 -9.6 31.9 -9.6 41.9 l0 4.5 7.3 -7.5 c3.9 -4.1 9.9 -9.5 13.2 -11.9z"/>
 </g>
</svg>
