<?xml version="1.0" encoding="utf-8"?>
<!DOCTYPE svg PUBLIC "-//W3C//DTD SVG 20010904//EN" "http://www.w3.org/TR/2001/REC-SVG-20010904/DTD/svg10.dtd">
<svg version="1.0" xmlns="http://www.w3.org/2000/svg" width="512px" height="512px" viewBox="0 0 512 512" preserveAspectRatio="xMidYMid meet">
 <g fill="#acacac">
  <path d="M197 411 c0 -55.5 -0.1 -101 -0.2 -101 -0.2 0 -6.2 5.8 -13.4 12.8 -19.2 18.7 -32.1 26.5 -52.3 32 -13.1 3.5 -34.2 3.7 -47.1 0.5 -20.4 -5.1 -35.9 -14.4 -52.2 -31.1 -14.7 -15.2 -22.3 -27.7 -27.3 -44.7 -4.2 -14.4 -4.7 -28.2 -4.2 -110 0.4 -81.5 0.3 -79.8 6.3 -96.9 8.6 -24.7 32.9 -51.1 57.5 -62.5 26.4 -12.3 58.5 -12.3 84.6 -0.1 12.9 6 18.8 10.4 34.1 25.5 19.6 19.1 25.2 28 28.7 45.4 3.5 17 -0.7 37.3 -10.4 51.5 l-3.1 4.5 5.8 6.8 c23.5 27.4 38.6 63.6 42.2 100.8 0.6 7 1 58.1 1 139.3 l0 128.2 -25 0 -25 0 0 -101z m34 -34.7 c0 -121.9 -0.3 -132.1 -4 -150.3 -5.2 -24.6 -17.6 -50.6 -33.2 -69.5 -2.8 -3.3 -5.4 -6.1 -5.8 -6.3 -1.2 -0.4 -5.4 7.3 -7.6 13.8 -1.3 3.9 -1.9 8.4 -1.9 15.5 0 15.2 3.1 22.6 15.5 37.5 7.5 9 11.5 15.5 14.4 23.3 4.6 12.4 4.6 11.3 4.6 136.4 l0 118.3 9 0 9 0 0 -118.7z m-103.4 -37.3 c9.7 -2.5 20.7 -7.6 28.8 -13.4 3.4 -2.4 11.8 -10.2 18.7 -17.2 14.1 -14.4 17.8 -20.5 20.5 -33.4 2.6 -12.5 0.4 -26.6 -6.1 -37.7 -1.4 -2.3 -5.4 -7.5 -8.9 -11.5 -3.4 -4 -7.3 -9.1 -8.6 -11.3 -1.3 -2.2 -2.5 -4.2 -2.7 -4.5 -0.2 -0.2 -8.2 7.4 -17.8 17 l-17.5 17.5 -5.7 -5.8 -5.8 -5.7 19.9 -19.9 20 -20 0.1 -13.8 0 -13.8 -19.7 -20 -19.8 -20 5.5 -5.5 5.5 -5.5 16.8 16.8 c9.2 9.2 17.2 16.7 17.8 16.7 0.6 0 2 -1.7 3.2 -3.7 1.1 -2.1 5.3 -7.6 9.2 -12.2 11.6 -13.6 15.5 -23.3 15.4 -38.1 0 -18.3 -4.6 -27.3 -22.8 -45.5 -14.4 -14.3 -23.2 -20.8 -34.9 -25.5 -12.2 -4.9 -21.3 -6.3 -35.7 -5.7 -24.8 1 -41 8.7 -60.1 28.3 -9.8 10.1 -15.4 18.2 -19.7 28.7 -6.3 15.1 -6.3 14.4 -6 108.7 l0.3 85.5 2.4 7 c5.9 17.6 15.8 32.1 30.8 45 21.8 18.8 49.6 25.4 76.9 18.5z"/>
  <path d="M265 383.8 c0 -81.2 0.4 -132.3 1 -139.3 3.6 -37.1 18.4 -72.7 41.7 -100.3 l6.3 -7.4 -3.1 -4.4 c-9.7 -14.2 -13.9 -34.5 -10.4 -51.5 3.5 -17.4 9.1 -26.3 28.7 -45.4 15.3 -15.1 21.2 -19.5 34.1 -25.5 26.1 -12.2 58.2 -12.2 84.6 0.1 24.6 11.4 48.9 37.8 57.5 62.5 6 17.1 5.9 15.4 6.3 96.9 0.5 81.8 0 95.6 -4.2 110 -5 17 -12.6 29.5 -27.3 44.7 -16.3 16.7 -31.8 26 -52.2 31.1 -12.9 3.2 -34 3 -47.1 -0.5 -20.2 -5.5 -33.1 -13.3 -52.3 -32 -7.2 -7 -13.2 -12.8 -13.3 -12.8 -0.2 0 -0.3 45.5 -0.3 101 l0 101 -25 0 -25 0 0 -128.2z m34 -7.1 c0 -125.1 0 -124 4.6 -136.4 2.9 -7.8 6.9 -14.3 14.4 -23.3 12.4 -14.9 15.5 -22.3 15.5 -37.5 0 -7.1 -0.6 -11.6 -1.9 -15.5 -2.2 -6.5 -6.4 -14.2 -7.6 -13.8 -0.4 0.2 -3 3 -5.8 6.3 -15.6 18.9 -28 44.9 -33.2 69.5 -3.7 18.2 -4 28.4 -4 150.3 l0 118.7 9 0 9 0 0 -118.3z m127.6 -37.7 c28.7 -7.2 55.2 -32.9 65.5 -63.5 l2.4 -7 0.3 -85.5 c0.3 -94.3 0.3 -93.6 -6 -108.7 -4.3 -10.5 -9.9 -18.6 -19.7 -28.7 -19.1 -19.6 -35.3 -27.3 -60.1 -28.3 -14.4 -0.6 -23.5 0.8 -35.7 5.7 -11.7 4.7 -20.5 11.2 -34.9 25.5 -18.2 18.2 -22.8 27.2 -22.8 45.5 -0.1 14.8 3.8 24.5 15.4 38.1 3.9 4.6 8.1 10.1 9.2 12.2 1.2 2 2.6 3.7 3.2 3.7 0.6 0 8.6 -7.5 17.8 -16.7 l16.8 -16.8 5.5 5.5 5.5 5.5 -19.7 19.7 -19.6 19.7 -0.1 13.8 -0.1 13.9 19.3 15.4 c10.5 8.4 19.2 15.6 19.2 15.8 0 0.7 -8.1 11.1 -9 11.7 -0.4 0.3 -8.4 -5.6 -17.6 -13 -9.3 -7.4 -17.2 -13.5 -17.6 -13.5 -0.3 0 -1.8 2.1 -3.4 4.8 -1.5 2.6 -5.8 8.3 -9.6 12.7 -8 9.2 -12.2 17.2 -14.3 27 -1.8 8.8 -1.8 13.2 0 22 2.6 12.4 6.5 18.6 20.4 32.9 17.4 17.7 27.7 24.7 43.6 29.5 14.8 4.5 31 4.9 46.1 1.1z"/>
 </g>
</svg>
