<svg xmlns="http://www.w3.org/2000/svg" width="47.653" height="47.333" viewBox="0 0 47.653 47.333">
  <defs>
    <style>

      .cls-5 {
        fill: #acacac;
      }
    </style>
  </defs>
  <g id="endocrine-system" transform="translate(0 -1.715)">



    <g id="Group_69" data-name="Group 69" transform="translate(0 1.715)">
      <path id="Path_36" data-name="Path 36" class="cls-5" d="M147.954,18l-.63-.888a17.694,17.694,0,0,0-8.492-6.542l-.015-.005-5.754-1.93a3.255,3.255,0,0,1-2.58-2.922l-.445-3.195a.931.931,0,1,0-1.844.257l.311,2.233a2.929,2.929,0,0,0-2.95.168l-.484.322a1.529,1.529,0,0,1-1.5,0l-.484-.322a2.929,2.929,0,0,0-2.979-.153l.25-2.274a.931.931,0,0,0-1.85-.2l-.351,3.195v.01c-.141,1.423-.964,2.313-2.674,2.886l-4.072,1.388a.931.931,0,1,0,.6,1.762l4.068-1.387a6.637,6.637,0,0,0,2.442-1.376v.3a2.947,2.947,0,0,0,4.6,2.394l.461-.322a1.444,1.444,0,0,1,1.486,0l.461.322a2.921,2.921,0,0,0,4.6-2.394V9.062a6.193,6.193,0,0,0,2.348,1.337l5.746,1.927a15.844,15.844,0,0,1,7.589,5.863l.458.646v7.409l-5.938-5.091a2.677,2.677,0,0,0-4.3,1.619l-.425,2.107c-.262,1.3-.49,2.292-.74,3.219a17.307,17.307,0,0,0-.385,7.107l.72,4.632a28.815,28.815,0,0,1,.147,6.08l-.2,2.11a.931.931,0,0,0,.837,1.016c.031,0,.061,0,.091,0a.931.931,0,0,0,.925-.841l.2-2.11a30.509,30.509,0,0,0-.16-6.546l-.72-4.632a15.429,15.429,0,0,1,.343-6.337c.261-.968.5-2,.768-3.336l.422-2.093c.135-.566.747-1.018,1.27-.584l7.47,6.4a.931.931,0,0,0,1.537-.707V18.538A.931.931,0,0,0,147.954,18ZM128.261,9.318a1.06,1.06,0,0,1-1.667.868l-.461-.322a3.294,3.294,0,0,0-3.619,0l-.461.322a1.068,1.068,0,0,1-1.667-.869V7.634a1.1,1.1,0,0,1,1.674-.909l.484.322a3.389,3.389,0,0,0,3.559,0l.484-.322a1.1,1.1,0,0,1,1.674.909Z" transform="translate(-100.473 -1.715)"/>
      <path id="Path_37" data-name="Path 37" class="cls-5" d="M12.359,142.149l-.206-1.3a2.676,2.676,0,0,0-4.306-1.657l-5.986,5.132v-7.383l.506-.713a17,17,0,0,1,2.422-2.74.931.931,0,1,0-1.252-1.377,18.869,18.869,0,0,0-2.689,3.041l-.678.955a.931.931,0,0,0-.172.538v9.7a.931.931,0,0,0,1.537.706l7.518-6.446c.517-.429,1.126.008,1.266.567l.2,1.262c.237,1.495.548,3.064.924,4.664a15.477,15.477,0,0,1,.221,5.856q0,.019-.005.037l-.526,4.614a30.549,30.549,0,0,0-.157,6.526l.2,2.11a.931.931,0,0,0,.925.841c.03,0,.06,0,.091,0a.931.931,0,0,0,.837-1.016l-.2-2.11a28.816,28.816,0,0,1,.147-6.08q0-.019.005-.037l.526-4.614a17.113,17.113,0,0,0-.251-6.548c-.365-1.556-.667-3.081-.9-4.531Z" transform="translate(0 -119.757)"/>
      <path id="Path_38" data-name="Path 38" class="cls-5" d="M179.23,264.895a3.144,3.144,0,0,0-5.995.275,6.391,6.391,0,0,1-.749-2.984v-.64a3.707,3.707,0,0,0,1.912-1.193,1.1,1.1,0,0,1,.576-.349L175,260l3.166-.9a2.491,2.491,0,0,0-.623-4.9h-6.058a3.732,3.732,0,0,0-.865,7.344v.644a6.4,6.4,0,0,1-.78,3.042,3.144,3.144,0,0,0-6.009-.333l-.508,1.393a7.33,7.33,0,0,0,0,5.012l.508,1.393a3.144,3.144,0,0,0,6.1-1.077v-3.46a8.531,8.531,0,0,0,1.621-2.19,8.53,8.53,0,0,0,1.576,2.145v3.5a3.144,3.144,0,0,0,6.1,1.077l.508-1.393a7.33,7.33,0,0,0,0-5.012Zm-11.158,6.722a1.283,1.283,0,0,1-2.488.439l-.508-1.393a5.465,5.465,0,0,1,0-3.738l.508-1.393a1.283,1.283,0,0,1,2.488.439v1.342a6.544,6.544,0,0,1-1.084.682.931.931,0,1,0,.831,1.666q.128-.064.253-.132Zm1.625-13.528a1.884,1.884,0,0,1,1.792-2.03h6.058a.629.629,0,0,1,.154,1.239l-.027.007-3.163.9a2.945,2.945,0,0,0-1.528.942,1.87,1.87,0,0,1-3.286-1.055Zm8.292,12.574-.508,1.393a1.283,1.283,0,0,1-2.488-.439V269.5c.1.054.2.107.3.157a.931.931,0,0,0,.831-1.666,6.541,6.541,0,0,1-1.129-.717v-1.308a1.283,1.283,0,0,1,2.488-.439l.508,1.393A5.465,5.465,0,0,1,177.989,270.663Z" transform="translate(-147.725 -230.699)"/>
      <path id="Path_39" data-name="Path 39" class="cls-5" d="M204.382,154.6a2.82,2.82,0,0,0,1.9-.735,2.82,2.82,0,0,0,1.9.735,3.435,3.435,0,0,0,3.431-3.431v-1.576a2.331,2.331,0,0,0-3.183-2.134l-.52.213a3.912,3.912,0,0,0-1.629,1.312,3.913,3.913,0,0,0-1.629-1.312l-.52-.213a2.331,2.331,0,0,0-3.183,2.134v1.576A3.435,3.435,0,0,0,204.382,154.6Zm4.236-5.206.52-.213a.449.449,0,0,1,.615.412v1.576a1.571,1.571,0,0,1-1.57,1.57.971.971,0,0,1-.97-.97A2.7,2.7,0,0,1,208.619,149.394Zm-5.806.2a.449.449,0,0,1,.615-.412l.52.213a2.7,2.7,0,0,1,1.405,2.375.971.971,0,0,1-.97.97,1.571,1.571,0,0,1-1.57-1.57v-1.576Z" transform="translate(-182.248 -133.741)"/>
      <path id="Path_40" data-name="Path 40" class="cls-5" d="M70.81,107.761a.93.93,0,1,0,.4-1.165.938.938,0,0,0-.4,1.165Z" transform="translate(-64.157 -96.727)"/>
    </g>
  </g>
</svg>
