<?xml version="1.0" encoding="utf-8"?>
<!DOCTYPE svg PUBLIC "-//W3C//DTD SVG 20010904//EN" "http://www.w3.org/TR/2001/REC-SVG-20010904/DTD/svg10.dtd">
<svg version="1.0" xmlns="http://www.w3.org/2000/svg" width="512px" height="512px" viewBox="0 0 512 512" preserveAspectRatio="xMidYMid meet">
 <g fill="#acacac">
  <path d="M161.7 509.8 c-3.5 -2.7 -3.7 -6.3 -3.7 -57.7 l0 -50.9 -22.7 -0.4 c-20.4 -0.4 -23.4 -0.7 -28.4 -2.7 -10.9 -4.2 -20.1 -14 -23.4 -24.8 -1.9 -6.2 -1.9 -22.5 -0.1 -28.6 0.8 -2.6 4.2 -9.5 7.7 -15.4 26.1 -44.9 61.6 -84 104.7 -115.3 7.2 -5.2 13.1 -9.7 13.1 -10 0 -0.3 -2.3 -2.1 -5.1 -4 -7.8 -5.3 -20 -18 -26.2 -27.4 -13 -19.4 -18.9 -38.7 -18.8 -61.6 0 -35 15.8 -67.1 43.1 -87.5 20.5 -15.5 41.3 -22.5 66.6 -22.5 31.5 0 58.6 11.6 80.2 34.3 12.9 13.6 22.1 30.1 27 48.4 2.3 8.6 2.6 11.8 2.7 26.3 0.1 10.7 -0.4 18.4 -1.2 22 -5.9 23.7 -13.9 39.1 -28.8 54.9 l-7.5 8 18.3 12.2 c28.2 18.9 43.5 35.2 55.6 59.4 5.1 10.2 9.6 23.1 12.8 36.5 1.7 6.9 1.8 15.5 2.1 105.4 l0.4 97.9 -2.2 2.4 c-4 4.2 -10.9 2.7 -12.8 -2.8 -0.8 -2.3 -1.1 -30.3 -1.1 -94.1 0 -60 -0.4 -93.4 -1.1 -98.1 -4.3 -28.6 -16.3 -53.1 -35.4 -72.3 -6.6 -6.6 -17.3 -15 -18 -14.2 -0.3 0.3 -2.5 5.9 -4.9 12.4 -14.1 38.8 -31.7 71.1 -58.6 107.4 l-10.8 14.5 -0.4 7 c-0.9 16.5 -12 28.8 -28.4 31.5 -3.3 0.6 -23.1 1 -44.1 1 l-38.3 0 0 52.8 0 52.9 -2.3 2.1 c-2.6 2.4 -7.4 2.9 -10 1z m12.3 -127 c0 -2.6 -2.9 -28.4 -3.6 -31.5 -0.4 -2.3 -0.6 -2.3 -16.6 -2.3 -15.2 0 -16.3 -0.1 -18.5 -2.2 -3.2 -3 -3.1 -7.7 0.3 -10.9 2.4 -2.3 3.3 -2.4 17.5 -2.7 10.6 -0.3 14.9 -0.7 14.9 -1.5 0.1 -3.6 -7.6 -65.7 -8.1 -65.7 -1.1 0 -18.2 19 -26.7 29.7 -8.9 11.3 -22.3 31.1 -29.8 44.2 -4.6 8 -4.9 8.9 -5.3 17 -0.4 10 0.9 14.9 5.1 19.7 3.7 4.2 7.9 6.5 13.3 7.5 2.2 0.3 16 0.7 30.8 0.8 26.7 0.1 26.7 0.1 26.7 -2.1z m58.2 1.7 c0.7 -0.7 -36.5 -149.5 -37.3 -149.5 -0.9 0 -15.9 12.2 -18.1 14.6 -1.6 1.9 -1.3 5.4 5.8 66.4 4.1 35.5 7.7 65.5 7.9 66.8 0.5 2.2 0.6 2.2 20.9 2.2 11.1 0 20.5 -0.2 20.8 -0.5z m27.9 -2.1 c12.1 -6.1 11.5 -25.9 -0.9 -31.1 -3.8 -1.6 -18.2 -3.1 -18.2 -1.9 0 0.8 7.8 32.4 8.5 34.3 0.5 1.4 6.7 0.7 10.6 -1.3z m25.1 -47.6 c23.3 -31.5 41.6 -65.4 54.2 -100.2 6.9 -19 7.2 -17.1 -3.4 -23.8 l-9 -5.7 -10.2 4.9 c-15.1 7.2 -26.4 10 -42.8 10.7 -15.8 0.6 -24.4 -0.4 -38.7 -4.9 l-10.2 -3.1 -5.3 3.7 c-2.9 2 -6.4 4.5 -7.8 5.5 l-2.4 1.9 13.4 54.5 13.5 54.4 11.3 0.6 c9.8 0.5 12.1 0.9 17.5 3.5 3.4 1.6 7.3 4.1 8.7 5.5 1.4 1.4 2.7 2.6 3 2.6 0.3 0.1 4 -4.5 8.2 -10.1z m7.1 -132.7 c8.9 -2.3 22.3 -8.3 29.4 -13.2 6.9 -4.7 18.8 -16.4 23.9 -23.6 16.5 -23 21.6 -56 12.8 -83 -2.3 -7.2 -7.9 -19.3 -8.9 -19.3 -0.4 0 -97.1 50.6 -164.8 86.2 -1.6 0.8 -1.6 1.1 0.4 5.1 9.2 17.9 26.4 34.2 45.3 42.6 5.4 2.5 16.7 5.8 25.6 7.5 6 1.1 28.7 -0.3 36.3 -2.3z m-32.6 -110.3 l80.5 -42.2 -7 -6.9 c-5.1 -4.9 -7.6 -6.7 -8.9 -6.3 -1 0.3 -34.9 14.5 -75.3 31.5 l-73.5 31 -0.3 10.8 c-0.3 11.3 1.3 24.3 3 24.3 0.5 0 37.2 -19 81.5 -42.2z m-53.2 -23.3 c12.7 -5.3 23.2 -9.8 23.4 -10 0.2 -0.2 -6 -3.5 -13.7 -7.4 l-14.1 -7.1 -4.4 5.3 c-5.6 6.5 -11.2 15.3 -14.3 22.4 -2.7 6 -3 7.8 -1.1 7 0.6 -0.3 11.6 -4.9 24.2 -10.2z m71.9 -30.3 c15.3 -6.4 27.8 -12.1 27.8 -12.7 -0.1 -1.5 -11.7 -5.4 -21.5 -7.1 -11.9 -2.1 -28 -1.4 -39.8 1.6 -8.4 2.1 -26.9 10.6 -27.6 12.5 -0.2 0.8 30.7 17.3 32.7 17.4 0.3 0 13 -5.2 28.4 -11.7z"/>
  <path d="M246.3 167.8 c-1.1 -1.3 -2.2 -3 -2.5 -3.9 -0.9 -2.5 1.9 -7.8 4.7 -8.9 1.5 -0.6 9.7 -1 18.3 -1 l15.7 0 16 -16 c8.8 -8.8 17.1 -16.4 18.5 -16.9 5.7 -1.9 12.1 3.8 10.4 9.3 -0.4 1.1 -5.4 6.9 -11.1 12.7 l-10.4 10.7 6.5 0.4 c8.7 0.5 11.2 2.9 10.7 10 0 1 -1.1 2.6 -2.3 3.8 -2.1 1.9 -3.3 2 -37.3 2 l-35.2 0 -2 -2.2z"/>
  <path d="M365.9 509.1 l-2.4 -1.9 0 -95.1 0 -95 2.2 -2.2 c2.9 -3 7.6 -2.9 10.8 0.1 l2.5 2.3 0 94.7 0 94.7 -2.3 2.1 c-2.9 2.7 -7.7 2.8 -10.8 0.3z"/>
 </g>
</svg>
